%TF.GenerationSoftware,KiCad,Pcbnew,6.0.2+dfsg-1*%
%TF.CreationDate,2023-05-13T15:52:16+02:00*%
%TF.ProjectId,LittleJimmy,4c697474-6c65-44a6-996d-6d792e6b6963,0.1*%
%TF.SameCoordinates,Original*%
%TF.FileFunction,Copper,L2,Bot*%
%TF.FilePolarity,Positive*%
%FSLAX46Y46*%
G04 Gerber Fmt 4.6, Leading zero omitted, Abs format (unit mm)*
G04 Created by KiCad (PCBNEW 6.0.2+dfsg-1) date 2023-05-13 15:52:16*
%MOMM*%
%LPD*%
G01*
G04 APERTURE LIST*
%TA.AperFunction,ComponentPad*%
%ADD10R,1.050000X1.500000*%
%TD*%
%TA.AperFunction,ComponentPad*%
%ADD11O,1.050000X1.500000*%
%TD*%
%TA.AperFunction,ComponentPad*%
%ADD12R,1.600000X1.600000*%
%TD*%
%TA.AperFunction,ComponentPad*%
%ADD13C,1.600000*%
%TD*%
%TA.AperFunction,ComponentPad*%
%ADD14R,1.700000X1.700000*%
%TD*%
%TA.AperFunction,ComponentPad*%
%ADD15O,1.700000X1.700000*%
%TD*%
%TA.AperFunction,ComponentPad*%
%ADD16R,2.200000X2.200000*%
%TD*%
%TA.AperFunction,ComponentPad*%
%ADD17O,2.200000X2.200000*%
%TD*%
%TA.AperFunction,ComponentPad*%
%ADD18O,1.600000X1.600000*%
%TD*%
%TA.AperFunction,Conductor*%
%ADD19C,0.500000*%
%TD*%
G04 APERTURE END LIST*
D10*
%TO.P,Q1,1,A*%
%TO.N,+5V*%
X76200000Y-33380000D03*
D11*
%TO.P,Q1,2,G*%
%TO.N,Net-(C4-Pad1)*%
X77470000Y-33380000D03*
%TO.P,Q1,3,K*%
%TO.N,GND*%
X78740000Y-33380000D03*
%TD*%
D12*
%TO.P,C1,1*%
%TO.N,VCC*%
X57785000Y-32385000D03*
D13*
%TO.P,C1,2*%
%TO.N,GND*%
X55285000Y-32385000D03*
%TD*%
%TO.P,C3,1*%
%TO.N,+5V*%
X66715000Y-30480000D03*
%TO.P,C3,2*%
%TO.N,GND*%
X71715000Y-30480000D03*
%TD*%
D14*
%TO.P,J1,1,Pin_1*%
%TO.N,+5V*%
X51435000Y-31115000D03*
D15*
%TO.P,J1,2,Pin_2*%
%TO.N,GND*%
X51435000Y-33655000D03*
%TO.P,J1,3,Pin_3*%
%TO.N,VCC*%
X51435000Y-36195000D03*
%TD*%
D13*
%TO.P,C4,1*%
%TO.N,Net-(C4-Pad1)*%
X66715000Y-33655000D03*
%TO.P,C4,2*%
%TO.N,GND*%
X71715000Y-33655000D03*
%TD*%
D16*
%TO.P,D1,1,K*%
%TO.N,+5V*%
X68580000Y-37465000D03*
D17*
%TO.P,D1,2,A*%
%TO.N,Net-(C4-Pad1)*%
X78740000Y-37465000D03*
%TD*%
D13*
%TO.P,R1,1*%
%TO.N,Net-(C4-Pad1)*%
X65405000Y-37465000D03*
D18*
%TO.P,R1,2*%
%TO.N,GND*%
X55245000Y-37465000D03*
%TD*%
D12*
%TO.P,C2,1*%
%TO.N,+5V*%
X63500000Y-32385000D03*
D13*
%TO.P,C2,2*%
%TO.N,GND*%
X61000000Y-32385000D03*
%TD*%
D14*
%TO.P,J2,1,Pin_1*%
%TO.N,+5V*%
X83820000Y-38735000D03*
D15*
%TO.P,J2,2,Pin_2*%
%TO.N,GND*%
X83820000Y-36195000D03*
%TO.P,J2,3,Pin_3*%
X83820000Y-33655000D03*
%TO.P,J2,4,Pin_4*%
%TO.N,VCC*%
X83820000Y-31115000D03*
%TD*%
D19*
%TO.N,VCC*%
X60400700Y-31034900D02*
X59135100Y-32300500D01*
X82419900Y-31115000D02*
X81678200Y-31856700D01*
X57785000Y-32385000D02*
X59135100Y-32385000D01*
X51435000Y-36195000D02*
X53975000Y-36195000D01*
X81678200Y-31856700D02*
X65999600Y-31856700D01*
X65999600Y-31856700D02*
X65177800Y-31034900D01*
X59135100Y-32300500D02*
X59135100Y-32385000D01*
X53975000Y-36195000D02*
X57785000Y-32385000D01*
X83820000Y-31115000D02*
X82419900Y-31115000D01*
X65177800Y-31034900D02*
X60400700Y-31034900D01*
%TO.N,+5V*%
X68580000Y-36639900D02*
X74240200Y-36639900D01*
X78365000Y-34680100D02*
X76200000Y-34680100D01*
X76200000Y-33380000D02*
X76200000Y-34680100D01*
X66929900Y-35814900D02*
X68580000Y-35814900D01*
X74240200Y-36639900D02*
X76200000Y-34680100D01*
X63500000Y-32385000D02*
X64850100Y-32385000D01*
X68580000Y-36639900D02*
X68580000Y-35814900D01*
X64850100Y-33735100D02*
X66929900Y-35814900D01*
X68580000Y-37465000D02*
X68580000Y-36639900D01*
X82419900Y-38735000D02*
X78365000Y-34680100D01*
X64850100Y-32385000D02*
X64850100Y-33735100D01*
X83820000Y-38735000D02*
X82419900Y-38735000D01*
%TD*%
%TA.AperFunction,Conductor*%
%TO.N,GND*%
G36*
X65915948Y-29230002D02*
G01*
X65962441Y-29283658D01*
X65972545Y-29353932D01*
X65943051Y-29418512D01*
X65920098Y-29439213D01*
X65875211Y-29470643D01*
X65875208Y-29470645D01*
X65870700Y-29473802D01*
X65708802Y-29635700D01*
X65577477Y-29823251D01*
X65575154Y-29828233D01*
X65575151Y-29828238D01*
X65489878Y-30011109D01*
X65480716Y-30030757D01*
X65479294Y-30036064D01*
X65437848Y-30190741D01*
X65400896Y-30251363D01*
X65337035Y-30282385D01*
X65286197Y-30280519D01*
X65277646Y-30278427D01*
X65272190Y-30277092D01*
X65266588Y-30276744D01*
X65266585Y-30276744D01*
X65261036Y-30276400D01*
X65261038Y-30276364D01*
X65257045Y-30276125D01*
X65252853Y-30275751D01*
X65245685Y-30274260D01*
X65181920Y-30275985D01*
X65168279Y-30276354D01*
X65164872Y-30276400D01*
X60467770Y-30276400D01*
X60448820Y-30274967D01*
X60434585Y-30272801D01*
X60434581Y-30272801D01*
X60427351Y-30271701D01*
X60420059Y-30272294D01*
X60420056Y-30272294D01*
X60374682Y-30275985D01*
X60364467Y-30276400D01*
X60356407Y-30276400D01*
X60352773Y-30276824D01*
X60352767Y-30276824D01*
X60339742Y-30278343D01*
X60328180Y-30279691D01*
X60323832Y-30280121D01*
X60301759Y-30281916D01*
X60258362Y-30285446D01*
X60258359Y-30285447D01*
X60251064Y-30286040D01*
X60244100Y-30288296D01*
X60238161Y-30289483D01*
X60232290Y-30290870D01*
X60225019Y-30291718D01*
X60218143Y-30294214D01*
X60218134Y-30294216D01*
X60156402Y-30316625D01*
X60152298Y-30318035D01*
X60082801Y-30340548D01*
X60076546Y-30344344D01*
X60071087Y-30346843D01*
X60065639Y-30349571D01*
X60058763Y-30352067D01*
X59997710Y-30392095D01*
X59994027Y-30394419D01*
X59936386Y-30429396D01*
X59936382Y-30429399D01*
X59931593Y-30432305D01*
X59927394Y-30436014D01*
X59927389Y-30436017D01*
X59923216Y-30439703D01*
X59923192Y-30439676D01*
X59920200Y-30442329D01*
X59916967Y-30445032D01*
X59910848Y-30449044D01*
X59886707Y-30474528D01*
X59857572Y-30505283D01*
X59855194Y-30507725D01*
X59132916Y-31230003D01*
X59070604Y-31264029D01*
X58999789Y-31258964D01*
X58954726Y-31230003D01*
X58953642Y-31228919D01*
X58948261Y-31221739D01*
X58831705Y-31134385D01*
X58695316Y-31083255D01*
X58633134Y-31076500D01*
X56936866Y-31076500D01*
X56874684Y-31083255D01*
X56738295Y-31134385D01*
X56621739Y-31221739D01*
X56534385Y-31338295D01*
X56483255Y-31474684D01*
X56476500Y-31536866D01*
X56476500Y-31540185D01*
X56452847Y-31607110D01*
X56406844Y-31642804D01*
X56407859Y-31644734D01*
X56397000Y-31650442D01*
X56396755Y-31650632D01*
X56396597Y-31650653D01*
X56358566Y-31670644D01*
X54569923Y-33459287D01*
X54563493Y-33471062D01*
X54572789Y-33483077D01*
X54623994Y-33518931D01*
X54633489Y-33524414D01*
X54830947Y-33616490D01*
X54841239Y-33620236D01*
X55051688Y-33676625D01*
X55062480Y-33678528D01*
X55120946Y-33683643D01*
X55187064Y-33709506D01*
X55228704Y-33767009D01*
X55232645Y-33837896D01*
X55199060Y-33898259D01*
X53697724Y-35399595D01*
X53635412Y-35433621D01*
X53608629Y-35436500D01*
X52630939Y-35436500D01*
X52562818Y-35416498D01*
X52525147Y-35378941D01*
X52518022Y-35367926D01*
X52515014Y-35363277D01*
X52364670Y-35198051D01*
X52360619Y-35194852D01*
X52360615Y-35194848D01*
X52193414Y-35062800D01*
X52193410Y-35062798D01*
X52189359Y-35059598D01*
X52184820Y-35057092D01*
X52152270Y-35039124D01*
X52147569Y-35036529D01*
X52097598Y-34986097D01*
X52082826Y-34916654D01*
X52107942Y-34850248D01*
X52135294Y-34823641D01*
X52310328Y-34698792D01*
X52318200Y-34692139D01*
X52469052Y-34541812D01*
X52475730Y-34533965D01*
X52600003Y-34361020D01*
X52605313Y-34352183D01*
X52699670Y-34161267D01*
X52703469Y-34151672D01*
X52765377Y-33947910D01*
X52767555Y-33937837D01*
X52768986Y-33926962D01*
X52766775Y-33912778D01*
X52753617Y-33909000D01*
X50118225Y-33909000D01*
X50104694Y-33912973D01*
X50103257Y-33922966D01*
X50133565Y-34057446D01*
X50136645Y-34067275D01*
X50216770Y-34264603D01*
X50221413Y-34273794D01*
X50332694Y-34455388D01*
X50338777Y-34463699D01*
X50478213Y-34624667D01*
X50485580Y-34631883D01*
X50649434Y-34767916D01*
X50657881Y-34773831D01*
X50726969Y-34814203D01*
X50775693Y-34865842D01*
X50788764Y-34935625D01*
X50762033Y-35001396D01*
X50721584Y-35034752D01*
X50708607Y-35041507D01*
X50704474Y-35044610D01*
X50704471Y-35044612D01*
X50565860Y-35148684D01*
X50529965Y-35175635D01*
X50526035Y-35179748D01*
X50393425Y-35318516D01*
X50375629Y-35337138D01*
X50372715Y-35341410D01*
X50372714Y-35341411D01*
X50360404Y-35359457D01*
X50249743Y-35521680D01*
X50242730Y-35536788D01*
X50160903Y-35713071D01*
X50155688Y-35724305D01*
X50095989Y-35939570D01*
X50072251Y-36161695D01*
X50072548Y-36166848D01*
X50072548Y-36166851D01*
X50076392Y-36233510D01*
X50085110Y-36384715D01*
X50086247Y-36389761D01*
X50086248Y-36389767D01*
X50101181Y-36456028D01*
X50134222Y-36602639D01*
X50218266Y-36809616D01*
X50220965Y-36814020D01*
X50314349Y-36966409D01*
X50334987Y-37000088D01*
X50481250Y-37168938D01*
X50653126Y-37311632D01*
X50846000Y-37424338D01*
X50850825Y-37426180D01*
X50850826Y-37426181D01*
X50864056Y-37431233D01*
X51054692Y-37504030D01*
X51059760Y-37505061D01*
X51059763Y-37505062D01*
X51141734Y-37521739D01*
X51273597Y-37548567D01*
X51278772Y-37548757D01*
X51278774Y-37548757D01*
X51491673Y-37556564D01*
X51491677Y-37556564D01*
X51496837Y-37556753D01*
X51501957Y-37556097D01*
X51501959Y-37556097D01*
X51713288Y-37529025D01*
X51713289Y-37529025D01*
X51718416Y-37528368D01*
X51731642Y-37524400D01*
X51927429Y-37465661D01*
X51927434Y-37465659D01*
X51932384Y-37464174D01*
X52132994Y-37365896D01*
X52314860Y-37236173D01*
X52319531Y-37231519D01*
X52469435Y-37082137D01*
X52473096Y-37078489D01*
X52521630Y-37010947D01*
X52525203Y-37005974D01*
X52581198Y-36962326D01*
X52627526Y-36953500D01*
X53863708Y-36953500D01*
X53931829Y-36973502D01*
X53978322Y-37027158D01*
X53988426Y-37097432D01*
X53985415Y-37112111D01*
X53963606Y-37193503D01*
X53963942Y-37207599D01*
X53971884Y-37211000D01*
X56512967Y-37211000D01*
X56526498Y-37207027D01*
X56527727Y-37198478D01*
X56480236Y-37021239D01*
X56476490Y-37010947D01*
X56384414Y-36813489D01*
X56378931Y-36803993D01*
X56253972Y-36625533D01*
X56246916Y-36617125D01*
X56092875Y-36463084D01*
X56084467Y-36456028D01*
X55906007Y-36331069D01*
X55896511Y-36325586D01*
X55699053Y-36233510D01*
X55688761Y-36229764D01*
X55478312Y-36173375D01*
X55467520Y-36171472D01*
X55372272Y-36163139D01*
X55306154Y-36137276D01*
X55264514Y-36079772D01*
X55260573Y-36008885D01*
X55294158Y-35948523D01*
X57512276Y-33730405D01*
X57574588Y-33696379D01*
X57601371Y-33693500D01*
X58633134Y-33693500D01*
X58695316Y-33686745D01*
X58831705Y-33635615D01*
X58948261Y-33548261D01*
X59006119Y-33471062D01*
X60278493Y-33471062D01*
X60287789Y-33483077D01*
X60338994Y-33518931D01*
X60348489Y-33524414D01*
X60545947Y-33616490D01*
X60556239Y-33620236D01*
X60766688Y-33676625D01*
X60777481Y-33678528D01*
X60994525Y-33697517D01*
X61005475Y-33697517D01*
X61222519Y-33678528D01*
X61233312Y-33676625D01*
X61443761Y-33620236D01*
X61454053Y-33616490D01*
X61651511Y-33524414D01*
X61661006Y-33518931D01*
X61713048Y-33482491D01*
X61721424Y-33472012D01*
X61714356Y-33458566D01*
X61012812Y-32757022D01*
X60998868Y-32749408D01*
X60997035Y-32749539D01*
X60990420Y-32753790D01*
X60284923Y-33459287D01*
X60278493Y-33471062D01*
X59006119Y-33471062D01*
X59035615Y-33431705D01*
X59086745Y-33295316D01*
X59087598Y-33287464D01*
X59087599Y-33287460D01*
X59091134Y-33254913D01*
X59118375Y-33189351D01*
X59176738Y-33148924D01*
X59195055Y-33144341D01*
X59239984Y-33136621D01*
X59246710Y-33135652D01*
X59267635Y-33133212D01*
X59303511Y-33129030D01*
X59303514Y-33129029D01*
X59310781Y-33128182D01*
X59319707Y-33124942D01*
X59341358Y-33119201D01*
X59350714Y-33117594D01*
X59410096Y-33092327D01*
X59416389Y-33089848D01*
X59477037Y-33067833D01*
X59483839Y-33063374D01*
X59484978Y-33062627D01*
X59504715Y-33052067D01*
X59506723Y-33051213D01*
X59506735Y-33051206D01*
X59513464Y-33048343D01*
X59519356Y-33044007D01*
X59519361Y-33044004D01*
X59565432Y-33010100D01*
X59571028Y-33006210D01*
X59583167Y-32998251D01*
X59624952Y-32970856D01*
X59631484Y-32963961D01*
X59648266Y-32949139D01*
X59652132Y-32946294D01*
X59718851Y-32922028D01*
X59788099Y-32937685D01*
X59841009Y-32994527D01*
X59860584Y-33036507D01*
X59866069Y-33046006D01*
X59902509Y-33098048D01*
X59912988Y-33106424D01*
X59926434Y-33099356D01*
X60910905Y-32114885D01*
X60973217Y-32080859D01*
X61044032Y-32085924D01*
X61089095Y-32114885D01*
X62074287Y-33100077D01*
X62116029Y-33122871D01*
X62126029Y-33125047D01*
X62176227Y-33175253D01*
X62191451Y-33228814D01*
X62191500Y-33229719D01*
X62191500Y-33233134D01*
X62198255Y-33295316D01*
X62249385Y-33431705D01*
X62336739Y-33548261D01*
X62453295Y-33635615D01*
X62589684Y-33686745D01*
X62651866Y-33693500D01*
X63969423Y-33693500D01*
X64037544Y-33713502D01*
X64084037Y-33767158D01*
X64094576Y-33804923D01*
X64094895Y-33807655D01*
X64095322Y-33811982D01*
X64101240Y-33884737D01*
X64103496Y-33891701D01*
X64104687Y-33897660D01*
X64106071Y-33903515D01*
X64106918Y-33910781D01*
X64131835Y-33979427D01*
X64133252Y-33983555D01*
X64147334Y-34027022D01*
X64155749Y-34052999D01*
X64159545Y-34059254D01*
X64162051Y-34064728D01*
X64164770Y-34070158D01*
X64167267Y-34077037D01*
X64171280Y-34083157D01*
X64171280Y-34083158D01*
X64207286Y-34138076D01*
X64209623Y-34141780D01*
X64247505Y-34204207D01*
X64251221Y-34208415D01*
X64251222Y-34208416D01*
X64254903Y-34212584D01*
X64254876Y-34212608D01*
X64257529Y-34215600D01*
X64260232Y-34218833D01*
X64264244Y-34224952D01*
X64288273Y-34247715D01*
X64320483Y-34278228D01*
X64322925Y-34280606D01*
X66133664Y-36091345D01*
X66167690Y-36153657D01*
X66162625Y-36224472D01*
X66120078Y-36281308D01*
X66053558Y-36306119D01*
X65991320Y-36294635D01*
X65859230Y-36233041D01*
X65859225Y-36233039D01*
X65854243Y-36230716D01*
X65848935Y-36229294D01*
X65848933Y-36229293D01*
X65638402Y-36172881D01*
X65638400Y-36172881D01*
X65633087Y-36171457D01*
X65405000Y-36151502D01*
X65176913Y-36171457D01*
X65171600Y-36172881D01*
X65171598Y-36172881D01*
X64961067Y-36229293D01*
X64961065Y-36229294D01*
X64955757Y-36230716D01*
X64950776Y-36233039D01*
X64950775Y-36233039D01*
X64753238Y-36325151D01*
X64753233Y-36325154D01*
X64748251Y-36327477D01*
X64736482Y-36335718D01*
X64565211Y-36455643D01*
X64565208Y-36455645D01*
X64560700Y-36458802D01*
X64398802Y-36620700D01*
X64267477Y-36808251D01*
X64265154Y-36813233D01*
X64265151Y-36813238D01*
X64176339Y-37003699D01*
X64170716Y-37015757D01*
X64169294Y-37021065D01*
X64169293Y-37021067D01*
X64112902Y-37231519D01*
X64111457Y-37236913D01*
X64091502Y-37465000D01*
X64111457Y-37693087D01*
X64112881Y-37698400D01*
X64112881Y-37698402D01*
X64152200Y-37845139D01*
X64170716Y-37914243D01*
X64173039Y-37919224D01*
X64173039Y-37919225D01*
X64265151Y-38116762D01*
X64265154Y-38116767D01*
X64267477Y-38121749D01*
X64398802Y-38309300D01*
X64560700Y-38471198D01*
X64565208Y-38474355D01*
X64565211Y-38474357D01*
X64643389Y-38529098D01*
X64748251Y-38602523D01*
X64753233Y-38604846D01*
X64753238Y-38604849D01*
X64904357Y-38675316D01*
X64955757Y-38699284D01*
X64961065Y-38700706D01*
X64961067Y-38700707D01*
X65171598Y-38757119D01*
X65171600Y-38757119D01*
X65176913Y-38758543D01*
X65405000Y-38778498D01*
X65633087Y-38758543D01*
X65638400Y-38757119D01*
X65638402Y-38757119D01*
X65848933Y-38700707D01*
X65848935Y-38700706D01*
X65854243Y-38699284D01*
X65905643Y-38675316D01*
X66056762Y-38604849D01*
X66056767Y-38604846D01*
X66061749Y-38602523D01*
X66166611Y-38529098D01*
X66244789Y-38474357D01*
X66244792Y-38474355D01*
X66249300Y-38471198D01*
X66411198Y-38309300D01*
X66542523Y-38121749D01*
X66544846Y-38116767D01*
X66544849Y-38116762D01*
X66636961Y-37919225D01*
X66636961Y-37919224D01*
X66639284Y-37914243D01*
X66657801Y-37845139D01*
X66697119Y-37698402D01*
X66697119Y-37698400D01*
X66698543Y-37693087D01*
X66718498Y-37465000D01*
X66698543Y-37236913D01*
X66697098Y-37231519D01*
X66640707Y-37021067D01*
X66640706Y-37021065D01*
X66639284Y-37015757D01*
X66633661Y-37003699D01*
X66544849Y-36813238D01*
X66544846Y-36813233D01*
X66542523Y-36808251D01*
X66539367Y-36803744D01*
X66539366Y-36803742D01*
X66462948Y-36694606D01*
X66440260Y-36627332D01*
X66457545Y-36558471D01*
X66509315Y-36509887D01*
X66579133Y-36497005D01*
X66623463Y-36510119D01*
X66657186Y-36527339D01*
X66657188Y-36527340D01*
X66663708Y-36530669D01*
X66670815Y-36532408D01*
X66676459Y-36534507D01*
X66682222Y-36536424D01*
X66688850Y-36539522D01*
X66696012Y-36541012D01*
X66696013Y-36541012D01*
X66760312Y-36554386D01*
X66764596Y-36555356D01*
X66835510Y-36572708D01*
X66841112Y-36573056D01*
X66841115Y-36573056D01*
X66846664Y-36573400D01*
X66846662Y-36573436D01*
X66850660Y-36573675D01*
X66854845Y-36574049D01*
X66857900Y-36574684D01*
X66922779Y-36600197D01*
X66964315Y-36657776D01*
X66971500Y-36699716D01*
X66971500Y-38613134D01*
X66978255Y-38675316D01*
X67029385Y-38811705D01*
X67116739Y-38928261D01*
X67233295Y-39015615D01*
X67369684Y-39066745D01*
X67431866Y-39073500D01*
X69728134Y-39073500D01*
X69790316Y-39066745D01*
X69926705Y-39015615D01*
X70043261Y-38928261D01*
X70130615Y-38811705D01*
X70181745Y-38675316D01*
X70188500Y-38613134D01*
X70188500Y-37524400D01*
X70208502Y-37456279D01*
X70262158Y-37409786D01*
X70314500Y-37398400D01*
X74173130Y-37398400D01*
X74192080Y-37399833D01*
X74206315Y-37401999D01*
X74206319Y-37401999D01*
X74213549Y-37403099D01*
X74220841Y-37402506D01*
X74220844Y-37402506D01*
X74266218Y-37398815D01*
X74276433Y-37398400D01*
X74284493Y-37398400D01*
X74297783Y-37396851D01*
X74312707Y-37395111D01*
X74317082Y-37394678D01*
X74382539Y-37389354D01*
X74382542Y-37389353D01*
X74389837Y-37388760D01*
X74396801Y-37386504D01*
X74402760Y-37385313D01*
X74408615Y-37383929D01*
X74415881Y-37383082D01*
X74484527Y-37358165D01*
X74488655Y-37356748D01*
X74551136Y-37336507D01*
X74551138Y-37336506D01*
X74558099Y-37334251D01*
X74564354Y-37330455D01*
X74569828Y-37327949D01*
X74575258Y-37325230D01*
X74582137Y-37322733D01*
X74643176Y-37282714D01*
X74646880Y-37280377D01*
X74709307Y-37242495D01*
X74717684Y-37235097D01*
X74717708Y-37235124D01*
X74720700Y-37232471D01*
X74723933Y-37229768D01*
X74730052Y-37225756D01*
X74783328Y-37169517D01*
X74785706Y-37167075D01*
X76477276Y-35475505D01*
X76539588Y-35441479D01*
X76566371Y-35438600D01*
X77998629Y-35438600D01*
X78066750Y-35458602D01*
X78087724Y-35475505D01*
X78325290Y-35713071D01*
X78359316Y-35775383D01*
X78354251Y-35846198D01*
X78311704Y-35903034D01*
X78265610Y-35924685D01*
X78241409Y-35930495D01*
X78236838Y-35932388D01*
X78236836Y-35932389D01*
X78012072Y-36025489D01*
X78012068Y-36025491D01*
X78007498Y-36027384D01*
X77791624Y-36159672D01*
X77599102Y-36324102D01*
X77434672Y-36516624D01*
X77302384Y-36732498D01*
X77300491Y-36737068D01*
X77300489Y-36737072D01*
X77207389Y-36961836D01*
X77205495Y-36966409D01*
X77193648Y-37015757D01*
X77147591Y-37207599D01*
X77146391Y-37212597D01*
X77126526Y-37465000D01*
X77146391Y-37717403D01*
X77147545Y-37722210D01*
X77147546Y-37722216D01*
X77160143Y-37774684D01*
X77205495Y-37963591D01*
X77302384Y-38197502D01*
X77434672Y-38413376D01*
X77599102Y-38605898D01*
X77791624Y-38770328D01*
X78007498Y-38902616D01*
X78012068Y-38904509D01*
X78012072Y-38904511D01*
X78082401Y-38933642D01*
X78241409Y-38999505D01*
X78308513Y-39015615D01*
X78482784Y-39057454D01*
X78482790Y-39057455D01*
X78487597Y-39058609D01*
X78740000Y-39078474D01*
X78992403Y-39058609D01*
X78997210Y-39057455D01*
X78997216Y-39057454D01*
X79171487Y-39015615D01*
X79238591Y-38999505D01*
X79397599Y-38933642D01*
X79467928Y-38904511D01*
X79467932Y-38904509D01*
X79472502Y-38902616D01*
X79688376Y-38770328D01*
X79880898Y-38605898D01*
X80045328Y-38413376D01*
X80177616Y-38197502D01*
X80274505Y-37963591D01*
X80280315Y-37939390D01*
X80315668Y-37877821D01*
X80378694Y-37845139D01*
X80449385Y-37851720D01*
X80491929Y-37879710D01*
X81836130Y-39223911D01*
X81848516Y-39238323D01*
X81857049Y-39249918D01*
X81857054Y-39249923D01*
X81861392Y-39255818D01*
X81866970Y-39260557D01*
X81866973Y-39260560D01*
X81901668Y-39290035D01*
X81909184Y-39296965D01*
X81914880Y-39302661D01*
X81917741Y-39304924D01*
X81917746Y-39304929D01*
X81937156Y-39320285D01*
X81940558Y-39323074D01*
X81996185Y-39370333D01*
X82002702Y-39373661D01*
X82007750Y-39377027D01*
X82012872Y-39380190D01*
X82018616Y-39384735D01*
X82084795Y-39415664D01*
X82088679Y-39417563D01*
X82153708Y-39450769D01*
X82160823Y-39452510D01*
X82166478Y-39454613D01*
X82172217Y-39456522D01*
X82178850Y-39459622D01*
X82250335Y-39474491D01*
X82254601Y-39475457D01*
X82325510Y-39492808D01*
X82331112Y-39493156D01*
X82331115Y-39493156D01*
X82336664Y-39493500D01*
X82336662Y-39493535D01*
X82340630Y-39493774D01*
X82344848Y-39494150D01*
X82347880Y-39494781D01*
X82412769Y-39520291D01*
X82454311Y-39577865D01*
X82461500Y-39619817D01*
X82461500Y-39633134D01*
X82468255Y-39695316D01*
X82519385Y-39831705D01*
X82606739Y-39948261D01*
X82723295Y-40035615D01*
X82859684Y-40086745D01*
X82921866Y-40093500D01*
X84718134Y-40093500D01*
X84780316Y-40086745D01*
X84916705Y-40035615D01*
X85033261Y-39948261D01*
X85120615Y-39831705D01*
X85171745Y-39695316D01*
X85178500Y-39633134D01*
X85178500Y-37836866D01*
X85171745Y-37774684D01*
X85120615Y-37638295D01*
X85033261Y-37521739D01*
X84916705Y-37434385D01*
X84797687Y-37389767D01*
X84740923Y-37347125D01*
X84716223Y-37280564D01*
X84731430Y-37211215D01*
X84752977Y-37182535D01*
X84854052Y-37081812D01*
X84860730Y-37073965D01*
X84985003Y-36901020D01*
X84990313Y-36892183D01*
X85084670Y-36701267D01*
X85088469Y-36691672D01*
X85150377Y-36487910D01*
X85152555Y-36477837D01*
X85153986Y-36466962D01*
X85151775Y-36452778D01*
X85138617Y-36449000D01*
X82503225Y-36449000D01*
X82489694Y-36452973D01*
X82488257Y-36462966D01*
X82518565Y-36597446D01*
X82521645Y-36607275D01*
X82601770Y-36804603D01*
X82606413Y-36813794D01*
X82717694Y-36995388D01*
X82723777Y-37003699D01*
X82863213Y-37164667D01*
X82870577Y-37171879D01*
X82875522Y-37175985D01*
X82915156Y-37234889D01*
X82916653Y-37305870D01*
X82879537Y-37366392D01*
X82839264Y-37390910D01*
X82731705Y-37431232D01*
X82731704Y-37431233D01*
X82723295Y-37434385D01*
X82606739Y-37521739D01*
X82580498Y-37556753D01*
X82553632Y-37592600D01*
X82496773Y-37635115D01*
X82425955Y-37640141D01*
X82363711Y-37606130D01*
X80686764Y-35929183D01*
X82484389Y-35929183D01*
X82485912Y-35937607D01*
X82498292Y-35941000D01*
X83547885Y-35941000D01*
X83563124Y-35936525D01*
X83564329Y-35935135D01*
X83566000Y-35927452D01*
X83566000Y-35922885D01*
X84074000Y-35922885D01*
X84078475Y-35938124D01*
X84079865Y-35939329D01*
X84087548Y-35941000D01*
X85138344Y-35941000D01*
X85151875Y-35937027D01*
X85153180Y-35927947D01*
X85111214Y-35760875D01*
X85107894Y-35751124D01*
X85022972Y-35555814D01*
X85018105Y-35546739D01*
X84902426Y-35367926D01*
X84896136Y-35359757D01*
X84752806Y-35202240D01*
X84745273Y-35195215D01*
X84578139Y-35063222D01*
X84569552Y-35057517D01*
X84532116Y-35036851D01*
X84482146Y-34986419D01*
X84467374Y-34916976D01*
X84492490Y-34850571D01*
X84519842Y-34823964D01*
X84695327Y-34698792D01*
X84703200Y-34692139D01*
X84854052Y-34541812D01*
X84860730Y-34533965D01*
X84985003Y-34361020D01*
X84990313Y-34352183D01*
X85084670Y-34161267D01*
X85088469Y-34151672D01*
X85150377Y-33947910D01*
X85152555Y-33937837D01*
X85153986Y-33926962D01*
X85151775Y-33912778D01*
X85138617Y-33909000D01*
X84092115Y-33909000D01*
X84076876Y-33913475D01*
X84075671Y-33914865D01*
X84074000Y-33922548D01*
X84074000Y-35922885D01*
X83566000Y-35922885D01*
X83566000Y-33927115D01*
X83561525Y-33911876D01*
X83560135Y-33910671D01*
X83552452Y-33909000D01*
X82503225Y-33909000D01*
X82489694Y-33912973D01*
X82488257Y-33922966D01*
X82518565Y-34057446D01*
X82521645Y-34067275D01*
X82601770Y-34264603D01*
X82606413Y-34273794D01*
X82717694Y-34455388D01*
X82723777Y-34463699D01*
X82863213Y-34624667D01*
X82870580Y-34631883D01*
X83034434Y-34767916D01*
X83042881Y-34773831D01*
X83112479Y-34814501D01*
X83161203Y-34866140D01*
X83174274Y-34935923D01*
X83147543Y-35001694D01*
X83107087Y-35035053D01*
X83098462Y-35039542D01*
X83089738Y-35045036D01*
X82919433Y-35172905D01*
X82911726Y-35179748D01*
X82764590Y-35333717D01*
X82758104Y-35341727D01*
X82638098Y-35517649D01*
X82633000Y-35526623D01*
X82543338Y-35719783D01*
X82539775Y-35729470D01*
X82484389Y-35929183D01*
X80686764Y-35929183D01*
X79364858Y-34607277D01*
X79330832Y-34544965D01*
X79335897Y-34474150D01*
X79375001Y-34419985D01*
X79461449Y-34350479D01*
X79470213Y-34341897D01*
X79592499Y-34196162D01*
X79599437Y-34186031D01*
X79691094Y-34019308D01*
X79695924Y-34008038D01*
X79753452Y-33826685D01*
X79756002Y-33814691D01*
X79772607Y-33666650D01*
X79773000Y-33659626D01*
X79773000Y-33652115D01*
X79768525Y-33636876D01*
X79767135Y-33635671D01*
X79759452Y-33634000D01*
X78629500Y-33634000D01*
X78561379Y-33613998D01*
X78514886Y-33560342D01*
X78503500Y-33508000D01*
X78503500Y-33252000D01*
X78523502Y-33183879D01*
X78577158Y-33137386D01*
X78629500Y-33126000D01*
X79754885Y-33126000D01*
X79770124Y-33121525D01*
X79771329Y-33120135D01*
X79773000Y-33112452D01*
X79773000Y-33107110D01*
X79772700Y-33100965D01*
X79758830Y-32959519D01*
X79756447Y-32947482D01*
X79705162Y-32777618D01*
X79704621Y-32706623D01*
X79742549Y-32646607D01*
X79806903Y-32616623D01*
X79825784Y-32615200D01*
X81611130Y-32615200D01*
X81630080Y-32616633D01*
X81644315Y-32618799D01*
X81644319Y-32618799D01*
X81651549Y-32619899D01*
X81658841Y-32619306D01*
X81658844Y-32619306D01*
X81704218Y-32615615D01*
X81714433Y-32615200D01*
X81722493Y-32615200D01*
X81735783Y-32613651D01*
X81750707Y-32611911D01*
X81755082Y-32611478D01*
X81820539Y-32606154D01*
X81820542Y-32606153D01*
X81827837Y-32605560D01*
X81834801Y-32603304D01*
X81840760Y-32602113D01*
X81846615Y-32600729D01*
X81853881Y-32599882D01*
X81922527Y-32574965D01*
X81926655Y-32573548D01*
X81989136Y-32553307D01*
X81989138Y-32553306D01*
X81996099Y-32551051D01*
X82002354Y-32547255D01*
X82007828Y-32544749D01*
X82013258Y-32542030D01*
X82020137Y-32539533D01*
X82063291Y-32511240D01*
X82081176Y-32499514D01*
X82084880Y-32497177D01*
X82147307Y-32459295D01*
X82155684Y-32451897D01*
X82155708Y-32451924D01*
X82158700Y-32449271D01*
X82161933Y-32446568D01*
X82168052Y-32442556D01*
X82221328Y-32386317D01*
X82223706Y-32383875D01*
X82609194Y-31998387D01*
X82671506Y-31964361D01*
X82742321Y-31969426D01*
X82793526Y-32004984D01*
X82862865Y-32085031D01*
X82862869Y-32085035D01*
X82866250Y-32088938D01*
X83038126Y-32231632D01*
X83111955Y-32274774D01*
X83160679Y-32326412D01*
X83173750Y-32396195D01*
X83147019Y-32461967D01*
X83106562Y-32495327D01*
X83098457Y-32499546D01*
X83089738Y-32505036D01*
X82919433Y-32632905D01*
X82911726Y-32639748D01*
X82764590Y-32793717D01*
X82758104Y-32801727D01*
X82638098Y-32977649D01*
X82633000Y-32986623D01*
X82543338Y-33179783D01*
X82539775Y-33189470D01*
X82484389Y-33389183D01*
X82485912Y-33397607D01*
X82498292Y-33401000D01*
X85138344Y-33401000D01*
X85151875Y-33397027D01*
X85153180Y-33387947D01*
X85111214Y-33220875D01*
X85107894Y-33211124D01*
X85022972Y-33015814D01*
X85018105Y-33006739D01*
X84902426Y-32827926D01*
X84896136Y-32819757D01*
X84752806Y-32662240D01*
X84745273Y-32655215D01*
X84578139Y-32523222D01*
X84569556Y-32517520D01*
X84532602Y-32497120D01*
X84482631Y-32446687D01*
X84467859Y-32377245D01*
X84492975Y-32310839D01*
X84520327Y-32284232D01*
X84543797Y-32267491D01*
X84699860Y-32156173D01*
X84858096Y-31998489D01*
X84988453Y-31817077D01*
X85064359Y-31663493D01*
X85085136Y-31621453D01*
X85085137Y-31621451D01*
X85087430Y-31616811D01*
X85152370Y-31403069D01*
X85181529Y-31181590D01*
X85182551Y-31139771D01*
X85183074Y-31118365D01*
X85183074Y-31118361D01*
X85183156Y-31115000D01*
X85164852Y-30892361D01*
X85110431Y-30675702D01*
X85021354Y-30470840D01*
X84956290Y-30370267D01*
X84902822Y-30287617D01*
X84902820Y-30287614D01*
X84900014Y-30283277D01*
X84749670Y-30118051D01*
X84745619Y-30114852D01*
X84745615Y-30114848D01*
X84578414Y-29982800D01*
X84578410Y-29982798D01*
X84574359Y-29979598D01*
X84378789Y-29871638D01*
X84373920Y-29869914D01*
X84373916Y-29869912D01*
X84173087Y-29798795D01*
X84173083Y-29798794D01*
X84168212Y-29797069D01*
X84163119Y-29796162D01*
X84163116Y-29796161D01*
X83953373Y-29758800D01*
X83953367Y-29758799D01*
X83948284Y-29757894D01*
X83874452Y-29756992D01*
X83730081Y-29755228D01*
X83730079Y-29755228D01*
X83724911Y-29755165D01*
X83504091Y-29788955D01*
X83291756Y-29858357D01*
X83093607Y-29961507D01*
X83089474Y-29964610D01*
X83089471Y-29964612D01*
X82994306Y-30036064D01*
X82914965Y-30095635D01*
X82911393Y-30099373D01*
X82824080Y-30190741D01*
X82760629Y-30257138D01*
X82730363Y-30301507D01*
X82675455Y-30346507D01*
X82626277Y-30356500D01*
X82486969Y-30356500D01*
X82468021Y-30355067D01*
X82460680Y-30353950D01*
X82453783Y-30352901D01*
X82453781Y-30352901D01*
X82446551Y-30351801D01*
X82439259Y-30352394D01*
X82439256Y-30352394D01*
X82393882Y-30356085D01*
X82383667Y-30356500D01*
X82375607Y-30356500D01*
X82362317Y-30358049D01*
X82347393Y-30359789D01*
X82343018Y-30360222D01*
X82277561Y-30365546D01*
X82277558Y-30365547D01*
X82270263Y-30366140D01*
X82263299Y-30368396D01*
X82257340Y-30369587D01*
X82251485Y-30370971D01*
X82244219Y-30371818D01*
X82175573Y-30396735D01*
X82171445Y-30398152D01*
X82108964Y-30418393D01*
X82108962Y-30418394D01*
X82102001Y-30420649D01*
X82095746Y-30424445D01*
X82090272Y-30426951D01*
X82084842Y-30429670D01*
X82077963Y-30432167D01*
X82016916Y-30472191D01*
X82013227Y-30474518D01*
X82004194Y-30480000D01*
X81955593Y-30509491D01*
X81955588Y-30509495D01*
X81950792Y-30512405D01*
X81942416Y-30519803D01*
X81942393Y-30519777D01*
X81939403Y-30522426D01*
X81936164Y-30525134D01*
X81930048Y-30529144D01*
X81925021Y-30534451D01*
X81925017Y-30534454D01*
X81876772Y-30585383D01*
X81874394Y-30587825D01*
X81400924Y-31061295D01*
X81338612Y-31095321D01*
X81311829Y-31098200D01*
X73066692Y-31098200D01*
X72998571Y-31078198D01*
X72952078Y-31024542D01*
X72941974Y-30954268D01*
X72948290Y-30929108D01*
X72950235Y-30923763D01*
X73006625Y-30713312D01*
X73008528Y-30702519D01*
X73027517Y-30485475D01*
X73027517Y-30474525D01*
X73008528Y-30257481D01*
X73006625Y-30246688D01*
X72950236Y-30036239D01*
X72946490Y-30025947D01*
X72854414Y-29828489D01*
X72848931Y-29818994D01*
X72812491Y-29766952D01*
X72802012Y-29758576D01*
X72788566Y-29765644D01*
X71804095Y-30750115D01*
X71741783Y-30784141D01*
X71670968Y-30779076D01*
X71625905Y-30750115D01*
X70640713Y-29764923D01*
X70628938Y-29758493D01*
X70616923Y-29767789D01*
X70581069Y-29818994D01*
X70575586Y-29828489D01*
X70483510Y-30025947D01*
X70479764Y-30036239D01*
X70423375Y-30246688D01*
X70421472Y-30257481D01*
X70402483Y-30474525D01*
X70402483Y-30485475D01*
X70421472Y-30702519D01*
X70423375Y-30713312D01*
X70479765Y-30923763D01*
X70481710Y-30929108D01*
X70486212Y-30999962D01*
X70451692Y-31062001D01*
X70389111Y-31095530D01*
X70363308Y-31098200D01*
X68067225Y-31098200D01*
X67999104Y-31078198D01*
X67952611Y-31024542D01*
X67942507Y-30954268D01*
X67948213Y-30931540D01*
X67949284Y-30929243D01*
X67950753Y-30923763D01*
X68007119Y-30713402D01*
X68007119Y-30713400D01*
X68008543Y-30708087D01*
X68028498Y-30480000D01*
X68008543Y-30251913D01*
X67992152Y-30190741D01*
X67950707Y-30036067D01*
X67950706Y-30036064D01*
X67949284Y-30030757D01*
X67940122Y-30011109D01*
X67854849Y-29828238D01*
X67854846Y-29828233D01*
X67852523Y-29823251D01*
X67721198Y-29635700D01*
X67559300Y-29473802D01*
X67554792Y-29470645D01*
X67554789Y-29470643D01*
X67509902Y-29439213D01*
X67465574Y-29383756D01*
X67458265Y-29313136D01*
X67490296Y-29249776D01*
X67551497Y-29213791D01*
X67582173Y-29210000D01*
X70877822Y-29210000D01*
X70945943Y-29230002D01*
X70992436Y-29283658D01*
X71002540Y-29353932D01*
X70994308Y-29372947D01*
X70992455Y-29390854D01*
X71000644Y-29406434D01*
X71702188Y-30107978D01*
X71716132Y-30115592D01*
X71717965Y-30115461D01*
X71724580Y-30111210D01*
X72430077Y-29405713D01*
X72437691Y-29391769D01*
X72436506Y-29375200D01*
X72425468Y-29346981D01*
X72439458Y-29277376D01*
X72488857Y-29226384D01*
X72550989Y-29210000D01*
X85599000Y-29210000D01*
X85667121Y-29230002D01*
X85713614Y-29283658D01*
X85725000Y-29336000D01*
X85725000Y-40514000D01*
X85704998Y-40582121D01*
X85651342Y-40628614D01*
X85599000Y-40640000D01*
X49656000Y-40640000D01*
X49587879Y-40619998D01*
X49541386Y-40566342D01*
X49530000Y-40514000D01*
X49530000Y-37731522D01*
X53962273Y-37731522D01*
X54009764Y-37908761D01*
X54013510Y-37919053D01*
X54105586Y-38116511D01*
X54111069Y-38126007D01*
X54236028Y-38304467D01*
X54243084Y-38312875D01*
X54397125Y-38466916D01*
X54405533Y-38473972D01*
X54583993Y-38598931D01*
X54593489Y-38604414D01*
X54790947Y-38696490D01*
X54801239Y-38700236D01*
X54973503Y-38746394D01*
X54987599Y-38746058D01*
X54991000Y-38738116D01*
X54991000Y-38732967D01*
X55499000Y-38732967D01*
X55502973Y-38746498D01*
X55511522Y-38747727D01*
X55688761Y-38700236D01*
X55699053Y-38696490D01*
X55896511Y-38604414D01*
X55906007Y-38598931D01*
X56084467Y-38473972D01*
X56092875Y-38466916D01*
X56246916Y-38312875D01*
X56253972Y-38304467D01*
X56378931Y-38126007D01*
X56384414Y-38116511D01*
X56476490Y-37919053D01*
X56480236Y-37908761D01*
X56526394Y-37736497D01*
X56526058Y-37722401D01*
X56518116Y-37719000D01*
X55517115Y-37719000D01*
X55501876Y-37723475D01*
X55500671Y-37724865D01*
X55499000Y-37732548D01*
X55499000Y-38732967D01*
X54991000Y-38732967D01*
X54991000Y-37737115D01*
X54986525Y-37721876D01*
X54985135Y-37720671D01*
X54977452Y-37719000D01*
X53977033Y-37719000D01*
X53963502Y-37722973D01*
X53962273Y-37731522D01*
X49530000Y-37731522D01*
X49530000Y-32013134D01*
X50076500Y-32013134D01*
X50083255Y-32075316D01*
X50134385Y-32211705D01*
X50221739Y-32328261D01*
X50338295Y-32415615D01*
X50346704Y-32418767D01*
X50346705Y-32418768D01*
X50455960Y-32459726D01*
X50512725Y-32502367D01*
X50537425Y-32568929D01*
X50522218Y-32638278D01*
X50502825Y-32664759D01*
X50379590Y-32793717D01*
X50373104Y-32801727D01*
X50253098Y-32977649D01*
X50248000Y-32986623D01*
X50158338Y-33179783D01*
X50154775Y-33189470D01*
X50099389Y-33389183D01*
X50100912Y-33397607D01*
X50113292Y-33401000D01*
X52753344Y-33401000D01*
X52766875Y-33397027D01*
X52768180Y-33387947D01*
X52726214Y-33220875D01*
X52722894Y-33211124D01*
X52637972Y-33015814D01*
X52633105Y-33006739D01*
X52517426Y-32827926D01*
X52511136Y-32819757D01*
X52367293Y-32661677D01*
X52336241Y-32597831D01*
X52344635Y-32527333D01*
X52389812Y-32472564D01*
X52416256Y-32458895D01*
X52523297Y-32418767D01*
X52531705Y-32415615D01*
X52565249Y-32390475D01*
X53972483Y-32390475D01*
X53991472Y-32607519D01*
X53993375Y-32618312D01*
X54049764Y-32828761D01*
X54053510Y-32839053D01*
X54145586Y-33036511D01*
X54151069Y-33046006D01*
X54187509Y-33098048D01*
X54197988Y-33106424D01*
X54211434Y-33099356D01*
X54912978Y-32397812D01*
X54920592Y-32383868D01*
X54920461Y-32382035D01*
X54916210Y-32375420D01*
X54210713Y-31669923D01*
X54198938Y-31663493D01*
X54186923Y-31672789D01*
X54151069Y-31723994D01*
X54145586Y-31733489D01*
X54053510Y-31930947D01*
X54049764Y-31941239D01*
X53993375Y-32151688D01*
X53991472Y-32162481D01*
X53972483Y-32379525D01*
X53972483Y-32390475D01*
X52565249Y-32390475D01*
X52648261Y-32328261D01*
X52735615Y-32211705D01*
X52786745Y-32075316D01*
X52793500Y-32013134D01*
X52793500Y-31297988D01*
X54563576Y-31297988D01*
X54570644Y-31311434D01*
X55272188Y-32012978D01*
X55286132Y-32020592D01*
X55287965Y-32020461D01*
X55294580Y-32016210D01*
X56000077Y-31310713D01*
X56006507Y-31298938D01*
X55997211Y-31286923D01*
X55946006Y-31251069D01*
X55936511Y-31245586D01*
X55739053Y-31153510D01*
X55728761Y-31149764D01*
X55518312Y-31093375D01*
X55507519Y-31091472D01*
X55290475Y-31072483D01*
X55279525Y-31072483D01*
X55062481Y-31091472D01*
X55051688Y-31093375D01*
X54841239Y-31149764D01*
X54830947Y-31153510D01*
X54633489Y-31245586D01*
X54623994Y-31251069D01*
X54571952Y-31287509D01*
X54563576Y-31297988D01*
X52793500Y-31297988D01*
X52793500Y-30216866D01*
X52786745Y-30154684D01*
X52735615Y-30018295D01*
X52648261Y-29901739D01*
X52531705Y-29814385D01*
X52395316Y-29763255D01*
X52333134Y-29756500D01*
X50536866Y-29756500D01*
X50474684Y-29763255D01*
X50338295Y-29814385D01*
X50221739Y-29901739D01*
X50134385Y-30018295D01*
X50083255Y-30154684D01*
X50076500Y-30216866D01*
X50076500Y-32013134D01*
X49530000Y-32013134D01*
X49530000Y-29336000D01*
X49550002Y-29267879D01*
X49603658Y-29221386D01*
X49656000Y-29210000D01*
X65847827Y-29210000D01*
X65915948Y-29230002D01*
G37*
%TD.AperFunction*%
%TA.AperFunction,Conductor*%
G36*
X70672380Y-32635202D02*
G01*
X70718873Y-32688858D01*
X70728977Y-32759132D01*
X70707472Y-32813471D01*
X70581069Y-32993993D01*
X70575586Y-33003489D01*
X70483510Y-33200947D01*
X70479764Y-33211239D01*
X70423375Y-33421688D01*
X70421472Y-33432481D01*
X70402483Y-33649525D01*
X70402483Y-33660475D01*
X70421472Y-33877519D01*
X70423375Y-33888312D01*
X70479764Y-34098761D01*
X70483510Y-34109053D01*
X70575586Y-34306511D01*
X70581069Y-34316006D01*
X70617509Y-34368048D01*
X70627988Y-34376424D01*
X70641434Y-34369356D01*
X71625905Y-33384885D01*
X71688217Y-33350859D01*
X71759032Y-33355924D01*
X71804095Y-33384885D01*
X72789287Y-34370077D01*
X72801062Y-34376507D01*
X72813077Y-34367211D01*
X72848931Y-34316006D01*
X72854414Y-34306511D01*
X72946490Y-34109053D01*
X72950236Y-34098761D01*
X73006625Y-33888312D01*
X73008528Y-33877519D01*
X73027517Y-33660475D01*
X73027517Y-33649525D01*
X73008528Y-33432481D01*
X73006625Y-33421688D01*
X72950236Y-33211239D01*
X72946490Y-33200947D01*
X72854414Y-33003489D01*
X72848931Y-32993993D01*
X72722528Y-32813471D01*
X72699840Y-32746197D01*
X72717125Y-32677336D01*
X72768895Y-32628752D01*
X72825741Y-32615200D01*
X75040500Y-32615200D01*
X75108621Y-32635202D01*
X75155114Y-32688858D01*
X75166500Y-32741200D01*
X75166500Y-34178134D01*
X75173255Y-34240316D01*
X75224385Y-34376705D01*
X75229771Y-34383891D01*
X75247262Y-34407230D01*
X75272109Y-34473737D01*
X75257056Y-34543119D01*
X75235530Y-34571889D01*
X73962924Y-35844495D01*
X73900612Y-35878521D01*
X73873829Y-35881400D01*
X69861559Y-35881400D01*
X69817330Y-35873382D01*
X69797711Y-35866027D01*
X69797709Y-35866027D01*
X69790316Y-35863255D01*
X69782468Y-35862402D01*
X69782466Y-35862402D01*
X69731531Y-35856869D01*
X69728134Y-35856500D01*
X69462987Y-35856500D01*
X69394866Y-35836498D01*
X69348373Y-35782842D01*
X69338807Y-35751838D01*
X69331620Y-35710011D01*
X69330651Y-35703282D01*
X69324030Y-35646489D01*
X69324029Y-35646486D01*
X69323182Y-35639219D01*
X69319942Y-35630293D01*
X69314201Y-35608642D01*
X69312594Y-35599286D01*
X69287327Y-35539904D01*
X69284848Y-35533611D01*
X69262833Y-35472963D01*
X69257627Y-35465022D01*
X69247067Y-35445285D01*
X69246213Y-35443277D01*
X69246206Y-35443265D01*
X69243343Y-35436536D01*
X69239007Y-35430644D01*
X69239004Y-35430639D01*
X69205100Y-35384568D01*
X69201210Y-35378972D01*
X69176791Y-35341727D01*
X69165856Y-35325048D01*
X69158961Y-35318516D01*
X69144139Y-35301734D01*
X69138508Y-35294082D01*
X69132935Y-35289347D01*
X69132928Y-35289340D01*
X69089351Y-35252319D01*
X69084277Y-35247767D01*
X69042766Y-35208443D01*
X69042765Y-35208442D01*
X69037453Y-35203410D01*
X69031126Y-35199735D01*
X69031117Y-35199728D01*
X69029232Y-35198633D01*
X69010953Y-35185715D01*
X69009294Y-35184306D01*
X69009291Y-35184304D01*
X69003715Y-35179567D01*
X68997201Y-35176241D01*
X68997197Y-35176238D01*
X68946264Y-35150230D01*
X68940281Y-35146968D01*
X68890841Y-35118251D01*
X68890839Y-35118250D01*
X68884510Y-35114574D01*
X68877506Y-35112453D01*
X68877502Y-35112451D01*
X68875425Y-35111822D01*
X68854649Y-35103449D01*
X68846192Y-35099131D01*
X68783505Y-35083792D01*
X68776988Y-35082009D01*
X68715233Y-35063305D01*
X68705983Y-35062731D01*
X68705754Y-35062717D01*
X68683617Y-35059349D01*
X68679846Y-35058426D01*
X68679834Y-35058424D01*
X68674390Y-35057092D01*
X68666539Y-35056605D01*
X68665175Y-35056520D01*
X68665165Y-35056520D01*
X68663236Y-35056400D01*
X68607835Y-35056400D01*
X68600033Y-35056158D01*
X68538702Y-35052353D01*
X68525740Y-35054580D01*
X68504404Y-35056400D01*
X67374212Y-35056400D01*
X67306091Y-35036398D01*
X67259598Y-34982742D01*
X67249494Y-34912468D01*
X67278988Y-34847888D01*
X67320963Y-34816205D01*
X67366758Y-34794851D01*
X67366764Y-34794847D01*
X67371749Y-34792523D01*
X67445243Y-34741062D01*
X70993493Y-34741062D01*
X71002789Y-34753077D01*
X71053994Y-34788931D01*
X71063489Y-34794414D01*
X71260947Y-34886490D01*
X71271239Y-34890236D01*
X71481688Y-34946625D01*
X71492481Y-34948528D01*
X71709525Y-34967517D01*
X71720475Y-34967517D01*
X71937519Y-34948528D01*
X71948312Y-34946625D01*
X72158761Y-34890236D01*
X72169053Y-34886490D01*
X72366511Y-34794414D01*
X72376006Y-34788931D01*
X72428048Y-34752491D01*
X72436424Y-34742012D01*
X72429356Y-34728566D01*
X71727812Y-34027022D01*
X71713868Y-34019408D01*
X71712035Y-34019539D01*
X71705420Y-34023790D01*
X70999923Y-34729287D01*
X70993493Y-34741062D01*
X67445243Y-34741062D01*
X67476611Y-34719098D01*
X67554789Y-34664357D01*
X67554792Y-34664355D01*
X67559300Y-34661198D01*
X67721198Y-34499300D01*
X67724702Y-34494297D01*
X67812186Y-34369356D01*
X67852523Y-34311749D01*
X67854846Y-34306767D01*
X67854849Y-34306762D01*
X67946961Y-34109225D01*
X67946961Y-34109224D01*
X67949284Y-34104243D01*
X67966853Y-34038677D01*
X68007119Y-33888402D01*
X68007119Y-33888400D01*
X68008543Y-33883087D01*
X68028498Y-33655000D01*
X68008543Y-33426913D01*
X68001600Y-33401000D01*
X67950707Y-33211067D01*
X67950706Y-33211065D01*
X67949284Y-33205757D01*
X67922783Y-33148924D01*
X67854849Y-33003238D01*
X67854846Y-33003233D01*
X67852523Y-32998251D01*
X67723138Y-32813470D01*
X67700450Y-32746197D01*
X67717735Y-32677337D01*
X67769504Y-32628752D01*
X67826351Y-32615200D01*
X70604259Y-32615200D01*
X70672380Y-32635202D01*
G37*
%TD.AperFunction*%
%TD*%
M02*
