%TF.GenerationSoftware,KiCad,Pcbnew,6.0.2+dfsg-1*%
%TF.CreationDate,2023-05-13T15:52:15+02:00*%
%TF.ProjectId,LittleJimmy,4c697474-6c65-44a6-996d-6d792e6b6963,0.1*%
%TF.SameCoordinates,Original*%
%TF.FileFunction,Copper,L1,Top*%
%TF.FilePolarity,Positive*%
%FSLAX46Y46*%
G04 Gerber Fmt 4.6, Leading zero omitted, Abs format (unit mm)*
G04 Created by KiCad (PCBNEW 6.0.2+dfsg-1) date 2023-05-13 15:52:15*
%MOMM*%
%LPD*%
G01*
G04 APERTURE LIST*
%TA.AperFunction,ComponentPad*%
%ADD10R,1.050000X1.500000*%
%TD*%
%TA.AperFunction,ComponentPad*%
%ADD11O,1.050000X1.500000*%
%TD*%
%TA.AperFunction,ComponentPad*%
%ADD12R,1.600000X1.600000*%
%TD*%
%TA.AperFunction,ComponentPad*%
%ADD13C,1.600000*%
%TD*%
%TA.AperFunction,ComponentPad*%
%ADD14R,1.700000X1.700000*%
%TD*%
%TA.AperFunction,ComponentPad*%
%ADD15O,1.700000X1.700000*%
%TD*%
%TA.AperFunction,ComponentPad*%
%ADD16R,2.200000X2.200000*%
%TD*%
%TA.AperFunction,ComponentPad*%
%ADD17O,2.200000X2.200000*%
%TD*%
%TA.AperFunction,ComponentPad*%
%ADD18O,1.600000X1.600000*%
%TD*%
%TA.AperFunction,Conductor*%
%ADD19C,0.500000*%
%TD*%
G04 APERTURE END LIST*
D10*
%TO.P,Q1,1,A*%
%TO.N,+5V*%
X76200000Y-33380000D03*
D11*
%TO.P,Q1,2,G*%
%TO.N,Net-(C4-Pad1)*%
X77470000Y-33380000D03*
%TO.P,Q1,3,K*%
%TO.N,GND*%
X78740000Y-33380000D03*
%TD*%
D12*
%TO.P,C1,1*%
%TO.N,VCC*%
X57785000Y-32385000D03*
D13*
%TO.P,C1,2*%
%TO.N,GND*%
X55285000Y-32385000D03*
%TD*%
%TO.P,C3,1*%
%TO.N,+5V*%
X66715000Y-30480000D03*
%TO.P,C3,2*%
%TO.N,GND*%
X71715000Y-30480000D03*
%TD*%
D14*
%TO.P,J1,1,Pin_1*%
%TO.N,+5V*%
X51435000Y-31115000D03*
D15*
%TO.P,J1,2,Pin_2*%
%TO.N,GND*%
X51435000Y-33655000D03*
%TO.P,J1,3,Pin_3*%
%TO.N,VCC*%
X51435000Y-36195000D03*
%TD*%
D13*
%TO.P,C4,1*%
%TO.N,Net-(C4-Pad1)*%
X66715000Y-33655000D03*
%TO.P,C4,2*%
%TO.N,GND*%
X71715000Y-33655000D03*
%TD*%
D16*
%TO.P,D1,1,K*%
%TO.N,+5V*%
X68580000Y-37465000D03*
D17*
%TO.P,D1,2,A*%
%TO.N,Net-(C4-Pad1)*%
X78740000Y-37465000D03*
%TD*%
D13*
%TO.P,R1,1*%
%TO.N,Net-(C4-Pad1)*%
X65405000Y-37465000D03*
D18*
%TO.P,R1,2*%
%TO.N,GND*%
X55245000Y-37465000D03*
%TD*%
D12*
%TO.P,C2,1*%
%TO.N,+5V*%
X63500000Y-32385000D03*
D13*
%TO.P,C2,2*%
%TO.N,GND*%
X61000000Y-32385000D03*
%TD*%
D14*
%TO.P,J2,1,Pin_1*%
%TO.N,+5V*%
X83820000Y-38735000D03*
D15*
%TO.P,J2,2,Pin_2*%
%TO.N,GND*%
X83820000Y-36195000D03*
%TO.P,J2,3,Pin_3*%
X83820000Y-33655000D03*
%TO.P,J2,4,Pin_4*%
%TO.N,VCC*%
X83820000Y-31115000D03*
%TD*%
D19*
%TO.N,+5V*%
X62148400Y-31033400D02*
X63500000Y-32385000D01*
X64850100Y-32344900D02*
X66715000Y-30480000D01*
X51435000Y-31115000D02*
X52835100Y-31115000D01*
X63500000Y-32385000D02*
X64850100Y-32385000D01*
X52835100Y-31115000D02*
X52916700Y-31033400D01*
X64850100Y-32385000D02*
X64850100Y-32344900D01*
X52916700Y-31033400D02*
X62148400Y-31033400D01*
%TO.N,Net-(C4-Pad1)*%
X67965000Y-34905000D02*
X65405000Y-37465000D01*
X67965000Y-34905000D02*
X68105300Y-35045300D01*
X68105300Y-35045300D02*
X77104800Y-35045300D01*
X66715000Y-33655000D02*
X67965000Y-34905000D01*
X77104800Y-35045300D02*
X77470000Y-34680100D01*
X78604800Y-35814900D02*
X77470000Y-34680100D01*
X78740000Y-37465000D02*
X78740000Y-35814900D01*
X77470000Y-33380000D02*
X77470000Y-34680100D01*
X78740000Y-35814900D02*
X78604800Y-35814900D01*
%TD*%
%TA.AperFunction,Conductor*%
%TO.N,GND*%
G36*
X65915948Y-29230002D02*
G01*
X65962441Y-29283658D01*
X65972545Y-29353932D01*
X65943051Y-29418512D01*
X65920098Y-29439213D01*
X65875211Y-29470643D01*
X65875208Y-29470645D01*
X65870700Y-29473802D01*
X65708802Y-29635700D01*
X65577477Y-29823251D01*
X65575154Y-29828233D01*
X65575151Y-29828238D01*
X65489878Y-30011109D01*
X65480716Y-30030757D01*
X65479294Y-30036065D01*
X65479293Y-30036067D01*
X65443416Y-30169961D01*
X65421457Y-30251913D01*
X65401502Y-30480000D01*
X65401981Y-30485475D01*
X65415755Y-30642913D01*
X65401766Y-30712518D01*
X65379329Y-30742990D01*
X64867691Y-31254628D01*
X64805379Y-31288654D01*
X64734564Y-31283589D01*
X64677771Y-31241100D01*
X64663261Y-31221739D01*
X64546705Y-31134385D01*
X64410316Y-31083255D01*
X64348134Y-31076500D01*
X63316371Y-31076500D01*
X63248250Y-31056498D01*
X63227276Y-31039595D01*
X62732170Y-30544489D01*
X62719784Y-30530077D01*
X62711251Y-30518482D01*
X62711246Y-30518477D01*
X62706908Y-30512582D01*
X62701330Y-30507843D01*
X62701327Y-30507840D01*
X62666632Y-30478365D01*
X62659116Y-30471435D01*
X62653421Y-30465740D01*
X62647280Y-30460882D01*
X62631149Y-30448119D01*
X62627745Y-30445328D01*
X62577697Y-30402809D01*
X62577695Y-30402808D01*
X62572115Y-30398067D01*
X62565599Y-30394739D01*
X62560550Y-30391372D01*
X62555421Y-30388205D01*
X62549684Y-30383666D01*
X62483525Y-30352745D01*
X62479625Y-30350839D01*
X62414592Y-30317631D01*
X62407484Y-30315892D01*
X62401841Y-30313793D01*
X62396078Y-30311876D01*
X62389450Y-30308778D01*
X62317983Y-30293913D01*
X62313699Y-30292943D01*
X62291933Y-30287617D01*
X62242790Y-30275592D01*
X62237188Y-30275244D01*
X62237185Y-30275244D01*
X62231636Y-30274900D01*
X62231638Y-30274864D01*
X62227645Y-30274625D01*
X62223453Y-30274251D01*
X62216285Y-30272760D01*
X62150075Y-30274551D01*
X62138879Y-30274854D01*
X62135472Y-30274900D01*
X52983770Y-30274900D01*
X52964820Y-30273467D01*
X52950585Y-30271301D01*
X52950581Y-30271301D01*
X52943351Y-30270201D01*
X52936058Y-30270794D01*
X52936053Y-30270794D01*
X52922786Y-30271873D01*
X52853268Y-30257458D01*
X52802580Y-30207747D01*
X52790523Y-30169961D01*
X52789425Y-30170222D01*
X52787598Y-30162540D01*
X52786745Y-30154684D01*
X52735615Y-30018295D01*
X52648261Y-29901739D01*
X52531705Y-29814385D01*
X52395316Y-29763255D01*
X52333134Y-29756500D01*
X50536866Y-29756500D01*
X50474684Y-29763255D01*
X50338295Y-29814385D01*
X50221739Y-29901739D01*
X50134385Y-30018295D01*
X50083255Y-30154684D01*
X50076500Y-30216866D01*
X50076500Y-32013134D01*
X50083255Y-32075316D01*
X50134385Y-32211705D01*
X50221739Y-32328261D01*
X50338295Y-32415615D01*
X50346704Y-32418767D01*
X50346705Y-32418768D01*
X50455960Y-32459726D01*
X50512725Y-32502367D01*
X50537425Y-32568929D01*
X50522218Y-32638278D01*
X50502825Y-32664759D01*
X50379590Y-32793717D01*
X50373104Y-32801727D01*
X50253098Y-32977649D01*
X50248000Y-32986623D01*
X50158338Y-33179783D01*
X50154775Y-33189470D01*
X50099389Y-33389183D01*
X50100912Y-33397607D01*
X50113292Y-33401000D01*
X52753344Y-33401000D01*
X52766875Y-33397027D01*
X52768180Y-33387947D01*
X52726214Y-33220875D01*
X52722894Y-33211124D01*
X52637972Y-33015814D01*
X52633105Y-33006739D01*
X52517426Y-32827926D01*
X52511136Y-32819757D01*
X52367293Y-32661677D01*
X52336241Y-32597831D01*
X52344635Y-32527333D01*
X52389812Y-32472564D01*
X52416256Y-32458895D01*
X52511896Y-32423041D01*
X52531705Y-32415615D01*
X52648261Y-32328261D01*
X52735615Y-32211705D01*
X52786745Y-32075316D01*
X52793500Y-32013134D01*
X52793500Y-31995677D01*
X52813502Y-31927556D01*
X52867158Y-31881063D01*
X52904923Y-31870524D01*
X52907655Y-31870205D01*
X52911982Y-31869778D01*
X52977439Y-31864454D01*
X52977442Y-31864453D01*
X52984737Y-31863860D01*
X52991701Y-31861604D01*
X52997660Y-31860413D01*
X53003515Y-31859029D01*
X53010781Y-31858182D01*
X53079427Y-31833265D01*
X53083555Y-31831848D01*
X53146036Y-31811607D01*
X53146038Y-31811606D01*
X53152999Y-31809351D01*
X53159256Y-31805554D01*
X53164096Y-31803338D01*
X53216550Y-31791900D01*
X53925573Y-31791900D01*
X53993694Y-31811902D01*
X54040187Y-31865558D01*
X54050291Y-31935832D01*
X54047280Y-31950511D01*
X53993375Y-32151688D01*
X53991472Y-32162481D01*
X53972483Y-32379525D01*
X53972483Y-32390475D01*
X53991472Y-32607519D01*
X53993375Y-32618312D01*
X54049764Y-32828761D01*
X54053510Y-32839053D01*
X54145586Y-33036511D01*
X54151069Y-33046006D01*
X54187509Y-33098048D01*
X54197988Y-33106424D01*
X54211434Y-33099356D01*
X55195905Y-32114885D01*
X55258217Y-32080859D01*
X55329032Y-32085924D01*
X55374095Y-32114885D01*
X56359287Y-33100077D01*
X56401029Y-33122871D01*
X56411029Y-33125047D01*
X56461227Y-33175253D01*
X56476451Y-33228814D01*
X56476500Y-33229717D01*
X56476500Y-33233134D01*
X56483255Y-33295316D01*
X56534385Y-33431705D01*
X56621739Y-33548261D01*
X56738295Y-33635615D01*
X56874684Y-33686745D01*
X56936866Y-33693500D01*
X58633134Y-33693500D01*
X58695316Y-33686745D01*
X58831705Y-33635615D01*
X58948261Y-33548261D01*
X59006119Y-33471062D01*
X60278493Y-33471062D01*
X60287789Y-33483077D01*
X60338994Y-33518931D01*
X60348489Y-33524414D01*
X60545947Y-33616490D01*
X60556239Y-33620236D01*
X60766688Y-33676625D01*
X60777481Y-33678528D01*
X60994525Y-33697517D01*
X61005475Y-33697517D01*
X61222519Y-33678528D01*
X61233312Y-33676625D01*
X61443761Y-33620236D01*
X61454053Y-33616490D01*
X61651511Y-33524414D01*
X61661006Y-33518931D01*
X61713048Y-33482491D01*
X61721424Y-33472012D01*
X61714356Y-33458566D01*
X61012812Y-32757022D01*
X60998868Y-32749408D01*
X60997035Y-32749539D01*
X60990420Y-32753790D01*
X60284923Y-33459287D01*
X60278493Y-33471062D01*
X59006119Y-33471062D01*
X59035615Y-33431705D01*
X59086745Y-33295316D01*
X59093500Y-33233134D01*
X59093500Y-31917900D01*
X59113502Y-31849779D01*
X59167158Y-31803286D01*
X59219500Y-31791900D01*
X59640573Y-31791900D01*
X59708694Y-31811902D01*
X59755187Y-31865558D01*
X59765291Y-31935832D01*
X59762280Y-31950511D01*
X59708375Y-32151688D01*
X59706472Y-32162481D01*
X59687483Y-32379525D01*
X59687483Y-32390475D01*
X59706472Y-32607519D01*
X59708375Y-32618312D01*
X59764764Y-32828761D01*
X59768510Y-32839053D01*
X59860586Y-33036511D01*
X59866069Y-33046006D01*
X59902509Y-33098048D01*
X59912988Y-33106424D01*
X59926434Y-33099356D01*
X60910905Y-32114885D01*
X60973217Y-32080859D01*
X61044032Y-32085924D01*
X61089095Y-32114885D01*
X62074287Y-33100077D01*
X62116029Y-33122871D01*
X62126029Y-33125047D01*
X62176227Y-33175253D01*
X62191451Y-33228814D01*
X62191500Y-33229717D01*
X62191500Y-33233134D01*
X62198255Y-33295316D01*
X62249385Y-33431705D01*
X62336739Y-33548261D01*
X62453295Y-33635615D01*
X62589684Y-33686745D01*
X62651866Y-33693500D01*
X64348134Y-33693500D01*
X64410316Y-33686745D01*
X64546705Y-33635615D01*
X64663261Y-33548261D01*
X64750615Y-33431705D01*
X64801745Y-33295316D01*
X64802598Y-33287464D01*
X64802599Y-33287460D01*
X64806134Y-33254913D01*
X64833375Y-33189351D01*
X64891738Y-33148924D01*
X64910055Y-33144341D01*
X64954984Y-33136621D01*
X64961710Y-33135652D01*
X64982635Y-33133212D01*
X65018511Y-33129030D01*
X65018514Y-33129029D01*
X65025781Y-33128182D01*
X65034707Y-33124942D01*
X65056358Y-33119201D01*
X65065714Y-33117594D01*
X65125096Y-33092327D01*
X65131389Y-33089848D01*
X65192037Y-33067833D01*
X65198839Y-33063374D01*
X65199978Y-33062627D01*
X65219715Y-33052067D01*
X65221723Y-33051213D01*
X65221735Y-33051206D01*
X65228464Y-33048343D01*
X65234356Y-33044007D01*
X65234361Y-33044004D01*
X65280432Y-33010100D01*
X65286028Y-33006211D01*
X65329945Y-32977417D01*
X65397880Y-32956793D01*
X65466181Y-32976172D01*
X65513162Y-33029401D01*
X65523907Y-33099580D01*
X65513226Y-33136037D01*
X65483041Y-33200770D01*
X65480716Y-33205757D01*
X65479294Y-33211065D01*
X65479293Y-33211067D01*
X65428400Y-33401000D01*
X65421457Y-33426913D01*
X65401502Y-33655000D01*
X65421457Y-33883087D01*
X65422881Y-33888400D01*
X65422881Y-33888402D01*
X65457958Y-34019308D01*
X65480716Y-34104243D01*
X65483039Y-34109224D01*
X65483039Y-34109225D01*
X65575151Y-34306762D01*
X65575154Y-34306767D01*
X65577477Y-34311749D01*
X65708802Y-34499300D01*
X65870700Y-34661198D01*
X65875208Y-34664355D01*
X65875211Y-34664357D01*
X65953389Y-34719098D01*
X66058251Y-34792523D01*
X66063233Y-34794846D01*
X66063238Y-34794849D01*
X66260775Y-34886961D01*
X66265757Y-34889284D01*
X66271065Y-34890706D01*
X66271067Y-34890707D01*
X66481598Y-34947119D01*
X66481600Y-34947119D01*
X66486913Y-34948543D01*
X66533668Y-34952633D01*
X66550485Y-34954105D01*
X66616603Y-34979969D01*
X66658243Y-35037472D01*
X66662183Y-35108360D01*
X66628598Y-35168721D01*
X65667990Y-36129329D01*
X65605678Y-36163355D01*
X65567913Y-36165755D01*
X65410475Y-36151981D01*
X65405000Y-36151502D01*
X65176913Y-36171457D01*
X65171600Y-36172881D01*
X65171598Y-36172881D01*
X64961067Y-36229293D01*
X64961065Y-36229294D01*
X64955757Y-36230716D01*
X64950776Y-36233039D01*
X64950775Y-36233039D01*
X64753238Y-36325151D01*
X64753233Y-36325154D01*
X64748251Y-36327477D01*
X64673888Y-36379547D01*
X64565211Y-36455643D01*
X64565208Y-36455645D01*
X64560700Y-36458802D01*
X64398802Y-36620700D01*
X64267477Y-36808251D01*
X64265154Y-36813233D01*
X64265151Y-36813238D01*
X64176339Y-37003699D01*
X64170716Y-37015757D01*
X64169294Y-37021065D01*
X64169293Y-37021067D01*
X64121756Y-37198478D01*
X64111457Y-37236913D01*
X64091502Y-37465000D01*
X64111457Y-37693087D01*
X64112881Y-37698400D01*
X64112881Y-37698402D01*
X64149073Y-37833469D01*
X64170716Y-37914243D01*
X64173039Y-37919224D01*
X64173039Y-37919225D01*
X64265151Y-38116762D01*
X64265154Y-38116767D01*
X64267477Y-38121749D01*
X64398802Y-38309300D01*
X64560700Y-38471198D01*
X64565208Y-38474355D01*
X64565211Y-38474357D01*
X64643389Y-38529098D01*
X64748251Y-38602523D01*
X64753233Y-38604846D01*
X64753238Y-38604849D01*
X64904357Y-38675316D01*
X64955757Y-38699284D01*
X64961065Y-38700706D01*
X64961067Y-38700707D01*
X65171598Y-38757119D01*
X65171600Y-38757119D01*
X65176913Y-38758543D01*
X65405000Y-38778498D01*
X65633087Y-38758543D01*
X65638400Y-38757119D01*
X65638402Y-38757119D01*
X65848933Y-38700707D01*
X65848935Y-38700706D01*
X65854243Y-38699284D01*
X65905643Y-38675316D01*
X66056762Y-38604849D01*
X66056767Y-38604846D01*
X66061749Y-38602523D01*
X66166611Y-38529098D01*
X66244789Y-38474357D01*
X66244792Y-38474355D01*
X66249300Y-38471198D01*
X66411198Y-38309300D01*
X66542523Y-38121749D01*
X66544846Y-38116767D01*
X66544849Y-38116762D01*
X66636961Y-37919225D01*
X66636961Y-37919224D01*
X66639284Y-37914243D01*
X66660928Y-37833469D01*
X66697119Y-37698402D01*
X66697119Y-37698400D01*
X66698543Y-37693087D01*
X66718498Y-37465000D01*
X66715102Y-37426181D01*
X66704245Y-37302087D01*
X66718234Y-37232482D01*
X66740671Y-37202010D01*
X66756405Y-37186276D01*
X66818717Y-37152250D01*
X66889532Y-37157315D01*
X66946368Y-37199862D01*
X66971179Y-37266382D01*
X66971500Y-37275371D01*
X66971500Y-38613134D01*
X66978255Y-38675316D01*
X67029385Y-38811705D01*
X67116739Y-38928261D01*
X67233295Y-39015615D01*
X67369684Y-39066745D01*
X67431866Y-39073500D01*
X69728134Y-39073500D01*
X69790316Y-39066745D01*
X69926705Y-39015615D01*
X70043261Y-38928261D01*
X70130615Y-38811705D01*
X70181745Y-38675316D01*
X70188500Y-38613134D01*
X70188500Y-36316866D01*
X70181745Y-36254684D01*
X70130615Y-36118295D01*
X70125229Y-36111108D01*
X70045979Y-36005365D01*
X70021131Y-35938858D01*
X70036184Y-35869476D01*
X70086358Y-35819246D01*
X70146805Y-35803800D01*
X77037730Y-35803800D01*
X77056680Y-35805233D01*
X77070915Y-35807399D01*
X77070919Y-35807399D01*
X77078149Y-35808499D01*
X77085441Y-35807906D01*
X77085444Y-35807906D01*
X77130818Y-35804215D01*
X77141033Y-35803800D01*
X77149093Y-35803800D01*
X77162383Y-35802251D01*
X77177307Y-35800511D01*
X77181682Y-35800078D01*
X77247139Y-35794754D01*
X77247142Y-35794753D01*
X77254437Y-35794160D01*
X77261401Y-35791904D01*
X77267360Y-35790713D01*
X77273215Y-35789329D01*
X77280481Y-35788482D01*
X77349127Y-35763565D01*
X77353259Y-35762147D01*
X77375132Y-35755062D01*
X77446101Y-35753099D01*
X77503054Y-35785835D01*
X77741230Y-36024011D01*
X77775256Y-36086323D01*
X77770191Y-36157138D01*
X77733966Y-36208916D01*
X77599102Y-36324102D01*
X77434672Y-36516624D01*
X77302384Y-36732498D01*
X77300491Y-36737068D01*
X77300489Y-36737072D01*
X77207389Y-36961836D01*
X77205495Y-36966409D01*
X77193648Y-37015757D01*
X77147591Y-37207599D01*
X77146391Y-37212597D01*
X77126526Y-37465000D01*
X77146391Y-37717403D01*
X77147545Y-37722210D01*
X77147546Y-37722216D01*
X77160143Y-37774684D01*
X77205495Y-37963591D01*
X77302384Y-38197502D01*
X77434672Y-38413376D01*
X77599102Y-38605898D01*
X77791624Y-38770328D01*
X78007498Y-38902616D01*
X78012068Y-38904509D01*
X78012072Y-38904511D01*
X78082401Y-38933642D01*
X78241409Y-38999505D01*
X78308513Y-39015615D01*
X78482784Y-39057454D01*
X78482790Y-39057455D01*
X78487597Y-39058609D01*
X78740000Y-39078474D01*
X78992403Y-39058609D01*
X78997210Y-39057455D01*
X78997216Y-39057454D01*
X79171487Y-39015615D01*
X79238591Y-38999505D01*
X79397599Y-38933642D01*
X79467928Y-38904511D01*
X79467932Y-38904509D01*
X79472502Y-38902616D01*
X79688376Y-38770328D01*
X79880898Y-38605898D01*
X80045328Y-38413376D01*
X80177616Y-38197502D01*
X80274505Y-37963591D01*
X80319857Y-37774684D01*
X80332454Y-37722216D01*
X80332455Y-37722210D01*
X80333609Y-37717403D01*
X80353474Y-37465000D01*
X80333609Y-37212597D01*
X80332410Y-37207599D01*
X80286352Y-37015757D01*
X80274505Y-36966409D01*
X80272611Y-36961836D01*
X80179511Y-36737072D01*
X80179509Y-36737068D01*
X80177616Y-36732498D01*
X80045328Y-36516624D01*
X79880898Y-36324102D01*
X79688376Y-36159672D01*
X79558665Y-36080185D01*
X79511034Y-36027537D01*
X79498500Y-35972752D01*
X79498500Y-35929183D01*
X82484389Y-35929183D01*
X82485912Y-35937607D01*
X82498292Y-35941000D01*
X83547885Y-35941000D01*
X83563124Y-35936525D01*
X83564329Y-35935135D01*
X83566000Y-35927452D01*
X83566000Y-35922885D01*
X84074000Y-35922885D01*
X84078475Y-35938124D01*
X84079865Y-35939329D01*
X84087548Y-35941000D01*
X85138344Y-35941000D01*
X85151875Y-35937027D01*
X85153180Y-35927947D01*
X85111214Y-35760875D01*
X85107894Y-35751124D01*
X85022972Y-35555814D01*
X85018105Y-35546739D01*
X84902426Y-35367926D01*
X84896136Y-35359757D01*
X84752806Y-35202240D01*
X84745273Y-35195215D01*
X84578139Y-35063222D01*
X84569552Y-35057517D01*
X84532116Y-35036851D01*
X84482146Y-34986419D01*
X84467374Y-34916976D01*
X84492490Y-34850571D01*
X84519842Y-34823964D01*
X84695327Y-34698792D01*
X84703200Y-34692139D01*
X84854052Y-34541812D01*
X84860730Y-34533965D01*
X84985003Y-34361020D01*
X84990313Y-34352183D01*
X85084670Y-34161267D01*
X85088469Y-34151672D01*
X85150377Y-33947910D01*
X85152555Y-33937837D01*
X85153986Y-33926962D01*
X85151775Y-33912778D01*
X85138617Y-33909000D01*
X84092115Y-33909000D01*
X84076876Y-33913475D01*
X84075671Y-33914865D01*
X84074000Y-33922548D01*
X84074000Y-35922885D01*
X83566000Y-35922885D01*
X83566000Y-33927115D01*
X83561525Y-33911876D01*
X83560135Y-33910671D01*
X83552452Y-33909000D01*
X82503225Y-33909000D01*
X82489694Y-33912973D01*
X82488257Y-33922966D01*
X82518565Y-34057446D01*
X82521645Y-34067275D01*
X82601770Y-34264603D01*
X82606413Y-34273794D01*
X82717694Y-34455388D01*
X82723777Y-34463699D01*
X82863213Y-34624667D01*
X82870580Y-34631883D01*
X83034434Y-34767916D01*
X83042881Y-34773831D01*
X83112479Y-34814501D01*
X83161203Y-34866140D01*
X83174274Y-34935923D01*
X83147543Y-35001694D01*
X83107087Y-35035053D01*
X83098462Y-35039542D01*
X83089738Y-35045036D01*
X82919433Y-35172905D01*
X82911726Y-35179748D01*
X82764590Y-35333717D01*
X82758104Y-35341727D01*
X82638098Y-35517649D01*
X82633000Y-35526623D01*
X82543338Y-35719783D01*
X82539775Y-35729470D01*
X82484389Y-35929183D01*
X79498500Y-35929183D01*
X79498500Y-35842735D01*
X79498742Y-35834933D01*
X79500450Y-35807399D01*
X79502547Y-35773602D01*
X79491620Y-35710011D01*
X79490651Y-35703282D01*
X79484030Y-35646489D01*
X79484029Y-35646486D01*
X79483182Y-35639219D01*
X79479942Y-35630293D01*
X79474201Y-35608642D01*
X79472594Y-35599286D01*
X79447327Y-35539904D01*
X79444848Y-35533611D01*
X79422833Y-35472963D01*
X79417627Y-35465022D01*
X79407067Y-35445285D01*
X79406213Y-35443277D01*
X79406206Y-35443265D01*
X79403343Y-35436536D01*
X79399007Y-35430644D01*
X79399004Y-35430639D01*
X79365100Y-35384568D01*
X79361210Y-35378972D01*
X79336791Y-35341727D01*
X79325856Y-35325048D01*
X79318961Y-35318516D01*
X79304139Y-35301734D01*
X79298508Y-35294082D01*
X79292935Y-35289347D01*
X79292928Y-35289340D01*
X79249351Y-35252319D01*
X79244277Y-35247767D01*
X79202766Y-35208443D01*
X79202765Y-35208442D01*
X79197453Y-35203410D01*
X79191126Y-35199735D01*
X79191117Y-35199728D01*
X79189232Y-35198633D01*
X79170953Y-35185715D01*
X79169294Y-35184306D01*
X79169291Y-35184304D01*
X79163715Y-35179567D01*
X79157201Y-35176241D01*
X79157197Y-35176238D01*
X79106264Y-35150230D01*
X79100281Y-35146968D01*
X79050841Y-35118251D01*
X79050839Y-35118250D01*
X79044510Y-35114574D01*
X79037506Y-35112453D01*
X79037502Y-35112451D01*
X79035425Y-35111822D01*
X79014649Y-35103449D01*
X79006192Y-35099131D01*
X78981528Y-35093096D01*
X78922383Y-35059802D01*
X78522905Y-34660324D01*
X78488879Y-34598012D01*
X78487909Y-34588986D01*
X78994000Y-34588986D01*
X78997973Y-34602517D01*
X79005768Y-34603637D01*
X79122932Y-34569154D01*
X79134300Y-34564561D01*
X79302911Y-34476414D01*
X79313173Y-34469698D01*
X79461443Y-34350485D01*
X79470213Y-34341897D01*
X79592499Y-34196162D01*
X79599437Y-34186031D01*
X79691094Y-34019308D01*
X79695924Y-34008038D01*
X79753452Y-33826685D01*
X79756002Y-33814691D01*
X79772607Y-33666650D01*
X79773000Y-33659626D01*
X79773000Y-33652115D01*
X79768525Y-33636876D01*
X79767135Y-33635671D01*
X79759452Y-33634000D01*
X79012115Y-33634000D01*
X78996876Y-33638475D01*
X78995671Y-33639865D01*
X78994000Y-33647548D01*
X78994000Y-34588986D01*
X78487909Y-34588986D01*
X78486000Y-34571229D01*
X78486000Y-33826242D01*
X78486785Y-33812197D01*
X78503500Y-33663183D01*
X78503500Y-33107885D01*
X78994000Y-33107885D01*
X78998475Y-33123124D01*
X78999865Y-33124329D01*
X79007548Y-33126000D01*
X79754885Y-33126000D01*
X79770124Y-33121525D01*
X79771329Y-33120135D01*
X79773000Y-33112452D01*
X79773000Y-33107110D01*
X79772700Y-33100965D01*
X79758830Y-32959519D01*
X79756447Y-32947481D01*
X79701458Y-32765349D01*
X79696783Y-32754007D01*
X79607465Y-32586023D01*
X79600678Y-32575807D01*
X79480428Y-32428366D01*
X79471784Y-32419662D01*
X79325191Y-32298390D01*
X79315020Y-32291530D01*
X79147658Y-32201038D01*
X79136353Y-32196286D01*
X79011308Y-32157578D01*
X78997205Y-32157372D01*
X78994000Y-32164127D01*
X78994000Y-33107885D01*
X78503500Y-33107885D01*
X78503500Y-33103996D01*
X78488723Y-32953287D01*
X78488032Y-32950998D01*
X78486000Y-32930276D01*
X78486000Y-32171014D01*
X78482027Y-32157483D01*
X78474232Y-32156363D01*
X78357068Y-32190846D01*
X78345700Y-32195439D01*
X78177093Y-32283584D01*
X78174017Y-32285597D01*
X78172178Y-32286154D01*
X78171630Y-32286440D01*
X78171576Y-32286336D01*
X78106064Y-32306161D01*
X78045094Y-32291001D01*
X78013502Y-32273919D01*
X77872435Y-32197644D01*
X77739078Y-32156363D01*
X77684707Y-32139532D01*
X77684704Y-32139531D01*
X77678820Y-32137710D01*
X77672695Y-32137066D01*
X77672694Y-32137066D01*
X77483378Y-32117168D01*
X77483377Y-32117168D01*
X77477250Y-32116524D01*
X77393986Y-32124102D01*
X77281543Y-32134335D01*
X77281540Y-32134336D01*
X77275404Y-32134894D01*
X77269498Y-32136632D01*
X77269494Y-32136633D01*
X77086879Y-32190380D01*
X77086877Y-32190381D01*
X77085493Y-32190788D01*
X77080971Y-32192119D01*
X77080718Y-32191260D01*
X77015338Y-32197714D01*
X76978594Y-32184548D01*
X76971705Y-32179385D01*
X76963304Y-32176236D01*
X76963301Y-32176234D01*
X76851534Y-32134335D01*
X76835316Y-32128255D01*
X76773134Y-32121500D01*
X75626866Y-32121500D01*
X75564684Y-32128255D01*
X75428295Y-32179385D01*
X75311739Y-32266739D01*
X75224385Y-32383295D01*
X75173255Y-32519684D01*
X75166500Y-32581866D01*
X75166500Y-34160800D01*
X75146498Y-34228921D01*
X75092842Y-34275414D01*
X75040500Y-34286800D01*
X73061386Y-34286800D01*
X72993265Y-34266798D01*
X72946772Y-34213142D01*
X72936668Y-34142868D01*
X72945143Y-34114421D01*
X72944607Y-34114226D01*
X72950236Y-34098761D01*
X73006625Y-33888312D01*
X73008528Y-33877519D01*
X73027517Y-33660475D01*
X73027517Y-33649525D01*
X73008528Y-33432481D01*
X73006625Y-33421688D01*
X72950236Y-33211239D01*
X72946490Y-33200947D01*
X72854414Y-33003489D01*
X72848931Y-32993994D01*
X72812491Y-32941952D01*
X72802012Y-32933576D01*
X72788566Y-32940644D01*
X71804095Y-33925115D01*
X71741783Y-33959141D01*
X71670968Y-33954076D01*
X71625905Y-33925115D01*
X70640713Y-32939923D01*
X70628938Y-32933493D01*
X70616923Y-32942789D01*
X70581069Y-32993994D01*
X70575586Y-33003489D01*
X70483510Y-33200947D01*
X70479764Y-33211239D01*
X70423375Y-33421688D01*
X70421472Y-33432481D01*
X70402483Y-33649525D01*
X70402483Y-33660475D01*
X70421472Y-33877519D01*
X70423375Y-33888312D01*
X70479764Y-34098761D01*
X70485393Y-34114226D01*
X70483907Y-34114767D01*
X70493469Y-34177750D01*
X70464485Y-34242561D01*
X70405062Y-34281413D01*
X70368614Y-34286800D01*
X68471671Y-34286800D01*
X68403550Y-34266798D01*
X68382576Y-34249895D01*
X68050671Y-33917990D01*
X68016645Y-33855678D01*
X68014245Y-33817913D01*
X68028019Y-33660475D01*
X68028498Y-33655000D01*
X68008543Y-33426913D01*
X68001600Y-33401000D01*
X67950707Y-33211067D01*
X67950706Y-33211065D01*
X67949284Y-33205757D01*
X67922783Y-33148924D01*
X67854849Y-33003238D01*
X67854846Y-33003233D01*
X67852523Y-32998251D01*
X67741051Y-32839053D01*
X67724357Y-32815211D01*
X67724355Y-32815208D01*
X67721198Y-32810700D01*
X67559300Y-32648802D01*
X67554792Y-32645645D01*
X67554789Y-32645643D01*
X67458854Y-32578469D01*
X67443886Y-32567988D01*
X70993576Y-32567988D01*
X71000644Y-32581434D01*
X71702188Y-33282978D01*
X71716132Y-33290592D01*
X71717965Y-33290461D01*
X71724580Y-33286210D01*
X72430077Y-32580713D01*
X72436507Y-32568938D01*
X72427211Y-32556923D01*
X72376006Y-32521069D01*
X72366511Y-32515586D01*
X72169053Y-32423510D01*
X72158761Y-32419764D01*
X71948312Y-32363375D01*
X71937519Y-32361472D01*
X71720475Y-32342483D01*
X71709525Y-32342483D01*
X71492481Y-32361472D01*
X71481688Y-32363375D01*
X71271239Y-32419764D01*
X71260947Y-32423510D01*
X71063489Y-32515586D01*
X71053994Y-32521069D01*
X71001952Y-32557509D01*
X70993576Y-32567988D01*
X67443886Y-32567988D01*
X67371749Y-32517477D01*
X67366767Y-32515154D01*
X67366762Y-32515151D01*
X67169225Y-32423039D01*
X67169224Y-32423039D01*
X67164243Y-32420716D01*
X67158935Y-32419294D01*
X67158933Y-32419293D01*
X66948402Y-32362881D01*
X66948400Y-32362881D01*
X66943087Y-32361457D01*
X66715000Y-32341502D01*
X66486913Y-32361457D01*
X66481600Y-32362881D01*
X66481598Y-32362881D01*
X66271067Y-32419293D01*
X66271065Y-32419294D01*
X66265757Y-32420716D01*
X66260775Y-32423039D01*
X66260770Y-32423041D01*
X66128680Y-32484635D01*
X66058489Y-32495296D01*
X65993676Y-32466316D01*
X65954820Y-32406896D01*
X65954257Y-32335901D01*
X65986336Y-32281345D01*
X66452010Y-31815671D01*
X66514322Y-31781645D01*
X66552087Y-31779245D01*
X66709525Y-31793019D01*
X66715000Y-31793498D01*
X66943087Y-31773543D01*
X66948400Y-31772119D01*
X66948402Y-31772119D01*
X67158933Y-31715707D01*
X67158935Y-31715706D01*
X67164243Y-31714284D01*
X67170235Y-31711490D01*
X67366762Y-31619849D01*
X67366767Y-31619846D01*
X67371749Y-31617523D01*
X67445243Y-31566062D01*
X70993493Y-31566062D01*
X71002789Y-31578077D01*
X71053994Y-31613931D01*
X71063489Y-31619414D01*
X71260947Y-31711490D01*
X71271239Y-31715236D01*
X71481688Y-31771625D01*
X71492481Y-31773528D01*
X71709525Y-31792517D01*
X71720475Y-31792517D01*
X71937519Y-31773528D01*
X71948312Y-31771625D01*
X72158761Y-31715236D01*
X72169053Y-31711490D01*
X72366511Y-31619414D01*
X72376006Y-31613931D01*
X72428048Y-31577491D01*
X72436424Y-31567012D01*
X72429356Y-31553566D01*
X71727812Y-30852022D01*
X71713868Y-30844408D01*
X71712035Y-30844539D01*
X71705420Y-30848790D01*
X70999923Y-31554287D01*
X70993493Y-31566062D01*
X67445243Y-31566062D01*
X67514459Y-31517596D01*
X67554789Y-31489357D01*
X67554792Y-31489355D01*
X67559300Y-31486198D01*
X67721198Y-31324300D01*
X67738531Y-31299547D01*
X67813688Y-31192211D01*
X67852523Y-31136749D01*
X67854846Y-31131767D01*
X67854849Y-31131762D01*
X67946961Y-30934225D01*
X67946961Y-30934224D01*
X67949284Y-30929243D01*
X67960512Y-30887342D01*
X68007119Y-30713402D01*
X68007119Y-30713400D01*
X68008543Y-30708087D01*
X68028019Y-30485475D01*
X70402483Y-30485475D01*
X70421472Y-30702519D01*
X70423375Y-30713312D01*
X70479764Y-30923761D01*
X70483510Y-30934053D01*
X70575586Y-31131511D01*
X70581069Y-31141006D01*
X70617509Y-31193048D01*
X70627988Y-31201424D01*
X70641434Y-31194356D01*
X71342978Y-30492812D01*
X71349356Y-30481132D01*
X72079408Y-30481132D01*
X72079539Y-30482965D01*
X72083790Y-30489580D01*
X72789287Y-31195077D01*
X72801062Y-31201507D01*
X72813077Y-31192211D01*
X72848931Y-31141006D01*
X72854414Y-31131511D01*
X72877644Y-31081695D01*
X82457251Y-31081695D01*
X82457548Y-31086848D01*
X82457548Y-31086851D01*
X82466442Y-31241099D01*
X82470110Y-31304715D01*
X82471247Y-31309761D01*
X82471248Y-31309767D01*
X82483154Y-31362595D01*
X82519222Y-31522639D01*
X82603266Y-31729616D01*
X82633679Y-31779245D01*
X82696073Y-31881063D01*
X82719987Y-31920088D01*
X82866250Y-32088938D01*
X83038126Y-32231632D01*
X83088996Y-32261358D01*
X83111955Y-32274774D01*
X83160679Y-32326412D01*
X83173750Y-32396195D01*
X83147019Y-32461967D01*
X83106562Y-32495327D01*
X83098457Y-32499546D01*
X83089738Y-32505036D01*
X82919433Y-32632905D01*
X82911726Y-32639748D01*
X82764590Y-32793717D01*
X82758104Y-32801727D01*
X82638098Y-32977649D01*
X82633000Y-32986623D01*
X82543338Y-33179783D01*
X82539775Y-33189470D01*
X82484389Y-33389183D01*
X82485912Y-33397607D01*
X82498292Y-33401000D01*
X85138344Y-33401000D01*
X85151875Y-33397027D01*
X85153180Y-33387947D01*
X85111214Y-33220875D01*
X85107894Y-33211124D01*
X85022972Y-33015814D01*
X85018105Y-33006739D01*
X84902426Y-32827926D01*
X84896136Y-32819757D01*
X84752806Y-32662240D01*
X84745273Y-32655215D01*
X84578139Y-32523222D01*
X84569556Y-32517520D01*
X84532602Y-32497120D01*
X84482631Y-32446687D01*
X84467859Y-32377245D01*
X84492975Y-32310839D01*
X84520327Y-32284232D01*
X84552395Y-32261358D01*
X84699860Y-32156173D01*
X84706877Y-32149181D01*
X84843400Y-32013134D01*
X84858096Y-31998489D01*
X84892572Y-31950511D01*
X84985435Y-31821277D01*
X84988453Y-31817077D01*
X84991157Y-31811607D01*
X85085136Y-31621453D01*
X85085137Y-31621451D01*
X85087430Y-31616811D01*
X85152370Y-31403069D01*
X85181529Y-31181590D01*
X85181611Y-31178240D01*
X85183074Y-31118365D01*
X85183074Y-31118361D01*
X85183156Y-31115000D01*
X85164852Y-30892361D01*
X85110431Y-30675702D01*
X85021354Y-30470840D01*
X84919756Y-30313793D01*
X84902822Y-30287617D01*
X84902820Y-30287614D01*
X84900014Y-30283277D01*
X84749670Y-30118051D01*
X84745619Y-30114852D01*
X84745615Y-30114848D01*
X84578414Y-29982800D01*
X84578410Y-29982798D01*
X84574359Y-29979598D01*
X84378789Y-29871638D01*
X84373920Y-29869914D01*
X84373916Y-29869912D01*
X84173087Y-29798795D01*
X84173083Y-29798794D01*
X84168212Y-29797069D01*
X84163119Y-29796162D01*
X84163116Y-29796161D01*
X83953373Y-29758800D01*
X83953367Y-29758799D01*
X83948284Y-29757894D01*
X83874452Y-29756992D01*
X83730081Y-29755228D01*
X83730079Y-29755228D01*
X83724911Y-29755165D01*
X83504091Y-29788955D01*
X83291756Y-29858357D01*
X83093607Y-29961507D01*
X83089474Y-29964610D01*
X83089471Y-29964612D01*
X82994302Y-30036067D01*
X82914965Y-30095635D01*
X82760629Y-30257138D01*
X82757715Y-30261410D01*
X82757714Y-30261411D01*
X82695393Y-30352771D01*
X82634743Y-30441680D01*
X82540688Y-30644305D01*
X82480989Y-30859570D01*
X82457251Y-31081695D01*
X72877644Y-31081695D01*
X72946490Y-30934053D01*
X72950236Y-30923761D01*
X73006625Y-30713312D01*
X73008528Y-30702519D01*
X73027517Y-30485475D01*
X73027517Y-30474525D01*
X73008528Y-30257481D01*
X73006625Y-30246688D01*
X72950236Y-30036239D01*
X72946490Y-30025947D01*
X72854414Y-29828489D01*
X72848931Y-29818994D01*
X72812491Y-29766952D01*
X72802012Y-29758576D01*
X72788566Y-29765644D01*
X72087022Y-30467188D01*
X72079408Y-30481132D01*
X71349356Y-30481132D01*
X71350592Y-30478868D01*
X71350461Y-30477035D01*
X71346210Y-30470420D01*
X70640713Y-29764923D01*
X70628938Y-29758493D01*
X70616923Y-29767789D01*
X70581069Y-29818994D01*
X70575586Y-29828489D01*
X70483510Y-30025947D01*
X70479764Y-30036239D01*
X70423375Y-30246688D01*
X70421472Y-30257481D01*
X70402483Y-30474525D01*
X70402483Y-30485475D01*
X68028019Y-30485475D01*
X68028498Y-30480000D01*
X68008543Y-30251913D01*
X67986584Y-30169961D01*
X67950707Y-30036067D01*
X67950706Y-30036065D01*
X67949284Y-30030757D01*
X67940122Y-30011109D01*
X67854849Y-29828238D01*
X67854846Y-29828233D01*
X67852523Y-29823251D01*
X67721198Y-29635700D01*
X67559300Y-29473802D01*
X67554792Y-29470645D01*
X67554789Y-29470643D01*
X67509902Y-29439213D01*
X67465574Y-29383756D01*
X67458265Y-29313136D01*
X67490296Y-29249776D01*
X67551497Y-29213791D01*
X67582173Y-29210000D01*
X70877822Y-29210000D01*
X70945943Y-29230002D01*
X70992436Y-29283658D01*
X71002540Y-29353932D01*
X70994308Y-29372947D01*
X70992455Y-29390854D01*
X71000644Y-29406434D01*
X71702188Y-30107978D01*
X71716132Y-30115592D01*
X71717965Y-30115461D01*
X71724580Y-30111210D01*
X72430077Y-29405713D01*
X72437691Y-29391769D01*
X72436506Y-29375200D01*
X72425468Y-29346981D01*
X72439458Y-29277376D01*
X72488857Y-29226384D01*
X72550989Y-29210000D01*
X85599000Y-29210000D01*
X85667121Y-29230002D01*
X85713614Y-29283658D01*
X85725000Y-29336000D01*
X85725000Y-40514000D01*
X85704998Y-40582121D01*
X85651342Y-40628614D01*
X85599000Y-40640000D01*
X49656000Y-40640000D01*
X49587879Y-40619998D01*
X49541386Y-40566342D01*
X49530000Y-40514000D01*
X49530000Y-39633134D01*
X82461500Y-39633134D01*
X82468255Y-39695316D01*
X82519385Y-39831705D01*
X82606739Y-39948261D01*
X82723295Y-40035615D01*
X82859684Y-40086745D01*
X82921866Y-40093500D01*
X84718134Y-40093500D01*
X84780316Y-40086745D01*
X84916705Y-40035615D01*
X85033261Y-39948261D01*
X85120615Y-39831705D01*
X85171745Y-39695316D01*
X85178500Y-39633134D01*
X85178500Y-37836866D01*
X85171745Y-37774684D01*
X85120615Y-37638295D01*
X85033261Y-37521739D01*
X84916705Y-37434385D01*
X84797687Y-37389767D01*
X84740923Y-37347125D01*
X84716223Y-37280564D01*
X84731430Y-37211215D01*
X84752977Y-37182535D01*
X84854052Y-37081812D01*
X84860730Y-37073965D01*
X84985003Y-36901020D01*
X84990313Y-36892183D01*
X85084670Y-36701267D01*
X85088469Y-36691672D01*
X85150377Y-36487910D01*
X85152555Y-36477837D01*
X85153986Y-36466962D01*
X85151775Y-36452778D01*
X85138617Y-36449000D01*
X82503225Y-36449000D01*
X82489694Y-36452973D01*
X82488257Y-36462966D01*
X82518565Y-36597446D01*
X82521645Y-36607275D01*
X82601770Y-36804603D01*
X82606413Y-36813794D01*
X82717694Y-36995388D01*
X82723777Y-37003699D01*
X82863213Y-37164667D01*
X82870577Y-37171879D01*
X82875522Y-37175985D01*
X82915156Y-37234889D01*
X82916653Y-37305870D01*
X82879537Y-37366392D01*
X82839264Y-37390910D01*
X82731705Y-37431232D01*
X82731704Y-37431233D01*
X82723295Y-37434385D01*
X82606739Y-37521739D01*
X82519385Y-37638295D01*
X82468255Y-37774684D01*
X82461500Y-37836866D01*
X82461500Y-39633134D01*
X49530000Y-39633134D01*
X49530000Y-37731522D01*
X53962273Y-37731522D01*
X54009764Y-37908761D01*
X54013510Y-37919053D01*
X54105586Y-38116511D01*
X54111069Y-38126007D01*
X54236028Y-38304467D01*
X54243084Y-38312875D01*
X54397125Y-38466916D01*
X54405533Y-38473972D01*
X54583993Y-38598931D01*
X54593489Y-38604414D01*
X54790947Y-38696490D01*
X54801239Y-38700236D01*
X54973503Y-38746394D01*
X54987599Y-38746058D01*
X54991000Y-38738116D01*
X54991000Y-38732967D01*
X55499000Y-38732967D01*
X55502973Y-38746498D01*
X55511522Y-38747727D01*
X55688761Y-38700236D01*
X55699053Y-38696490D01*
X55896511Y-38604414D01*
X55906007Y-38598931D01*
X56084467Y-38473972D01*
X56092875Y-38466916D01*
X56246916Y-38312875D01*
X56253972Y-38304467D01*
X56378931Y-38126007D01*
X56384414Y-38116511D01*
X56476490Y-37919053D01*
X56480236Y-37908761D01*
X56526394Y-37736497D01*
X56526058Y-37722401D01*
X56518116Y-37719000D01*
X55517115Y-37719000D01*
X55501876Y-37723475D01*
X55500671Y-37724865D01*
X55499000Y-37732548D01*
X55499000Y-38732967D01*
X54991000Y-38732967D01*
X54991000Y-37737115D01*
X54986525Y-37721876D01*
X54985135Y-37720671D01*
X54977452Y-37719000D01*
X53977033Y-37719000D01*
X53963502Y-37722973D01*
X53962273Y-37731522D01*
X49530000Y-37731522D01*
X49530000Y-36161695D01*
X50072251Y-36161695D01*
X50072548Y-36166848D01*
X50072548Y-36166851D01*
X50078202Y-36264908D01*
X50085110Y-36384715D01*
X50086247Y-36389761D01*
X50086248Y-36389767D01*
X50101181Y-36456028D01*
X50134222Y-36602639D01*
X50218266Y-36809616D01*
X50220965Y-36814020D01*
X50314349Y-36966409D01*
X50334987Y-37000088D01*
X50481250Y-37168938D01*
X50653126Y-37311632D01*
X50846000Y-37424338D01*
X50850825Y-37426180D01*
X50850826Y-37426181D01*
X50864056Y-37431233D01*
X51054692Y-37504030D01*
X51059760Y-37505061D01*
X51059763Y-37505062D01*
X51141734Y-37521739D01*
X51273597Y-37548567D01*
X51278772Y-37548757D01*
X51278774Y-37548757D01*
X51491673Y-37556564D01*
X51491677Y-37556564D01*
X51496837Y-37556753D01*
X51501957Y-37556097D01*
X51501959Y-37556097D01*
X51713288Y-37529025D01*
X51713289Y-37529025D01*
X51718416Y-37528368D01*
X51723366Y-37526883D01*
X51927429Y-37465661D01*
X51927434Y-37465659D01*
X51932384Y-37464174D01*
X52132994Y-37365896D01*
X52314860Y-37236173D01*
X52339906Y-37211215D01*
X52357680Y-37193503D01*
X53963606Y-37193503D01*
X53963942Y-37207599D01*
X53971884Y-37211000D01*
X54972885Y-37211000D01*
X54988124Y-37206525D01*
X54989329Y-37205135D01*
X54991000Y-37197452D01*
X54991000Y-37192885D01*
X55499000Y-37192885D01*
X55503475Y-37208124D01*
X55504865Y-37209329D01*
X55512548Y-37211000D01*
X56512967Y-37211000D01*
X56526498Y-37207027D01*
X56527727Y-37198478D01*
X56480236Y-37021239D01*
X56476490Y-37010947D01*
X56384414Y-36813489D01*
X56378931Y-36803993D01*
X56253972Y-36625533D01*
X56246916Y-36617125D01*
X56092875Y-36463084D01*
X56084467Y-36456028D01*
X55906007Y-36331069D01*
X55896511Y-36325586D01*
X55699053Y-36233510D01*
X55688761Y-36229764D01*
X55516497Y-36183606D01*
X55502401Y-36183942D01*
X55499000Y-36191884D01*
X55499000Y-37192885D01*
X54991000Y-37192885D01*
X54991000Y-36197033D01*
X54987027Y-36183502D01*
X54978478Y-36182273D01*
X54801239Y-36229764D01*
X54790947Y-36233510D01*
X54593489Y-36325586D01*
X54583993Y-36331069D01*
X54405533Y-36456028D01*
X54397125Y-36463084D01*
X54243084Y-36617125D01*
X54236028Y-36625533D01*
X54111069Y-36803993D01*
X54105586Y-36813489D01*
X54013510Y-37010947D01*
X54009764Y-37021239D01*
X53963606Y-37193503D01*
X52357680Y-37193503D01*
X52469435Y-37082137D01*
X52473096Y-37078489D01*
X52532594Y-36995689D01*
X52600435Y-36901277D01*
X52603453Y-36897077D01*
X52647354Y-36808251D01*
X52700136Y-36701453D01*
X52700137Y-36701451D01*
X52702430Y-36696811D01*
X52767370Y-36483069D01*
X52796529Y-36261590D01*
X52797227Y-36233039D01*
X52798074Y-36198365D01*
X52798074Y-36198361D01*
X52798156Y-36195000D01*
X52779852Y-35972361D01*
X52725431Y-35755702D01*
X52636354Y-35550840D01*
X52566768Y-35443277D01*
X52517822Y-35367617D01*
X52517820Y-35367614D01*
X52515014Y-35363277D01*
X52364670Y-35198051D01*
X52360619Y-35194852D01*
X52360615Y-35194848D01*
X52193414Y-35062800D01*
X52193410Y-35062798D01*
X52189359Y-35059598D01*
X52147569Y-35036529D01*
X52097598Y-34986097D01*
X52082826Y-34916654D01*
X52107942Y-34850248D01*
X52135294Y-34823641D01*
X52310328Y-34698792D01*
X52318200Y-34692139D01*
X52469052Y-34541812D01*
X52475730Y-34533965D01*
X52600003Y-34361020D01*
X52605313Y-34352183D01*
X52699670Y-34161267D01*
X52703469Y-34151672D01*
X52765377Y-33947910D01*
X52767555Y-33937837D01*
X52768986Y-33926962D01*
X52766775Y-33912778D01*
X52753617Y-33909000D01*
X50118225Y-33909000D01*
X50104694Y-33912973D01*
X50103257Y-33922966D01*
X50133565Y-34057446D01*
X50136645Y-34067275D01*
X50216770Y-34264603D01*
X50221413Y-34273794D01*
X50332694Y-34455388D01*
X50338777Y-34463699D01*
X50478213Y-34624667D01*
X50485580Y-34631883D01*
X50649434Y-34767916D01*
X50657881Y-34773831D01*
X50726969Y-34814203D01*
X50775693Y-34865842D01*
X50788764Y-34935625D01*
X50762033Y-35001396D01*
X50721584Y-35034752D01*
X50708607Y-35041507D01*
X50704474Y-35044610D01*
X50704471Y-35044612D01*
X50534100Y-35172530D01*
X50529965Y-35175635D01*
X50526035Y-35179748D01*
X50393425Y-35318516D01*
X50375629Y-35337138D01*
X50372715Y-35341410D01*
X50372714Y-35341411D01*
X50360404Y-35359457D01*
X50249743Y-35521680D01*
X50234003Y-35555590D01*
X50162315Y-35710029D01*
X50155688Y-35724305D01*
X50095989Y-35939570D01*
X50072251Y-36161695D01*
X49530000Y-36161695D01*
X49530000Y-33471062D01*
X54563493Y-33471062D01*
X54572789Y-33483077D01*
X54623994Y-33518931D01*
X54633489Y-33524414D01*
X54830947Y-33616490D01*
X54841239Y-33620236D01*
X55051688Y-33676625D01*
X55062481Y-33678528D01*
X55279525Y-33697517D01*
X55290475Y-33697517D01*
X55507519Y-33678528D01*
X55518312Y-33676625D01*
X55728761Y-33620236D01*
X55739053Y-33616490D01*
X55936511Y-33524414D01*
X55946006Y-33518931D01*
X55998048Y-33482491D01*
X56006424Y-33472012D01*
X55999356Y-33458566D01*
X55297812Y-32757022D01*
X55283868Y-32749408D01*
X55282035Y-32749539D01*
X55275420Y-32753790D01*
X54569923Y-33459287D01*
X54563493Y-33471062D01*
X49530000Y-33471062D01*
X49530000Y-29336000D01*
X49550002Y-29267879D01*
X49603658Y-29221386D01*
X49656000Y-29210000D01*
X65847827Y-29210000D01*
X65915948Y-29230002D01*
G37*
%TD.AperFunction*%
%TD*%
M02*
