M48
; DRILL file {KiCad 6.0.11+dfsg-1} date Do 03 Aug 2023 16:56:04 CEST
; FORMAT={-:-/ absolute / inch / decimal}
; #@! TF.CreationDate,2023-08-03T16:56:04+02:00
; #@! TF.GenerationSoftware,Kicad,Pcbnew,6.0.11+dfsg-1
; #@! TF.FileFunction,Plated,1,2,PTH
FMAT,2
INCH
; #@! TA.AperFunction,Plated,PTH,ComponentDrill
T1C0.0394
%
G90
G05
T1
X2.01Y-1.2106
X2.01Y-1.3106
X2.01Y-1.4106
X2.175Y-1.475
X2.192Y-1.275
X2.2904Y-1.275
X2.4116Y-1.275
X2.51Y-1.275
X2.575Y-1.475
X2.6266Y-1.2
X2.6266Y-1.325
X2.7Y-1.475
X2.8234Y-1.2
X2.8234Y-1.325
X2.93Y-1.31
X3.03Y-1.31
X3.1Y-1.475
X3.13Y-1.31
X3.3Y-1.225
X3.3Y-1.325
X3.3Y-1.425
X3.3Y-1.525
T0
M30
