M48
; DRILL file {KiCad 6.0.2+dfsg-1} date Sa 13 Mai 2023 15:52:26 CEST
; FORMAT={-:-/ absolute / inch / decimal}
; #@! TF.CreationDate,2023-05-13T15:52:26+02:00
; #@! TF.GenerationSoftware,Kicad,Pcbnew,6.0.2+dfsg-1
; #@! TF.FileFunction,Plated,1,2,PTH
FMAT,2
INCH
; #@! TA.AperFunction,Plated,PTH,ComponentDrill
T1C0.0295
; #@! TA.AperFunction,Plated,PTH,ComponentDrill
T2C0.0315
; #@! TA.AperFunction,Plated,PTH,ComponentDrill
T3C0.0394
; #@! TA.AperFunction,Plated,PTH,ComponentDrill
T4C0.0433
%
G90
G05
T1
X3.0Y-1.3142
X3.05Y-1.3142
X3.1Y-1.3142
T2
X2.175Y-1.475
X2.1766Y-1.275
X2.275Y-1.275
X2.4016Y-1.275
X2.5Y-1.275
X2.575Y-1.475
X2.6266Y-1.2
X2.6266Y-1.325
X2.8234Y-1.2
X2.8234Y-1.325
T3
X2.025Y-1.225
X2.025Y-1.325
X2.025Y-1.425
X3.3Y-1.225
X3.3Y-1.325
X3.3Y-1.425
X3.3Y-1.525
T4
X2.7Y-1.475
X3.1Y-1.475
T0
M30
