%TF.GenerationSoftware,KiCad,Pcbnew,6.0.2+dfsg-1*%
%TF.CreationDate,2023-05-13T15:52:16+02:00*%
%TF.ProjectId,LittleJimmy,4c697474-6c65-44a6-996d-6d792e6b6963,0.1*%
%TF.SameCoordinates,Original*%
%TF.FileFunction,Legend,Top*%
%TF.FilePolarity,Positive*%
%FSLAX46Y46*%
G04 Gerber Fmt 4.6, Leading zero omitted, Abs format (unit mm)*
G04 Created by KiCad (PCBNEW 6.0.2+dfsg-1) date 2023-05-13 15:52:16*
%MOMM*%
%LPD*%
G01*
G04 APERTURE LIST*
%ADD10C,0.150000*%
%ADD11C,0.100000*%
%ADD12C,0.120000*%
G04 APERTURE END LIST*
D10*
X49952619Y-40457380D02*
X49952619Y-39457380D01*
X50381190Y-40457380D02*
X50381190Y-39933571D01*
X50333571Y-39838333D01*
X50238333Y-39790714D01*
X50095476Y-39790714D01*
X50000238Y-39838333D01*
X49952619Y-39885952D01*
X50714523Y-39790714D02*
X51095476Y-39790714D01*
X50857380Y-39457380D02*
X50857380Y-40314523D01*
X50905000Y-40409761D01*
X51000238Y-40457380D01*
X51095476Y-40457380D01*
X51285952Y-39790714D02*
X51666904Y-39790714D01*
X51428809Y-39457380D02*
X51428809Y-40314523D01*
X51476428Y-40409761D01*
X51571666Y-40457380D01*
X51666904Y-40457380D01*
X52000238Y-39790714D02*
X52000238Y-40790714D01*
X52000238Y-39838333D02*
X52095476Y-39790714D01*
X52285952Y-39790714D01*
X52381190Y-39838333D01*
X52428809Y-39885952D01*
X52476428Y-39981190D01*
X52476428Y-40266904D01*
X52428809Y-40362142D01*
X52381190Y-40409761D01*
X52285952Y-40457380D01*
X52095476Y-40457380D01*
X52000238Y-40409761D01*
X52857380Y-40409761D02*
X52952619Y-40457380D01*
X53143095Y-40457380D01*
X53238333Y-40409761D01*
X53285952Y-40314523D01*
X53285952Y-40266904D01*
X53238333Y-40171666D01*
X53143095Y-40124047D01*
X53000238Y-40124047D01*
X52904999Y-40076428D01*
X52857380Y-39981190D01*
X52857380Y-39933571D01*
X52904999Y-39838333D01*
X53000238Y-39790714D01*
X53143095Y-39790714D01*
X53238333Y-39838333D01*
X53714523Y-40362142D02*
X53762142Y-40409761D01*
X53714523Y-40457380D01*
X53666904Y-40409761D01*
X53714523Y-40362142D01*
X53714523Y-40457380D01*
X53714523Y-39838333D02*
X53762142Y-39885952D01*
X53714523Y-39933571D01*
X53666904Y-39885952D01*
X53714523Y-39838333D01*
X53714523Y-39933571D01*
X54905000Y-39409761D02*
X54047857Y-40695476D01*
X55952619Y-39409761D02*
X55095476Y-40695476D01*
X56714523Y-39790714D02*
X56714523Y-40600238D01*
X56666904Y-40695476D01*
X56619285Y-40743095D01*
X56524047Y-40790714D01*
X56381190Y-40790714D01*
X56285952Y-40743095D01*
X56714523Y-40409761D02*
X56619285Y-40457380D01*
X56428809Y-40457380D01*
X56333571Y-40409761D01*
X56285952Y-40362142D01*
X56238333Y-40266904D01*
X56238333Y-39981190D01*
X56285952Y-39885952D01*
X56333571Y-39838333D01*
X56428809Y-39790714D01*
X56619285Y-39790714D01*
X56714523Y-39838333D01*
X57190714Y-40457380D02*
X57190714Y-39790714D01*
X57190714Y-39457380D02*
X57143095Y-39505000D01*
X57190714Y-39552619D01*
X57238333Y-39505000D01*
X57190714Y-39457380D01*
X57190714Y-39552619D01*
X57524047Y-39790714D02*
X57904999Y-39790714D01*
X57666904Y-39457380D02*
X57666904Y-40314523D01*
X57714523Y-40409761D01*
X57809761Y-40457380D01*
X57904999Y-40457380D01*
X58238333Y-40457380D02*
X58238333Y-39457380D01*
X58666904Y-40457380D02*
X58666904Y-39933571D01*
X58619285Y-39838333D01*
X58524047Y-39790714D01*
X58381190Y-39790714D01*
X58285952Y-39838333D01*
X58238333Y-39885952D01*
X59571666Y-39790714D02*
X59571666Y-40457380D01*
X59143095Y-39790714D02*
X59143095Y-40314523D01*
X59190714Y-40409761D01*
X59285952Y-40457380D01*
X59428809Y-40457380D01*
X59524047Y-40409761D01*
X59571666Y-40362142D01*
X60047857Y-40457380D02*
X60047857Y-39457380D01*
X60047857Y-39838333D02*
X60143095Y-39790714D01*
X60333571Y-39790714D01*
X60428809Y-39838333D01*
X60476428Y-39885952D01*
X60524047Y-39981190D01*
X60524047Y-40266904D01*
X60476428Y-40362142D01*
X60428809Y-40409761D01*
X60333571Y-40457380D01*
X60143095Y-40457380D01*
X60047857Y-40409761D01*
X60952619Y-40362142D02*
X61000238Y-40409761D01*
X60952619Y-40457380D01*
X60905000Y-40409761D01*
X60952619Y-40362142D01*
X60952619Y-40457380D01*
X61857380Y-40409761D02*
X61762142Y-40457380D01*
X61571666Y-40457380D01*
X61476428Y-40409761D01*
X61428809Y-40362142D01*
X61381190Y-40266904D01*
X61381190Y-39981190D01*
X61428809Y-39885952D01*
X61476428Y-39838333D01*
X61571666Y-39790714D01*
X61762142Y-39790714D01*
X61857380Y-39838333D01*
X62428809Y-40457380D02*
X62333571Y-40409761D01*
X62285952Y-40362142D01*
X62238333Y-40266904D01*
X62238333Y-39981190D01*
X62285952Y-39885952D01*
X62333571Y-39838333D01*
X62428809Y-39790714D01*
X62571666Y-39790714D01*
X62666904Y-39838333D01*
X62714523Y-39885952D01*
X62762142Y-39981190D01*
X62762142Y-40266904D01*
X62714523Y-40362142D01*
X62666904Y-40409761D01*
X62571666Y-40457380D01*
X62428809Y-40457380D01*
X63190714Y-40457380D02*
X63190714Y-39790714D01*
X63190714Y-39885952D02*
X63238333Y-39838333D01*
X63333571Y-39790714D01*
X63476428Y-39790714D01*
X63571666Y-39838333D01*
X63619285Y-39933571D01*
X63619285Y-40457380D01*
X63619285Y-39933571D02*
X63666904Y-39838333D01*
X63762142Y-39790714D01*
X63904999Y-39790714D01*
X64000238Y-39838333D01*
X64047857Y-39933571D01*
X64047857Y-40457380D01*
X65238333Y-39409761D02*
X64381190Y-40695476D01*
X65524047Y-40409761D02*
X65619285Y-40457380D01*
X65809761Y-40457380D01*
X65904999Y-40409761D01*
X65952619Y-40314523D01*
X65952619Y-40266904D01*
X65904999Y-40171666D01*
X65809761Y-40124047D01*
X65666904Y-40124047D01*
X65571666Y-40076428D01*
X65524047Y-39981190D01*
X65524047Y-39933571D01*
X65571666Y-39838333D01*
X65666904Y-39790714D01*
X65809761Y-39790714D01*
X65904999Y-39838333D01*
X66762142Y-40409761D02*
X66666904Y-40457380D01*
X66476428Y-40457380D01*
X66381190Y-40409761D01*
X66333571Y-40314523D01*
X66333571Y-39933571D01*
X66381190Y-39838333D01*
X66476428Y-39790714D01*
X66666904Y-39790714D01*
X66762142Y-39838333D01*
X66809761Y-39933571D01*
X66809761Y-40028809D01*
X66333571Y-40124047D01*
X67238333Y-40457380D02*
X67238333Y-39457380D01*
X67238333Y-39838333D02*
X67333571Y-39790714D01*
X67524047Y-39790714D01*
X67619285Y-39838333D01*
X67666904Y-39885952D01*
X67714523Y-39981190D01*
X67714523Y-40266904D01*
X67666904Y-40362142D01*
X67619285Y-40409761D01*
X67524047Y-40457380D01*
X67333571Y-40457380D01*
X67238333Y-40409761D01*
X68143095Y-40457380D02*
X68143095Y-39790714D01*
X68143095Y-39885952D02*
X68190714Y-39838333D01*
X68285952Y-39790714D01*
X68428809Y-39790714D01*
X68524047Y-39838333D01*
X68571666Y-39933571D01*
X68571666Y-40457380D01*
X68571666Y-39933571D02*
X68619285Y-39838333D01*
X68714523Y-39790714D01*
X68857380Y-39790714D01*
X68952619Y-39838333D01*
X69000238Y-39933571D01*
X69000238Y-40457380D01*
X69905000Y-40457380D02*
X69905000Y-39933571D01*
X69857380Y-39838333D01*
X69762142Y-39790714D01*
X69571666Y-39790714D01*
X69476428Y-39838333D01*
X69905000Y-40409761D02*
X69809761Y-40457380D01*
X69571666Y-40457380D01*
X69476428Y-40409761D01*
X69428809Y-40314523D01*
X69428809Y-40219285D01*
X69476428Y-40124047D01*
X69571666Y-40076428D01*
X69809761Y-40076428D01*
X69905000Y-40028809D01*
X70238333Y-39790714D02*
X70619285Y-39790714D01*
X70381190Y-39457380D02*
X70381190Y-40314523D01*
X70428809Y-40409761D01*
X70524047Y-40457380D01*
X70619285Y-40457380D01*
X71333571Y-40409761D02*
X71238333Y-40457380D01*
X71047857Y-40457380D01*
X70952619Y-40409761D01*
X70904999Y-40314523D01*
X70904999Y-39933571D01*
X70952619Y-39838333D01*
X71047857Y-39790714D01*
X71238333Y-39790714D01*
X71333571Y-39838333D01*
X71381190Y-39933571D01*
X71381190Y-40028809D01*
X70904999Y-40124047D01*
X72524047Y-39409761D02*
X71666904Y-40695476D01*
X73333571Y-40457380D02*
X72857380Y-40457380D01*
X72857380Y-39457380D01*
X73666904Y-40457380D02*
X73666904Y-39790714D01*
X73666904Y-39457380D02*
X73619285Y-39505000D01*
X73666904Y-39552619D01*
X73714523Y-39505000D01*
X73666904Y-39457380D01*
X73666904Y-39552619D01*
X74000238Y-39790714D02*
X74381190Y-39790714D01*
X74143095Y-39457380D02*
X74143095Y-40314523D01*
X74190714Y-40409761D01*
X74285952Y-40457380D01*
X74381190Y-40457380D01*
X74571666Y-39790714D02*
X74952619Y-39790714D01*
X74714523Y-39457380D02*
X74714523Y-40314523D01*
X74762142Y-40409761D01*
X74857380Y-40457380D01*
X74952619Y-40457380D01*
X75428809Y-40457380D02*
X75333571Y-40409761D01*
X75285952Y-40314523D01*
X75285952Y-39457380D01*
X76190714Y-40409761D02*
X76095476Y-40457380D01*
X75904999Y-40457380D01*
X75809761Y-40409761D01*
X75762142Y-40314523D01*
X75762142Y-39933571D01*
X75809761Y-39838333D01*
X75904999Y-39790714D01*
X76095476Y-39790714D01*
X76190714Y-39838333D01*
X76238333Y-39933571D01*
X76238333Y-40028809D01*
X75762142Y-40124047D01*
X76952619Y-39457380D02*
X76952619Y-40171666D01*
X76905000Y-40314523D01*
X76809761Y-40409761D01*
X76666904Y-40457380D01*
X76571666Y-40457380D01*
X77428809Y-40457380D02*
X77428809Y-39790714D01*
X77428809Y-39457380D02*
X77381190Y-39505000D01*
X77428809Y-39552619D01*
X77476428Y-39505000D01*
X77428809Y-39457380D01*
X77428809Y-39552619D01*
X77905000Y-40457380D02*
X77905000Y-39790714D01*
X77905000Y-39885952D02*
X77952619Y-39838333D01*
X78047857Y-39790714D01*
X78190714Y-39790714D01*
X78285952Y-39838333D01*
X78333571Y-39933571D01*
X78333571Y-40457380D01*
X78333571Y-39933571D02*
X78381190Y-39838333D01*
X78476428Y-39790714D01*
X78619285Y-39790714D01*
X78714523Y-39838333D01*
X78762142Y-39933571D01*
X78762142Y-40457380D01*
X79238333Y-40457380D02*
X79238333Y-39790714D01*
X79238333Y-39885952D02*
X79285952Y-39838333D01*
X79381190Y-39790714D01*
X79524047Y-39790714D01*
X79619285Y-39838333D01*
X79666904Y-39933571D01*
X79666904Y-40457380D01*
X79666904Y-39933571D02*
X79714523Y-39838333D01*
X79809761Y-39790714D01*
X79952619Y-39790714D01*
X80047857Y-39838333D01*
X80095476Y-39933571D01*
X80095476Y-40457380D01*
X80476428Y-39790714D02*
X80714523Y-40457380D01*
X80952619Y-39790714D02*
X80714523Y-40457380D01*
X80619285Y-40695476D01*
X80571666Y-40743095D01*
X80476428Y-40790714D01*
D11*
X73570000Y-30095000D02*
X73536666Y-30128333D01*
X73436666Y-30161666D01*
X73370000Y-30161666D01*
X73270000Y-30128333D01*
X73203333Y-30061666D01*
X73170000Y-29995000D01*
X73136666Y-29861666D01*
X73136666Y-29761666D01*
X73170000Y-29628333D01*
X73203333Y-29561666D01*
X73270000Y-29495000D01*
X73370000Y-29461666D01*
X73436666Y-29461666D01*
X73536666Y-29495000D01*
X73570000Y-29528333D01*
X73870000Y-29795000D02*
X74103333Y-29795000D01*
X74203333Y-30161666D02*
X73870000Y-30161666D01*
X73870000Y-29461666D01*
X74203333Y-29461666D01*
X74903333Y-30161666D02*
X74670000Y-29828333D01*
X74503333Y-30161666D02*
X74503333Y-29461666D01*
X74770000Y-29461666D01*
X74836666Y-29495000D01*
X74870000Y-29528333D01*
X74903333Y-29595000D01*
X74903333Y-29695000D01*
X74870000Y-29761666D01*
X74836666Y-29795000D01*
X74770000Y-29828333D01*
X74503333Y-29828333D01*
X75203333Y-30161666D02*
X75203333Y-29461666D01*
X75603333Y-30161666D01*
X75603333Y-29461666D01*
X75936666Y-29895000D02*
X76470000Y-29895000D01*
X76936666Y-29461666D02*
X77070000Y-29461666D01*
X77136666Y-29495000D01*
X77203333Y-29561666D01*
X77236666Y-29695000D01*
X77236666Y-29928333D01*
X77203333Y-30061666D01*
X77136666Y-30128333D01*
X77070000Y-30161666D01*
X76936666Y-30161666D01*
X76870000Y-30128333D01*
X76803333Y-30061666D01*
X76770000Y-29928333D01*
X76770000Y-29695000D01*
X76803333Y-29561666D01*
X76870000Y-29495000D01*
X76936666Y-29461666D01*
X77536666Y-30161666D02*
X77536666Y-29461666D01*
X77536666Y-29795000D02*
X77936666Y-29795000D01*
X77936666Y-30161666D02*
X77936666Y-29461666D01*
X78603333Y-30161666D02*
X78270000Y-30161666D01*
X78270000Y-29461666D01*
X78836666Y-29895000D02*
X79370000Y-29895000D01*
X79670000Y-30128333D02*
X79770000Y-30161666D01*
X79936666Y-30161666D01*
X80003333Y-30128333D01*
X80036666Y-30095000D01*
X80070000Y-30028333D01*
X80070000Y-29961666D01*
X80036666Y-29895000D01*
X80003333Y-29861666D01*
X79936666Y-29828333D01*
X79803333Y-29795000D01*
X79736666Y-29761666D01*
X79703333Y-29728333D01*
X79670000Y-29661666D01*
X79670000Y-29595000D01*
X79703333Y-29528333D01*
X79736666Y-29495000D01*
X79803333Y-29461666D01*
X79970000Y-29461666D01*
X80070000Y-29495000D01*
X80836666Y-29695000D02*
X81003333Y-30161666D01*
X81170000Y-29695000D01*
X81403333Y-29528333D02*
X81436666Y-29495000D01*
X81503333Y-29461666D01*
X81670000Y-29461666D01*
X81736666Y-29495000D01*
X81770000Y-29528333D01*
X81803333Y-29595000D01*
X81803333Y-29661666D01*
X81770000Y-29761666D01*
X81370000Y-30161666D01*
X81803333Y-30161666D01*
D10*
%TO.C,Q1*%
X77374761Y-32297619D02*
X77279523Y-32250000D01*
X77184285Y-32154761D01*
X77041428Y-32011904D01*
X76946190Y-31964285D01*
X76850952Y-31964285D01*
X76898571Y-32202380D02*
X76803333Y-32154761D01*
X76708095Y-32059523D01*
X76660476Y-31869047D01*
X76660476Y-31535714D01*
X76708095Y-31345238D01*
X76803333Y-31250000D01*
X76898571Y-31202380D01*
X77089047Y-31202380D01*
X77184285Y-31250000D01*
X77279523Y-31345238D01*
X77327142Y-31535714D01*
X77327142Y-31869047D01*
X77279523Y-32059523D01*
X77184285Y-32154761D01*
X77089047Y-32202380D01*
X76898571Y-32202380D01*
X78279523Y-32202380D02*
X77708095Y-32202380D01*
X77993809Y-32202380D02*
X77993809Y-31202380D01*
X77898571Y-31345238D01*
X77803333Y-31440476D01*
X77708095Y-31488095D01*
%TO.C,C1*%
X54062333Y-30202142D02*
X54014714Y-30249761D01*
X53871857Y-30297380D01*
X53776619Y-30297380D01*
X53633761Y-30249761D01*
X53538523Y-30154523D01*
X53490904Y-30059285D01*
X53443285Y-29868809D01*
X53443285Y-29725952D01*
X53490904Y-29535476D01*
X53538523Y-29440238D01*
X53633761Y-29345000D01*
X53776619Y-29297380D01*
X53871857Y-29297380D01*
X54014714Y-29345000D01*
X54062333Y-29392619D01*
X55014714Y-30297380D02*
X54443285Y-30297380D01*
X54729000Y-30297380D02*
X54729000Y-29297380D01*
X54633761Y-29440238D01*
X54538523Y-29535476D01*
X54443285Y-29583095D01*
%TO.C,C3*%
X69048333Y-30837142D02*
X69000714Y-30884761D01*
X68857857Y-30932380D01*
X68762619Y-30932380D01*
X68619761Y-30884761D01*
X68524523Y-30789523D01*
X68476904Y-30694285D01*
X68429285Y-30503809D01*
X68429285Y-30360952D01*
X68476904Y-30170476D01*
X68524523Y-30075238D01*
X68619761Y-29980000D01*
X68762619Y-29932380D01*
X68857857Y-29932380D01*
X69000714Y-29980000D01*
X69048333Y-30027619D01*
X69381666Y-29932380D02*
X70000714Y-29932380D01*
X69667380Y-30313333D01*
X69810238Y-30313333D01*
X69905476Y-30360952D01*
X69953095Y-30408571D01*
X70000714Y-30503809D01*
X70000714Y-30741904D01*
X69953095Y-30837142D01*
X69905476Y-30884761D01*
X69810238Y-30932380D01*
X69524523Y-30932380D01*
X69429285Y-30884761D01*
X69381666Y-30837142D01*
%TO.C,C4*%
X69048333Y-34012142D02*
X69000714Y-34059761D01*
X68857857Y-34107380D01*
X68762619Y-34107380D01*
X68619761Y-34059761D01*
X68524523Y-33964523D01*
X68476904Y-33869285D01*
X68429285Y-33678809D01*
X68429285Y-33535952D01*
X68476904Y-33345476D01*
X68524523Y-33250238D01*
X68619761Y-33155000D01*
X68762619Y-33107380D01*
X68857857Y-33107380D01*
X69000714Y-33155000D01*
X69048333Y-33202619D01*
X69905476Y-33440714D02*
X69905476Y-34107380D01*
X69667380Y-33059761D02*
X69429285Y-33774047D01*
X70048333Y-33774047D01*
%TO.C,D1*%
X72921904Y-37917380D02*
X72921904Y-36917380D01*
X73160000Y-36917380D01*
X73302857Y-36965000D01*
X73398095Y-37060238D01*
X73445714Y-37155476D01*
X73493333Y-37345952D01*
X73493333Y-37488809D01*
X73445714Y-37679285D01*
X73398095Y-37774523D01*
X73302857Y-37869761D01*
X73160000Y-37917380D01*
X72921904Y-37917380D01*
X74445714Y-37917380D02*
X73874285Y-37917380D01*
X74160000Y-37917380D02*
X74160000Y-36917380D01*
X74064761Y-37060238D01*
X73969523Y-37155476D01*
X73874285Y-37203095D01*
%TO.C,R1*%
X60158333Y-37917380D02*
X59825000Y-37441190D01*
X59586904Y-37917380D02*
X59586904Y-36917380D01*
X59967857Y-36917380D01*
X60063095Y-36965000D01*
X60110714Y-37012619D01*
X60158333Y-37107857D01*
X60158333Y-37250714D01*
X60110714Y-37345952D01*
X60063095Y-37393571D01*
X59967857Y-37441190D01*
X59586904Y-37441190D01*
X61110714Y-37917380D02*
X60539285Y-37917380D01*
X60825000Y-37917380D02*
X60825000Y-36917380D01*
X60729761Y-37060238D01*
X60634523Y-37155476D01*
X60539285Y-37203095D01*
%TO.C,C2*%
X59523333Y-30202142D02*
X59475714Y-30249761D01*
X59332857Y-30297380D01*
X59237619Y-30297380D01*
X59094761Y-30249761D01*
X58999523Y-30154523D01*
X58951904Y-30059285D01*
X58904285Y-29868809D01*
X58904285Y-29725952D01*
X58951904Y-29535476D01*
X58999523Y-29440238D01*
X59094761Y-29345000D01*
X59237619Y-29297380D01*
X59332857Y-29297380D01*
X59475714Y-29345000D01*
X59523333Y-29392619D01*
X59904285Y-29392619D02*
X59951904Y-29345000D01*
X60047142Y-29297380D01*
X60285238Y-29297380D01*
X60380476Y-29345000D01*
X60428095Y-29392619D01*
X60475714Y-29487857D01*
X60475714Y-29583095D01*
X60428095Y-29725952D01*
X59856666Y-30297380D01*
X60475714Y-30297380D01*
D12*
%TO.C,Q1*%
X75670000Y-35230000D02*
X79270000Y-35230000D01*
X79308478Y-35218478D02*
G75*
G03*
X77470000Y-30780000I-1838478J1838478D01*
G01*
X77470000Y-30779999D02*
G75*
G03*
X75631522Y-35218478I0J-2600001D01*
G01*
%TO.C,C1*%
X54774000Y-34286000D02*
X54774000Y-33425000D01*
X54574000Y-31345000D02*
X54574000Y-30686000D01*
X55214000Y-31345000D02*
X55214000Y-30161000D01*
X53974000Y-32903000D02*
X53974000Y-31867000D01*
X54494000Y-31345000D02*
X54494000Y-30780000D01*
X55574000Y-34783000D02*
X55574000Y-33425000D01*
X54614000Y-34128000D02*
X54614000Y-33425000D01*
X55014000Y-34480000D02*
X55014000Y-33425000D01*
X55855000Y-34876000D02*
X55855000Y-33425000D01*
X56295000Y-31345000D02*
X56295000Y-29816000D01*
X56135000Y-34935000D02*
X56135000Y-33425000D01*
X55654000Y-34813000D02*
X55654000Y-33425000D01*
X56015000Y-31345000D02*
X56015000Y-29857000D01*
X54294000Y-31345000D02*
X54294000Y-31066000D01*
X55494000Y-34750000D02*
X55494000Y-33425000D01*
X54014000Y-33062000D02*
X54014000Y-31708000D01*
X54654000Y-34170000D02*
X54654000Y-33425000D01*
X55694000Y-34827000D02*
X55694000Y-33425000D01*
X54414000Y-33885000D02*
X54414000Y-33425000D01*
X54574000Y-34084000D02*
X54574000Y-33425000D01*
X55414000Y-34714000D02*
X55414000Y-33425000D01*
X54734000Y-34249000D02*
X54734000Y-33425000D01*
X54254000Y-33636000D02*
X54254000Y-33425000D01*
X56135000Y-31345000D02*
X56135000Y-29835000D01*
X56055000Y-34921000D02*
X56055000Y-33425000D01*
X55054000Y-31345000D02*
X55054000Y-30263000D01*
X54334000Y-31345000D02*
X54334000Y-31002000D01*
X56055000Y-31345000D02*
X56055000Y-29849000D01*
X54214000Y-33563000D02*
X54214000Y-31207000D01*
X56095000Y-34928000D02*
X56095000Y-33425000D01*
X54494000Y-33990000D02*
X54494000Y-33425000D01*
X55374000Y-31345000D02*
X55374000Y-30075000D01*
X55294000Y-34653000D02*
X55294000Y-33425000D01*
X54894000Y-34389000D02*
X54894000Y-33425000D01*
X55814000Y-31345000D02*
X55814000Y-29905000D01*
X55054000Y-34507000D02*
X55054000Y-33425000D01*
X54374000Y-33828000D02*
X54374000Y-33425000D01*
X55294000Y-31345000D02*
X55294000Y-30117000D01*
X54614000Y-31345000D02*
X54614000Y-30642000D01*
X55254000Y-34632000D02*
X55254000Y-33425000D01*
X55134000Y-31345000D02*
X55134000Y-30210000D01*
X55494000Y-31345000D02*
X55494000Y-30020000D01*
X54374000Y-31345000D02*
X54374000Y-30942000D01*
X55174000Y-34585000D02*
X55174000Y-33425000D01*
X55614000Y-34799000D02*
X55614000Y-33425000D01*
X54534000Y-31345000D02*
X54534000Y-30732000D01*
X55895000Y-34886000D02*
X55895000Y-33425000D01*
X55174000Y-31345000D02*
X55174000Y-30185000D01*
X54774000Y-31345000D02*
X54774000Y-30484000D01*
X55855000Y-31345000D02*
X55855000Y-29894000D01*
X55454000Y-31345000D02*
X55454000Y-30037000D01*
X54934000Y-31345000D02*
X54934000Y-30350000D01*
X55214000Y-34609000D02*
X55214000Y-33425000D01*
X54974000Y-31345000D02*
X54974000Y-30320000D01*
X54854000Y-34356000D02*
X54854000Y-33425000D01*
X55454000Y-34733000D02*
X55454000Y-33425000D01*
X56175000Y-31345000D02*
X56175000Y-29829000D01*
X55134000Y-34560000D02*
X55134000Y-33425000D01*
X54934000Y-34420000D02*
X54934000Y-33425000D01*
X55694000Y-31345000D02*
X55694000Y-29943000D01*
X56415000Y-34963000D02*
X56415000Y-29807000D01*
X56255000Y-31345000D02*
X56255000Y-29820000D01*
X55334000Y-34675000D02*
X55334000Y-33425000D01*
X54094000Y-33300000D02*
X54094000Y-31470000D01*
X56015000Y-34913000D02*
X56015000Y-33425000D01*
X56535000Y-34965000D02*
X56535000Y-29805000D01*
X55014000Y-31345000D02*
X55014000Y-30290000D01*
X56215000Y-34946000D02*
X56215000Y-33425000D01*
X56255000Y-34950000D02*
X56255000Y-33425000D01*
X53934000Y-32669000D02*
X53934000Y-32101000D01*
X55534000Y-31345000D02*
X55534000Y-30003000D01*
X54974000Y-34450000D02*
X54974000Y-33425000D01*
X54854000Y-31345000D02*
X54854000Y-30414000D01*
X55254000Y-31345000D02*
X55254000Y-30138000D01*
X54174000Y-33483000D02*
X54174000Y-31287000D01*
X55734000Y-31345000D02*
X55734000Y-29930000D01*
X54054000Y-33190000D02*
X54054000Y-31580000D01*
X55935000Y-34896000D02*
X55935000Y-33425000D01*
X54814000Y-34322000D02*
X54814000Y-33425000D01*
X55654000Y-31345000D02*
X55654000Y-29957000D01*
X55935000Y-31345000D02*
X55935000Y-29874000D01*
X56375000Y-34961000D02*
X56375000Y-29809000D01*
X56335000Y-34958000D02*
X56335000Y-29812000D01*
X54294000Y-33704000D02*
X54294000Y-33425000D01*
X55094000Y-31345000D02*
X55094000Y-30236000D01*
X59339775Y-33860000D02*
X58839775Y-33860000D01*
X55094000Y-34534000D02*
X55094000Y-33425000D01*
X56495000Y-34965000D02*
X56495000Y-29805000D01*
X55774000Y-34853000D02*
X55774000Y-33425000D01*
X55895000Y-31345000D02*
X55895000Y-29884000D01*
X54534000Y-34038000D02*
X54534000Y-33425000D01*
X55414000Y-31345000D02*
X55414000Y-30056000D01*
X54654000Y-31345000D02*
X54654000Y-30600000D01*
X54894000Y-31345000D02*
X54894000Y-30381000D01*
X54254000Y-31345000D02*
X54254000Y-31134000D01*
X54334000Y-33768000D02*
X54334000Y-33425000D01*
X55975000Y-31345000D02*
X55975000Y-29865000D01*
X54694000Y-31345000D02*
X54694000Y-30559000D01*
X56215000Y-31345000D02*
X56215000Y-29824000D01*
X55814000Y-34865000D02*
X55814000Y-33425000D01*
X55574000Y-31345000D02*
X55574000Y-29987000D01*
X54454000Y-31345000D02*
X54454000Y-30831000D01*
X54814000Y-31345000D02*
X54814000Y-30448000D01*
X55534000Y-34767000D02*
X55534000Y-33425000D01*
X59089775Y-34110000D02*
X59089775Y-33610000D01*
X54454000Y-33939000D02*
X54454000Y-33425000D01*
X56175000Y-34941000D02*
X56175000Y-33425000D01*
X56455000Y-34964000D02*
X56455000Y-29806000D01*
X55374000Y-34695000D02*
X55374000Y-33425000D01*
X54134000Y-33396000D02*
X54134000Y-31374000D01*
X54694000Y-34211000D02*
X54694000Y-33425000D01*
X55774000Y-31345000D02*
X55774000Y-29917000D01*
X55975000Y-34905000D02*
X55975000Y-33425000D01*
X54414000Y-31345000D02*
X54414000Y-30885000D01*
X55734000Y-34840000D02*
X55734000Y-33425000D01*
X54734000Y-31345000D02*
X54734000Y-30521000D01*
X55334000Y-31345000D02*
X55334000Y-30095000D01*
X55614000Y-31345000D02*
X55614000Y-29971000D01*
X56295000Y-34954000D02*
X56295000Y-33425000D01*
X56095000Y-31345000D02*
X56095000Y-29842000D01*
X59155000Y-32385000D02*
G75*
G03*
X59155000Y-32385000I-2620000J0D01*
G01*
%TO.C,C3*%
X72835000Y-29110000D02*
X72835000Y-31850000D01*
X65595000Y-29110000D02*
X72835000Y-29110000D01*
X65595000Y-29110000D02*
X65595000Y-31850000D01*
X65595000Y-31850000D02*
X72835000Y-31850000D01*
%TO.C,J1*%
X52765000Y-32385000D02*
X52765000Y-37525000D01*
X50105000Y-37525000D02*
X52765000Y-37525000D01*
X50105000Y-29785000D02*
X51435000Y-29785000D01*
X50105000Y-32385000D02*
X50105000Y-37525000D01*
X50105000Y-31115000D02*
X50105000Y-29785000D01*
X50105000Y-32385000D02*
X52765000Y-32385000D01*
%TO.C,C4*%
X65595000Y-35025000D02*
X72835000Y-35025000D01*
X65595000Y-32285000D02*
X72835000Y-32285000D01*
X72835000Y-32285000D02*
X72835000Y-35025000D01*
X65595000Y-32285000D02*
X65595000Y-35025000D01*
%TO.C,D1*%
X69920000Y-37465000D02*
X70940000Y-37465000D01*
X71720000Y-35995000D02*
X71720000Y-38935000D01*
X76380000Y-35995000D02*
X70940000Y-35995000D01*
X76380000Y-38935000D02*
X76380000Y-35995000D01*
X71840000Y-35995000D02*
X71840000Y-38935000D01*
X70940000Y-38935000D02*
X76380000Y-38935000D01*
X71960000Y-35995000D02*
X71960000Y-38935000D01*
X77400000Y-37465000D02*
X76380000Y-37465000D01*
X70940000Y-35995000D02*
X70940000Y-38935000D01*
%TO.C,R1*%
X57055000Y-38835000D02*
X63595000Y-38835000D01*
X57055000Y-36095000D02*
X57055000Y-38835000D01*
X56285000Y-37465000D02*
X57055000Y-37465000D01*
X63595000Y-36095000D02*
X57055000Y-36095000D01*
X63595000Y-38835000D02*
X63595000Y-36095000D01*
X64365000Y-37465000D02*
X63595000Y-37465000D01*
%TO.C,C2*%
X64804775Y-34110000D02*
X64804775Y-33610000D01*
X61089000Y-31345000D02*
X61089000Y-30075000D01*
X61850000Y-31345000D02*
X61850000Y-29835000D01*
X59729000Y-33062000D02*
X59729000Y-31708000D01*
X60609000Y-31345000D02*
X60609000Y-30381000D01*
X60449000Y-34249000D02*
X60449000Y-33425000D01*
X62010000Y-31345000D02*
X62010000Y-29816000D01*
X61610000Y-31345000D02*
X61610000Y-29884000D01*
X65054775Y-33860000D02*
X64554775Y-33860000D01*
X61850000Y-34935000D02*
X61850000Y-33425000D01*
X60049000Y-31345000D02*
X60049000Y-31002000D01*
X61449000Y-31345000D02*
X61449000Y-29930000D01*
X62130000Y-34963000D02*
X62130000Y-29807000D01*
X60329000Y-31345000D02*
X60329000Y-30642000D01*
X60689000Y-34450000D02*
X60689000Y-33425000D01*
X61369000Y-34813000D02*
X61369000Y-33425000D01*
X61249000Y-34767000D02*
X61249000Y-33425000D01*
X60649000Y-31345000D02*
X60649000Y-30350000D01*
X61009000Y-34653000D02*
X61009000Y-33425000D01*
X60409000Y-31345000D02*
X60409000Y-30559000D01*
X60769000Y-34507000D02*
X60769000Y-33425000D01*
X60529000Y-31345000D02*
X60529000Y-30448000D01*
X61129000Y-34714000D02*
X61129000Y-33425000D01*
X61049000Y-31345000D02*
X61049000Y-30095000D01*
X60089000Y-31345000D02*
X60089000Y-30942000D01*
X60409000Y-34211000D02*
X60409000Y-33425000D01*
X60849000Y-34560000D02*
X60849000Y-33425000D01*
X60209000Y-31345000D02*
X60209000Y-30780000D01*
X61570000Y-34876000D02*
X61570000Y-33425000D01*
X61650000Y-31345000D02*
X61650000Y-29874000D01*
X61409000Y-31345000D02*
X61409000Y-29943000D01*
X59929000Y-33563000D02*
X59929000Y-31207000D01*
X60129000Y-33885000D02*
X60129000Y-33425000D01*
X61289000Y-31345000D02*
X61289000Y-29987000D01*
X61089000Y-34695000D02*
X61089000Y-33425000D01*
X61529000Y-34865000D02*
X61529000Y-33425000D01*
X61489000Y-31345000D02*
X61489000Y-29917000D01*
X62010000Y-34954000D02*
X62010000Y-33425000D01*
X61730000Y-31345000D02*
X61730000Y-29857000D01*
X61690000Y-31345000D02*
X61690000Y-29865000D01*
X60929000Y-34609000D02*
X60929000Y-33425000D01*
X61249000Y-31345000D02*
X61249000Y-30003000D01*
X61369000Y-31345000D02*
X61369000Y-29957000D01*
X60169000Y-31345000D02*
X60169000Y-30831000D01*
X61690000Y-34905000D02*
X61690000Y-33425000D01*
X61129000Y-31345000D02*
X61129000Y-30056000D01*
X61489000Y-34853000D02*
X61489000Y-33425000D01*
X62090000Y-34961000D02*
X62090000Y-29809000D01*
X61970000Y-34950000D02*
X61970000Y-33425000D01*
X60729000Y-31345000D02*
X60729000Y-30290000D01*
X62050000Y-34958000D02*
X62050000Y-29812000D01*
X61209000Y-31345000D02*
X61209000Y-30020000D01*
X61049000Y-34675000D02*
X61049000Y-33425000D01*
X61610000Y-34886000D02*
X61610000Y-33425000D01*
X59889000Y-33483000D02*
X59889000Y-31287000D01*
X61650000Y-34896000D02*
X61650000Y-33425000D01*
X62250000Y-34965000D02*
X62250000Y-29805000D01*
X61449000Y-34840000D02*
X61449000Y-33425000D01*
X60289000Y-31345000D02*
X60289000Y-30686000D01*
X61890000Y-31345000D02*
X61890000Y-29829000D01*
X61169000Y-31345000D02*
X61169000Y-30037000D01*
X59649000Y-32669000D02*
X59649000Y-32101000D01*
X60489000Y-31345000D02*
X60489000Y-30484000D01*
X60209000Y-33990000D02*
X60209000Y-33425000D01*
X60649000Y-34420000D02*
X60649000Y-33425000D01*
X59689000Y-32903000D02*
X59689000Y-31867000D01*
X59769000Y-33190000D02*
X59769000Y-31580000D01*
X60689000Y-31345000D02*
X60689000Y-30320000D01*
X61890000Y-34941000D02*
X61890000Y-33425000D01*
X61289000Y-34783000D02*
X61289000Y-33425000D01*
X61570000Y-31345000D02*
X61570000Y-29894000D01*
X60289000Y-34084000D02*
X60289000Y-33425000D01*
X62210000Y-34965000D02*
X62210000Y-29805000D01*
X61209000Y-34750000D02*
X61209000Y-33425000D01*
X60449000Y-31345000D02*
X60449000Y-30521000D01*
X60729000Y-34480000D02*
X60729000Y-33425000D01*
X61930000Y-31345000D02*
X61930000Y-29824000D01*
X59809000Y-33300000D02*
X59809000Y-31470000D01*
X59969000Y-31345000D02*
X59969000Y-31134000D01*
X60609000Y-34389000D02*
X60609000Y-33425000D01*
X60809000Y-31345000D02*
X60809000Y-30236000D01*
X61009000Y-31345000D02*
X61009000Y-30117000D01*
X59849000Y-33396000D02*
X59849000Y-31374000D01*
X61409000Y-34827000D02*
X61409000Y-33425000D01*
X60249000Y-31345000D02*
X60249000Y-30732000D01*
X60049000Y-33768000D02*
X60049000Y-33425000D01*
X60129000Y-31345000D02*
X60129000Y-30885000D01*
X61810000Y-34928000D02*
X61810000Y-33425000D01*
X60489000Y-34286000D02*
X60489000Y-33425000D01*
X61329000Y-34799000D02*
X61329000Y-33425000D01*
X60849000Y-31345000D02*
X60849000Y-30210000D01*
X61770000Y-31345000D02*
X61770000Y-29849000D01*
X61169000Y-34733000D02*
X61169000Y-33425000D01*
X60809000Y-34534000D02*
X60809000Y-33425000D01*
X60369000Y-34170000D02*
X60369000Y-33425000D01*
X62170000Y-34964000D02*
X62170000Y-29806000D01*
X60569000Y-31345000D02*
X60569000Y-30414000D01*
X60569000Y-34356000D02*
X60569000Y-33425000D01*
X59969000Y-33636000D02*
X59969000Y-33425000D01*
X61770000Y-34921000D02*
X61770000Y-33425000D01*
X60889000Y-31345000D02*
X60889000Y-30185000D01*
X60969000Y-34632000D02*
X60969000Y-33425000D01*
X61970000Y-31345000D02*
X61970000Y-29820000D01*
X60369000Y-31345000D02*
X60369000Y-30600000D01*
X60769000Y-31345000D02*
X60769000Y-30263000D01*
X61930000Y-34946000D02*
X61930000Y-33425000D01*
X60969000Y-31345000D02*
X60969000Y-30138000D01*
X60249000Y-34038000D02*
X60249000Y-33425000D01*
X60169000Y-33939000D02*
X60169000Y-33425000D01*
X60009000Y-33704000D02*
X60009000Y-33425000D01*
X61810000Y-31345000D02*
X61810000Y-29842000D01*
X60009000Y-31345000D02*
X60009000Y-31066000D01*
X60529000Y-34322000D02*
X60529000Y-33425000D01*
X61329000Y-31345000D02*
X61329000Y-29971000D01*
X60889000Y-34585000D02*
X60889000Y-33425000D01*
X60929000Y-31345000D02*
X60929000Y-30161000D01*
X61529000Y-31345000D02*
X61529000Y-29905000D01*
X60329000Y-34128000D02*
X60329000Y-33425000D01*
X60089000Y-33828000D02*
X60089000Y-33425000D01*
X61730000Y-34913000D02*
X61730000Y-33425000D01*
X64870000Y-32385000D02*
G75*
G03*
X64870000Y-32385000I-2620000J0D01*
G01*
%TO.C,J2*%
X85150000Y-37465000D02*
X82490000Y-37465000D01*
X82490000Y-37465000D02*
X82490000Y-29785000D01*
X85150000Y-29785000D02*
X82490000Y-29785000D01*
X85150000Y-40065000D02*
X83820000Y-40065000D01*
X85150000Y-38735000D02*
X85150000Y-40065000D01*
X85150000Y-37465000D02*
X85150000Y-29785000D01*
%TD*%
M02*
