%TF.GenerationSoftware,KiCad,Pcbnew,6.0.11+dfsg-1*%
%TF.CreationDate,2023-08-03T16:56:02+02:00*%
%TF.ProjectId,LittleJimmy,4c697474-6c65-44a6-996d-6d792e6b6963,2*%
%TF.SameCoordinates,Original*%
%TF.FileFunction,Copper,L2,Bot*%
%TF.FilePolarity,Positive*%
%FSLAX46Y46*%
G04 Gerber Fmt 4.6, Leading zero omitted, Abs format (unit mm)*
G04 Created by KiCad (PCBNEW 6.0.11+dfsg-1) date 2023-08-03 16:56:02*
%MOMM*%
%LPD*%
G01*
G04 APERTURE LIST*
%TA.AperFunction,ComponentPad*%
%ADD10O,2.250000X2.250000*%
%TD*%
%TA.AperFunction,ComponentPad*%
%ADD11R,2.250000X2.250000*%
%TD*%
%TA.AperFunction,Conductor*%
%ADD12C,0.500000*%
%TD*%
G04 APERTURE END LIST*
D10*
%TO.P,Q1,1,A*%
%TO.N,+5V*%
X79502000Y-33274000D03*
%TO.P,Q1,2,G*%
%TO.N,Net-(C4-Pad1)*%
X76962000Y-33274000D03*
%TO.P,Q1,3,K*%
%TO.N,GND*%
X74422000Y-33274000D03*
%TD*%
%TO.P,C1,1*%
%TO.N,VCC*%
X58175600Y-32385000D03*
D11*
%TO.P,C1,2*%
%TO.N,GND*%
X55675600Y-32385000D03*
%TD*%
D10*
%TO.P,C3,1*%
%TO.N,+5V*%
X66715000Y-30480000D03*
%TO.P,C3,2*%
%TO.N,GND*%
X71715000Y-30480000D03*
%TD*%
D11*
%TO.P,J1,1,Pin_1*%
%TO.N,VCC*%
X51054000Y-30749000D03*
D10*
%TO.P,J1,2,Pin_2*%
%TO.N,GND*%
X51054000Y-33289000D03*
%TO.P,J1,3,Pin_3*%
%TO.N,+5V*%
X51054000Y-35829000D03*
%TD*%
%TO.P,C4,1*%
%TO.N,Net-(C4-Pad1)*%
X66715000Y-33655000D03*
%TO.P,C4,2*%
%TO.N,GND*%
X71715000Y-33655000D03*
%TD*%
%TO.P,D1,1,K*%
%TO.N,+5V*%
X68580000Y-37465000D03*
%TO.P,D1,2,A*%
%TO.N,Net-(C4-Pad1)*%
X78740000Y-37465000D03*
%TD*%
%TO.P,R1,1*%
%TO.N,Net-(C4-Pad1)*%
X65405000Y-37465000D03*
%TO.P,R1,2*%
%TO.N,GND*%
X55245000Y-37465000D03*
%TD*%
%TO.P,C2,1*%
%TO.N,+5V*%
X63754000Y-32385000D03*
D11*
%TO.P,C2,2*%
%TO.N,GND*%
X61254000Y-32385000D03*
%TD*%
%TO.P,J2,1,Pin_1*%
%TO.N,VCC*%
X83820000Y-31115000D03*
D10*
%TO.P,J2,2,Pin_2*%
%TO.N,GND*%
X83820000Y-33655000D03*
%TO.P,J2,3,Pin_3*%
X83820000Y-36195000D03*
%TO.P,J2,4,Pin_4*%
%TO.N,+5V*%
X83820000Y-38735000D03*
%TD*%
D12*
%TO.N,VCC*%
X85504500Y-32799500D02*
X85504500Y-39466000D01*
X83820000Y-31115000D02*
X85504500Y-32799500D01*
X85504500Y-39466000D02*
X84545100Y-40425400D01*
X58175600Y-32385000D02*
X58175600Y-34060100D01*
X84545100Y-40425400D02*
X64540900Y-40425400D01*
X64540900Y-40425400D02*
X58175600Y-34060100D01*
%TO.N,GND*%
X82144900Y-33655000D02*
X82144900Y-33452500D01*
X83820000Y-33655000D02*
X82144900Y-33655000D01*
X71715000Y-30480000D02*
X71715000Y-33655000D01*
X82144900Y-33452500D02*
X80243500Y-31551100D01*
X83820000Y-36195000D02*
X83820000Y-33655000D01*
X76144900Y-31551100D02*
X74422000Y-33274000D01*
X80243500Y-31551100D02*
X76144900Y-31551100D01*
%TO.N,+5V*%
X79502000Y-33274000D02*
X79502000Y-34949100D01*
X82144900Y-38735000D02*
X82144900Y-37592000D01*
X68580000Y-32345000D02*
X66715000Y-30480000D01*
X63754000Y-32385000D02*
X63754000Y-30909900D01*
X65039900Y-30480000D02*
X64810000Y-30709900D01*
X68580000Y-37465000D02*
X68580000Y-32345000D01*
X63754000Y-30909900D02*
X63754000Y-30709900D01*
X64810000Y-30709900D02*
X63754000Y-30709900D01*
X66715000Y-30480000D02*
X65039900Y-30480000D01*
X54299400Y-30709900D02*
X53364800Y-31644500D01*
X83820000Y-38735000D02*
X82144900Y-38735000D01*
X82144900Y-37592000D02*
X79502000Y-34949100D01*
X63754000Y-30709900D02*
X54299400Y-30709900D01*
X53364800Y-31644500D02*
X53364800Y-33518200D01*
X53364800Y-33518200D02*
X51054000Y-35829000D01*
%TO.N,Net-(C4-Pad1)*%
X76766500Y-35491500D02*
X76766500Y-35144600D01*
X76766500Y-35144600D02*
X76962000Y-34949100D01*
X65864800Y-35330100D02*
X65405000Y-35789900D01*
X75929000Y-36329000D02*
X76766500Y-35491500D01*
X66715000Y-35330100D02*
X65864800Y-35330100D01*
X65405000Y-37465000D02*
X65405000Y-36827500D01*
X77064900Y-37465000D02*
X75929000Y-36329000D01*
X66715000Y-33655000D02*
X66715000Y-35330100D01*
X78740000Y-37465000D02*
X77064900Y-37465000D01*
X76962000Y-33274000D02*
X76962000Y-34949100D01*
X67764300Y-39186800D02*
X73071200Y-39186800D01*
X73071200Y-39186800D02*
X75929000Y-36329000D01*
X65405000Y-36827500D02*
X67764300Y-39186800D01*
X65405000Y-36827500D02*
X65405000Y-35789900D01*
%TD*%
%TA.AperFunction,Conductor*%
%TO.N,GND*%
G36*
X55871721Y-32151002D02*
G01*
X55918214Y-32204658D01*
X55929600Y-32257000D01*
X55929600Y-33999884D01*
X55934075Y-34015123D01*
X55935465Y-34016328D01*
X55943148Y-34017999D01*
X56845269Y-34017999D01*
X56852090Y-34017629D01*
X56902952Y-34012105D01*
X56918204Y-34008479D01*
X57038654Y-33963324D01*
X57054249Y-33954786D01*
X57156324Y-33878285D01*
X57168886Y-33865723D01*
X57190274Y-33837185D01*
X57247133Y-33794670D01*
X57317952Y-33789644D01*
X57380245Y-33823704D01*
X57414235Y-33886035D01*
X57417100Y-33912750D01*
X57417100Y-33993030D01*
X57415667Y-34011980D01*
X57413907Y-34023551D01*
X57412401Y-34033449D01*
X57412994Y-34040741D01*
X57412994Y-34040744D01*
X57416685Y-34086118D01*
X57417100Y-34096333D01*
X57417100Y-34104393D01*
X57417525Y-34108037D01*
X57420389Y-34132607D01*
X57420822Y-34136982D01*
X57423326Y-34167760D01*
X57426740Y-34209737D01*
X57428996Y-34216701D01*
X57430187Y-34222660D01*
X57431571Y-34228515D01*
X57432418Y-34235781D01*
X57457335Y-34304427D01*
X57458752Y-34308555D01*
X57478347Y-34369040D01*
X57481249Y-34377999D01*
X57485045Y-34384254D01*
X57487551Y-34389728D01*
X57490270Y-34395158D01*
X57492767Y-34402037D01*
X57496780Y-34408157D01*
X57496780Y-34408158D01*
X57532786Y-34463076D01*
X57535123Y-34466780D01*
X57573005Y-34529207D01*
X57576721Y-34533415D01*
X57576722Y-34533416D01*
X57580403Y-34537584D01*
X57580376Y-34537608D01*
X57583029Y-34540600D01*
X57585732Y-34543833D01*
X57589744Y-34549952D01*
X57595056Y-34554984D01*
X57645983Y-34603228D01*
X57648425Y-34605606D01*
X63594224Y-40551405D01*
X63628250Y-40613717D01*
X63623185Y-40684532D01*
X63580638Y-40741368D01*
X63514118Y-40766179D01*
X63505129Y-40766500D01*
X49529500Y-40766500D01*
X49461379Y-40746498D01*
X49414886Y-40692842D01*
X49403500Y-40640500D01*
X49403500Y-37729681D01*
X53629142Y-37729681D01*
X53685967Y-37966373D01*
X53689016Y-37975758D01*
X53783592Y-38204085D01*
X53788073Y-38212879D01*
X53917208Y-38423608D01*
X53923001Y-38431581D01*
X54083516Y-38619520D01*
X54090480Y-38626484D01*
X54278419Y-38786999D01*
X54286392Y-38792792D01*
X54497121Y-38921927D01*
X54505915Y-38926408D01*
X54734242Y-39020984D01*
X54743627Y-39024033D01*
X54978608Y-39080447D01*
X54988029Y-39078469D01*
X54991000Y-39067002D01*
X54991000Y-39064945D01*
X55499000Y-39064945D01*
X55503344Y-39079738D01*
X55509681Y-39080858D01*
X55746373Y-39024033D01*
X55755758Y-39020984D01*
X55984085Y-38926408D01*
X55992879Y-38921927D01*
X56203608Y-38792792D01*
X56211581Y-38786999D01*
X56399520Y-38626484D01*
X56406484Y-38619520D01*
X56566999Y-38431581D01*
X56572792Y-38423608D01*
X56701927Y-38212879D01*
X56706408Y-38204085D01*
X56800984Y-37975758D01*
X56804033Y-37966373D01*
X56860447Y-37731392D01*
X56858469Y-37721971D01*
X56847002Y-37719000D01*
X55517115Y-37719000D01*
X55501876Y-37723475D01*
X55500671Y-37724865D01*
X55499000Y-37732548D01*
X55499000Y-39064945D01*
X54991000Y-39064945D01*
X54991000Y-37737115D01*
X54986525Y-37721876D01*
X54985135Y-37720671D01*
X54977452Y-37719000D01*
X53645055Y-37719000D01*
X53630262Y-37723344D01*
X53629142Y-37729681D01*
X49403500Y-37729681D01*
X49403500Y-36708717D01*
X49423502Y-36640596D01*
X49477158Y-36594103D01*
X49547432Y-36583999D01*
X49612012Y-36613493D01*
X49636933Y-36642882D01*
X49728384Y-36792116D01*
X49895369Y-36987631D01*
X50090884Y-37154616D01*
X50310113Y-37288960D01*
X50314683Y-37290853D01*
X50314687Y-37290855D01*
X50543087Y-37385461D01*
X50547660Y-37387355D01*
X50607432Y-37401705D01*
X50792861Y-37446223D01*
X50792867Y-37446224D01*
X50797674Y-37447378D01*
X51054000Y-37467551D01*
X51310326Y-37447378D01*
X51315133Y-37446224D01*
X51315139Y-37446223D01*
X51500568Y-37401705D01*
X51560340Y-37387355D01*
X51564913Y-37385461D01*
X51793313Y-37290855D01*
X51793317Y-37290853D01*
X51797887Y-37288960D01*
X51945328Y-37198608D01*
X53629553Y-37198608D01*
X53631531Y-37208029D01*
X53642998Y-37211000D01*
X54972885Y-37211000D01*
X54988124Y-37206525D01*
X54989329Y-37205135D01*
X54991000Y-37197452D01*
X54991000Y-37192885D01*
X55499000Y-37192885D01*
X55503475Y-37208124D01*
X55504865Y-37209329D01*
X55512548Y-37211000D01*
X56844945Y-37211000D01*
X56859738Y-37206656D01*
X56860858Y-37200319D01*
X56804033Y-36963627D01*
X56800984Y-36954242D01*
X56706408Y-36725915D01*
X56701927Y-36717121D01*
X56572792Y-36506392D01*
X56566999Y-36498419D01*
X56406484Y-36310480D01*
X56399520Y-36303516D01*
X56211581Y-36143001D01*
X56203608Y-36137208D01*
X55992879Y-36008073D01*
X55984085Y-36003592D01*
X55755758Y-35909016D01*
X55746373Y-35905967D01*
X55511392Y-35849553D01*
X55501971Y-35851531D01*
X55499000Y-35862998D01*
X55499000Y-37192885D01*
X54991000Y-37192885D01*
X54991000Y-35865055D01*
X54986656Y-35850262D01*
X54980319Y-35849142D01*
X54743627Y-35905967D01*
X54734242Y-35909016D01*
X54505915Y-36003592D01*
X54497121Y-36008073D01*
X54286392Y-36137208D01*
X54278419Y-36143001D01*
X54090480Y-36303516D01*
X54083516Y-36310480D01*
X53923001Y-36498419D01*
X53917208Y-36506392D01*
X53788073Y-36717121D01*
X53783592Y-36725915D01*
X53689016Y-36954242D01*
X53685967Y-36963627D01*
X53629553Y-37198608D01*
X51945328Y-37198608D01*
X52017116Y-37154616D01*
X52212631Y-36987631D01*
X52379616Y-36792116D01*
X52513960Y-36572887D01*
X52518480Y-36561976D01*
X52610461Y-36339913D01*
X52610462Y-36339911D01*
X52612355Y-36335340D01*
X52651913Y-36170568D01*
X52671223Y-36090139D01*
X52671224Y-36090133D01*
X52672378Y-36085326D01*
X52692551Y-35829000D01*
X52672378Y-35572674D01*
X52666659Y-35548850D01*
X52645009Y-35458675D01*
X52632828Y-35407936D01*
X52636375Y-35337030D01*
X52666252Y-35289429D01*
X53853711Y-34101970D01*
X53868123Y-34089584D01*
X53879718Y-34081051D01*
X53879723Y-34081046D01*
X53885618Y-34076708D01*
X53890357Y-34071130D01*
X53890360Y-34071127D01*
X53919835Y-34036432D01*
X53926765Y-34028916D01*
X53932461Y-34023220D01*
X53934724Y-34020359D01*
X53934729Y-34020354D01*
X53950093Y-34000934D01*
X53952882Y-33997533D01*
X53956708Y-33993030D01*
X54000133Y-33941915D01*
X54003460Y-33935400D01*
X54006809Y-33930379D01*
X54009992Y-33925225D01*
X54014534Y-33919484D01*
X54016606Y-33915050D01*
X54068678Y-33868270D01*
X54138759Y-33856907D01*
X54198632Y-33881100D01*
X54296951Y-33954786D01*
X54312546Y-33963324D01*
X54432994Y-34008478D01*
X54448249Y-34012105D01*
X54499114Y-34017631D01*
X54505928Y-34018000D01*
X55403485Y-34018000D01*
X55418724Y-34013525D01*
X55419929Y-34012135D01*
X55421600Y-34004452D01*
X55421600Y-32257000D01*
X55441602Y-32188879D01*
X55495258Y-32142386D01*
X55547600Y-32131000D01*
X55803600Y-32131000D01*
X55871721Y-32151002D01*
G37*
%TD.AperFunction*%
%TA.AperFunction,Conductor*%
G36*
X61450121Y-32151002D02*
G01*
X61496614Y-32204658D01*
X61508000Y-32257000D01*
X61508000Y-33999884D01*
X61512475Y-34015123D01*
X61513865Y-34016328D01*
X61521548Y-34017999D01*
X62423669Y-34017999D01*
X62430490Y-34017629D01*
X62481352Y-34012105D01*
X62496604Y-34008479D01*
X62617054Y-33963324D01*
X62632649Y-33954786D01*
X62734724Y-33878285D01*
X62747284Y-33865725D01*
X62771848Y-33832949D01*
X62828707Y-33790433D01*
X62899526Y-33785407D01*
X62938506Y-33801079D01*
X63010113Y-33844960D01*
X63014683Y-33846853D01*
X63014685Y-33846854D01*
X63216333Y-33930379D01*
X63247660Y-33943355D01*
X63295274Y-33954786D01*
X63492861Y-34002223D01*
X63492867Y-34002224D01*
X63497674Y-34003378D01*
X63754000Y-34023551D01*
X64010326Y-34003378D01*
X64015133Y-34002224D01*
X64015139Y-34002223D01*
X64212726Y-33954786D01*
X64260340Y-33943355D01*
X64291667Y-33930379D01*
X64493313Y-33846855D01*
X64493317Y-33846853D01*
X64497887Y-33844960D01*
X64717116Y-33710616D01*
X64720876Y-33707404D01*
X64720881Y-33707401D01*
X64850872Y-33596378D01*
X64869879Y-33580145D01*
X64934667Y-33551114D01*
X65004867Y-33561719D01*
X65058190Y-33608594D01*
X65077320Y-33666070D01*
X65096622Y-33911326D01*
X65097776Y-33916133D01*
X65097777Y-33916139D01*
X65122205Y-34017887D01*
X65156645Y-34161340D01*
X65158538Y-34165911D01*
X65158539Y-34165913D01*
X65245237Y-34375220D01*
X65255040Y-34398887D01*
X65257626Y-34403107D01*
X65380174Y-34603087D01*
X65398712Y-34671621D01*
X65377256Y-34739297D01*
X65364214Y-34755575D01*
X65321672Y-34800483D01*
X65319294Y-34802925D01*
X64916089Y-35206130D01*
X64901677Y-35218516D01*
X64890082Y-35227049D01*
X64890077Y-35227054D01*
X64884182Y-35231392D01*
X64879443Y-35236970D01*
X64879440Y-35236973D01*
X64849965Y-35271668D01*
X64843035Y-35279184D01*
X64837340Y-35284879D01*
X64835060Y-35287761D01*
X64819719Y-35307151D01*
X64816928Y-35310555D01*
X64779990Y-35354034D01*
X64769667Y-35366185D01*
X64766339Y-35372701D01*
X64762972Y-35377750D01*
X64759805Y-35382879D01*
X64755266Y-35388616D01*
X64724345Y-35454775D01*
X64722442Y-35458669D01*
X64689231Y-35523708D01*
X64687492Y-35530816D01*
X64685393Y-35536459D01*
X64683476Y-35542222D01*
X64680378Y-35548850D01*
X64678888Y-35556012D01*
X64678888Y-35556013D01*
X64665514Y-35620312D01*
X64664544Y-35624596D01*
X64647192Y-35695510D01*
X64646500Y-35706664D01*
X64646464Y-35706662D01*
X64646225Y-35710655D01*
X64645851Y-35714847D01*
X64644360Y-35722015D01*
X64644558Y-35729332D01*
X64646454Y-35799421D01*
X64646500Y-35802828D01*
X64646500Y-35943431D01*
X64626498Y-36011552D01*
X64586335Y-36050864D01*
X64524756Y-36088600D01*
X64441884Y-36139384D01*
X64246369Y-36306369D01*
X64079384Y-36501884D01*
X63945040Y-36721113D01*
X63943147Y-36725683D01*
X63943145Y-36725687D01*
X63848539Y-36954087D01*
X63846645Y-36958660D01*
X63845490Y-36963472D01*
X63788628Y-37200319D01*
X63786622Y-37208674D01*
X63766449Y-37465000D01*
X63786622Y-37721326D01*
X63787776Y-37726133D01*
X63787777Y-37726139D01*
X63822142Y-37869276D01*
X63846645Y-37971340D01*
X63848538Y-37975911D01*
X63848539Y-37975913D01*
X63937056Y-38189611D01*
X63945040Y-38208887D01*
X64079384Y-38428116D01*
X64246369Y-38623631D01*
X64441884Y-38790616D01*
X64661113Y-38924960D01*
X64665683Y-38926853D01*
X64665687Y-38926855D01*
X64894087Y-39021461D01*
X64898660Y-39023355D01*
X64985502Y-39044204D01*
X65143861Y-39082223D01*
X65143867Y-39082224D01*
X65148674Y-39083378D01*
X65405000Y-39103551D01*
X65661326Y-39083378D01*
X65666133Y-39082224D01*
X65666139Y-39082223D01*
X65824498Y-39044204D01*
X65911340Y-39023355D01*
X65915913Y-39021461D01*
X66144313Y-38926855D01*
X66144317Y-38926853D01*
X66148887Y-38924960D01*
X66153106Y-38922374D01*
X66153113Y-38922371D01*
X66238360Y-38870132D01*
X66306893Y-38851594D01*
X66374570Y-38873051D01*
X66393289Y-38888470D01*
X66956624Y-39451805D01*
X66990650Y-39514117D01*
X66985585Y-39584932D01*
X66943038Y-39641768D01*
X66876518Y-39666579D01*
X66867529Y-39666900D01*
X64907271Y-39666900D01*
X64839150Y-39646898D01*
X64818176Y-39629995D01*
X59102974Y-33914793D01*
X59068948Y-33852481D01*
X59074013Y-33781666D01*
X59116560Y-33724830D01*
X59126234Y-33718265D01*
X59134499Y-33713200D01*
X59138716Y-33710616D01*
X59334231Y-33543631D01*
X59399191Y-33467572D01*
X59458641Y-33428764D01*
X59529635Y-33428258D01*
X59589634Y-33466214D01*
X59619587Y-33530582D01*
X59621001Y-33549404D01*
X59621001Y-33554669D01*
X59621371Y-33561490D01*
X59626895Y-33612352D01*
X59630521Y-33627604D01*
X59675676Y-33748054D01*
X59684214Y-33763649D01*
X59760715Y-33865724D01*
X59773276Y-33878285D01*
X59875351Y-33954786D01*
X59890946Y-33963324D01*
X60011394Y-34008478D01*
X60026649Y-34012105D01*
X60077514Y-34017631D01*
X60084328Y-34018000D01*
X60981885Y-34018000D01*
X60997124Y-34013525D01*
X60998329Y-34012135D01*
X61000000Y-34004452D01*
X61000000Y-32257000D01*
X61020002Y-32188879D01*
X61073658Y-32142386D01*
X61126000Y-32131000D01*
X61382000Y-32131000D01*
X61450121Y-32151002D01*
G37*
%TD.AperFunction*%
%TA.AperFunction,Conductor*%
G36*
X70562231Y-29103502D02*
G01*
X70608724Y-29157158D01*
X70618828Y-29227432D01*
X70589334Y-29292012D01*
X70575941Y-29305311D01*
X70560480Y-29318516D01*
X70553516Y-29325480D01*
X70393001Y-29513419D01*
X70387208Y-29521392D01*
X70258073Y-29732121D01*
X70253592Y-29740915D01*
X70159016Y-29969242D01*
X70155967Y-29978627D01*
X70099553Y-30213608D01*
X70101531Y-30223029D01*
X70112998Y-30226000D01*
X73314945Y-30226000D01*
X73329738Y-30221656D01*
X73330858Y-30215319D01*
X73274033Y-29978627D01*
X73270984Y-29969242D01*
X73176408Y-29740915D01*
X73171927Y-29732121D01*
X73042792Y-29521392D01*
X73036999Y-29513419D01*
X72876484Y-29325480D01*
X72869520Y-29318516D01*
X72854059Y-29305311D01*
X72815250Y-29245860D01*
X72814744Y-29174865D01*
X72852700Y-29114867D01*
X72917069Y-29084914D01*
X72935890Y-29083500D01*
X85725500Y-29083500D01*
X85793621Y-29103502D01*
X85840114Y-29157158D01*
X85851500Y-29209500D01*
X85851500Y-31769629D01*
X85831498Y-31837750D01*
X85777842Y-31884243D01*
X85707568Y-31894347D01*
X85642988Y-31864853D01*
X85636405Y-31858724D01*
X85490405Y-31712724D01*
X85456379Y-31650412D01*
X85453500Y-31623629D01*
X85453500Y-29941866D01*
X85446745Y-29879684D01*
X85395615Y-29743295D01*
X85308261Y-29626739D01*
X85191705Y-29539385D01*
X85055316Y-29488255D01*
X84993134Y-29481500D01*
X82646866Y-29481500D01*
X82584684Y-29488255D01*
X82448295Y-29539385D01*
X82331739Y-29626739D01*
X82244385Y-29743295D01*
X82193255Y-29879684D01*
X82186500Y-29941866D01*
X82186500Y-32288134D01*
X82193255Y-32350316D01*
X82244385Y-32486705D01*
X82331739Y-32603261D01*
X82338919Y-32608642D01*
X82338920Y-32608643D01*
X82388988Y-32646167D01*
X82431503Y-32703026D01*
X82436529Y-32773845D01*
X82420856Y-32812828D01*
X82363073Y-32907121D01*
X82358592Y-32915915D01*
X82264016Y-33144242D01*
X82260967Y-33153627D01*
X82204553Y-33388608D01*
X82206531Y-33398029D01*
X82217998Y-33401000D01*
X83948000Y-33401000D01*
X84016121Y-33421002D01*
X84062614Y-33474658D01*
X84074000Y-33527000D01*
X84074000Y-36323000D01*
X84053998Y-36391121D01*
X84000342Y-36437614D01*
X83948000Y-36449000D01*
X82220057Y-36449000D01*
X82179332Y-36460958D01*
X82108335Y-36460958D01*
X82054738Y-36429157D01*
X80429374Y-34803793D01*
X80395348Y-34741481D01*
X80400413Y-34670666D01*
X80442960Y-34613830D01*
X80452634Y-34607265D01*
X80455341Y-34605606D01*
X80465116Y-34599616D01*
X80660631Y-34432631D01*
X80827616Y-34237116D01*
X80961960Y-34017887D01*
X80965858Y-34008478D01*
X81002639Y-33919681D01*
X82204142Y-33919681D01*
X82260967Y-34156373D01*
X82264016Y-34165758D01*
X82358592Y-34394085D01*
X82363073Y-34402879D01*
X82492208Y-34613608D01*
X82498001Y-34621581D01*
X82658509Y-34809512D01*
X82665484Y-34816487D01*
X82680356Y-34829188D01*
X82719165Y-34888639D01*
X82719673Y-34959633D01*
X82680356Y-35020812D01*
X82665484Y-35033513D01*
X82658509Y-35040488D01*
X82498001Y-35228419D01*
X82492208Y-35236392D01*
X82363073Y-35447121D01*
X82358592Y-35455915D01*
X82264016Y-35684242D01*
X82260967Y-35693627D01*
X82204553Y-35928608D01*
X82206531Y-35938029D01*
X82217998Y-35941000D01*
X83547885Y-35941000D01*
X83563124Y-35936525D01*
X83564329Y-35935135D01*
X83566000Y-35927452D01*
X83566000Y-33927115D01*
X83561525Y-33911876D01*
X83560135Y-33910671D01*
X83552452Y-33909000D01*
X82220055Y-33909000D01*
X82205262Y-33913344D01*
X82204142Y-33919681D01*
X81002639Y-33919681D01*
X81058461Y-33784913D01*
X81058462Y-33784911D01*
X81060355Y-33780340D01*
X81087789Y-33666070D01*
X81119223Y-33535139D01*
X81119224Y-33535133D01*
X81120378Y-33530326D01*
X81140551Y-33274000D01*
X81120378Y-33017674D01*
X81060355Y-32767660D01*
X81028442Y-32690615D01*
X80963855Y-32534687D01*
X80963853Y-32534683D01*
X80961960Y-32530113D01*
X80827616Y-32310884D01*
X80660631Y-32115369D01*
X80465116Y-31948384D01*
X80245887Y-31814040D01*
X80241317Y-31812147D01*
X80241313Y-31812145D01*
X80012913Y-31717539D01*
X80012911Y-31717538D01*
X80008340Y-31715645D01*
X79921498Y-31694796D01*
X79763139Y-31656777D01*
X79763133Y-31656776D01*
X79758326Y-31655622D01*
X79502000Y-31635449D01*
X79245674Y-31655622D01*
X79240867Y-31656776D01*
X79240861Y-31656777D01*
X79082502Y-31694796D01*
X78995660Y-31715645D01*
X78991089Y-31717538D01*
X78991087Y-31717539D01*
X78762687Y-31812145D01*
X78762683Y-31812147D01*
X78758113Y-31814040D01*
X78538884Y-31948384D01*
X78343369Y-32115369D01*
X78327809Y-32133587D01*
X78268360Y-32172395D01*
X78197366Y-32172901D01*
X78136191Y-32133587D01*
X78120631Y-32115369D01*
X77925116Y-31948384D01*
X77705887Y-31814040D01*
X77701317Y-31812147D01*
X77701313Y-31812145D01*
X77472913Y-31717539D01*
X77472911Y-31717538D01*
X77468340Y-31715645D01*
X77381498Y-31694796D01*
X77223139Y-31656777D01*
X77223133Y-31656776D01*
X77218326Y-31655622D01*
X76962000Y-31635449D01*
X76705674Y-31655622D01*
X76700867Y-31656776D01*
X76700861Y-31656777D01*
X76542502Y-31694796D01*
X76455660Y-31715645D01*
X76451089Y-31717538D01*
X76451087Y-31717539D01*
X76222687Y-31812145D01*
X76222683Y-31812147D01*
X76218113Y-31814040D01*
X75998884Y-31948384D01*
X75803369Y-32115369D01*
X75787481Y-32133972D01*
X75728031Y-32172780D01*
X75657036Y-32173286D01*
X75595861Y-32133972D01*
X75583490Y-32119487D01*
X75576512Y-32112509D01*
X75388581Y-31952001D01*
X75380608Y-31946208D01*
X75169879Y-31817073D01*
X75161085Y-31812592D01*
X74932758Y-31718016D01*
X74923373Y-31714967D01*
X74688392Y-31658553D01*
X74678971Y-31660531D01*
X74676000Y-31671998D01*
X74676000Y-34873945D01*
X74680344Y-34888738D01*
X74686681Y-34889858D01*
X74923373Y-34833033D01*
X74932758Y-34829984D01*
X75161085Y-34735408D01*
X75169879Y-34730927D01*
X75380608Y-34601792D01*
X75388581Y-34595999D01*
X75576512Y-34435491D01*
X75583490Y-34428513D01*
X75595861Y-34414028D01*
X75655312Y-34375220D01*
X75726307Y-34374714D01*
X75787481Y-34414028D01*
X75803369Y-34432631D01*
X75998884Y-34599616D01*
X76008659Y-34605606D01*
X76046759Y-34628954D01*
X76094390Y-34681601D01*
X76105997Y-34751643D01*
X76095072Y-34789734D01*
X76088907Y-34802925D01*
X76085869Y-34809425D01*
X76083942Y-34813369D01*
X76050731Y-34878408D01*
X76048992Y-34885516D01*
X76046893Y-34891159D01*
X76044976Y-34896922D01*
X76041878Y-34903550D01*
X76040388Y-34910712D01*
X76040388Y-34910713D01*
X76027014Y-34975012D01*
X76026044Y-34979296D01*
X76008692Y-35050210D01*
X76008000Y-35061364D01*
X76007964Y-35061362D01*
X76007725Y-35065355D01*
X76007351Y-35069547D01*
X76005860Y-35076715D01*
X76006938Y-35116537D01*
X76007101Y-35122574D01*
X75988949Y-35191210D01*
X75970242Y-35215077D01*
X75412361Y-35772958D01*
X75406669Y-35778308D01*
X75360618Y-35818975D01*
X75356396Y-35824948D01*
X75356390Y-35824955D01*
X75353013Y-35829734D01*
X75339214Y-35846105D01*
X72793924Y-38391395D01*
X72731612Y-38425421D01*
X72704829Y-38428300D01*
X70130493Y-38428300D01*
X70062372Y-38408298D01*
X70015879Y-38354642D01*
X70005775Y-38284368D01*
X70023061Y-38236465D01*
X70037369Y-38213117D01*
X70037375Y-38213106D01*
X70039960Y-38208887D01*
X70047945Y-38189611D01*
X70136461Y-37975913D01*
X70136462Y-37975911D01*
X70138355Y-37971340D01*
X70162858Y-37869276D01*
X70197223Y-37726139D01*
X70197224Y-37726133D01*
X70198378Y-37721326D01*
X70218551Y-37465000D01*
X70198378Y-37208674D01*
X70196373Y-37200319D01*
X70139510Y-36963472D01*
X70138355Y-36958660D01*
X70136461Y-36954087D01*
X70041855Y-36725687D01*
X70041853Y-36725683D01*
X70039960Y-36721113D01*
X69905616Y-36501884D01*
X69738631Y-36306369D01*
X69543116Y-36139384D01*
X69460244Y-36088600D01*
X69398665Y-36050864D01*
X69351034Y-35998216D01*
X69338500Y-35943431D01*
X69338500Y-33919681D01*
X70099142Y-33919681D01*
X70155967Y-34156373D01*
X70159016Y-34165758D01*
X70253592Y-34394085D01*
X70258073Y-34402879D01*
X70387208Y-34613608D01*
X70393001Y-34621581D01*
X70553516Y-34809520D01*
X70560480Y-34816484D01*
X70748419Y-34976999D01*
X70756392Y-34982792D01*
X70967121Y-35111927D01*
X70975915Y-35116408D01*
X71204242Y-35210984D01*
X71213627Y-35214033D01*
X71448608Y-35270447D01*
X71458029Y-35268469D01*
X71461000Y-35257002D01*
X71461000Y-35254945D01*
X71969000Y-35254945D01*
X71973344Y-35269738D01*
X71979681Y-35270858D01*
X72216373Y-35214033D01*
X72225758Y-35210984D01*
X72454085Y-35116408D01*
X72462879Y-35111927D01*
X72673608Y-34982792D01*
X72681581Y-34976999D01*
X72869520Y-34816484D01*
X72876484Y-34809520D01*
X73036999Y-34621581D01*
X73042792Y-34613608D01*
X73114557Y-34496498D01*
X73167205Y-34448867D01*
X73237246Y-34437260D01*
X73303821Y-34466522D01*
X73455419Y-34595999D01*
X73463392Y-34601792D01*
X73674121Y-34730927D01*
X73682915Y-34735408D01*
X73911242Y-34829984D01*
X73920627Y-34833033D01*
X74155608Y-34889447D01*
X74165029Y-34887469D01*
X74168000Y-34876002D01*
X74168000Y-31674055D01*
X74163656Y-31659262D01*
X74157319Y-31658142D01*
X73920627Y-31714967D01*
X73911242Y-31718016D01*
X73682915Y-31812592D01*
X73674121Y-31817073D01*
X73463392Y-31946208D01*
X73455419Y-31952001D01*
X73267480Y-32112516D01*
X73260516Y-32119480D01*
X73100001Y-32307419D01*
X73094208Y-32315392D01*
X73022443Y-32432502D01*
X72969795Y-32480133D01*
X72899754Y-32491740D01*
X72833179Y-32462478D01*
X72681581Y-32333001D01*
X72673608Y-32327208D01*
X72462879Y-32198073D01*
X72454085Y-32193592D01*
X72430707Y-32183909D01*
X72375426Y-32139361D01*
X72353005Y-32071998D01*
X72370563Y-32003206D01*
X72422525Y-31954828D01*
X72430707Y-31951091D01*
X72454085Y-31941408D01*
X72462879Y-31936927D01*
X72673608Y-31807792D01*
X72681581Y-31801999D01*
X72869520Y-31641484D01*
X72876484Y-31634520D01*
X73036999Y-31446581D01*
X73042792Y-31438608D01*
X73171927Y-31227879D01*
X73176408Y-31219085D01*
X73270984Y-30990758D01*
X73274033Y-30981373D01*
X73330447Y-30746392D01*
X73328469Y-30736971D01*
X73317002Y-30734000D01*
X71987115Y-30734000D01*
X71971876Y-30738475D01*
X71970671Y-30739865D01*
X71969000Y-30747548D01*
X71969000Y-35254945D01*
X71461000Y-35254945D01*
X71461000Y-33927115D01*
X71456525Y-33911876D01*
X71455135Y-33910671D01*
X71447452Y-33909000D01*
X70115055Y-33909000D01*
X70100262Y-33913344D01*
X70099142Y-33919681D01*
X69338500Y-33919681D01*
X69338500Y-32412069D01*
X69339933Y-32393118D01*
X69342099Y-32378883D01*
X69342099Y-32378881D01*
X69343199Y-32371651D01*
X69342066Y-32357715D01*
X69338915Y-32318982D01*
X69338500Y-32308767D01*
X69338500Y-32300707D01*
X69335211Y-32272493D01*
X69334778Y-32268118D01*
X69329454Y-32202661D01*
X69329453Y-32202658D01*
X69328860Y-32195363D01*
X69326604Y-32188399D01*
X69325413Y-32182440D01*
X69324029Y-32176585D01*
X69323182Y-32169319D01*
X69298265Y-32100673D01*
X69296848Y-32096545D01*
X69276607Y-32034064D01*
X69276606Y-32034062D01*
X69274351Y-32027101D01*
X69270555Y-32020846D01*
X69268049Y-32015372D01*
X69265330Y-32009942D01*
X69262833Y-32003063D01*
X69222809Y-31942016D01*
X69220472Y-31938312D01*
X69185509Y-31880693D01*
X69185505Y-31880688D01*
X69182595Y-31875892D01*
X69175197Y-31867516D01*
X69175223Y-31867493D01*
X69172574Y-31864503D01*
X69169866Y-31861264D01*
X69165856Y-31855148D01*
X69160549Y-31850121D01*
X69160546Y-31850117D01*
X69109617Y-31801872D01*
X69107175Y-31799494D01*
X68327252Y-31019571D01*
X68293226Y-30957259D01*
X68293828Y-30901062D01*
X68331373Y-30744681D01*
X70099142Y-30744681D01*
X70155967Y-30981373D01*
X70159016Y-30990758D01*
X70253592Y-31219085D01*
X70258073Y-31227879D01*
X70387208Y-31438608D01*
X70393001Y-31446581D01*
X70553516Y-31634520D01*
X70560480Y-31641484D01*
X70748419Y-31801999D01*
X70756392Y-31807792D01*
X70967121Y-31936927D01*
X70975915Y-31941408D01*
X70999293Y-31951091D01*
X71054574Y-31995639D01*
X71076995Y-32063002D01*
X71059437Y-32131794D01*
X71007475Y-32180172D01*
X70999293Y-32183909D01*
X70975915Y-32193592D01*
X70967121Y-32198073D01*
X70756392Y-32327208D01*
X70748419Y-32333001D01*
X70560480Y-32493516D01*
X70553516Y-32500480D01*
X70393001Y-32688419D01*
X70387208Y-32696392D01*
X70258073Y-32907121D01*
X70253592Y-32915915D01*
X70159016Y-33144242D01*
X70155967Y-33153627D01*
X70099553Y-33388608D01*
X70101531Y-33398029D01*
X70112998Y-33401000D01*
X71442885Y-33401000D01*
X71458124Y-33396525D01*
X71459329Y-33395135D01*
X71461000Y-33387452D01*
X71461000Y-30752115D01*
X71456525Y-30736876D01*
X71455135Y-30735671D01*
X71447452Y-30734000D01*
X70115055Y-30734000D01*
X70100262Y-30738344D01*
X70099142Y-30744681D01*
X68331373Y-30744681D01*
X68332223Y-30741139D01*
X68332224Y-30741133D01*
X68333378Y-30736326D01*
X68353551Y-30480000D01*
X68333378Y-30223674D01*
X68331373Y-30215319D01*
X68282870Y-30013293D01*
X68273355Y-29973660D01*
X68269837Y-29965167D01*
X68176855Y-29740687D01*
X68176853Y-29740683D01*
X68174960Y-29736113D01*
X68040616Y-29516884D01*
X67873631Y-29321369D01*
X67854829Y-29305311D01*
X67816020Y-29245862D01*
X67815512Y-29174867D01*
X67853468Y-29114868D01*
X67917836Y-29084914D01*
X67936659Y-29083500D01*
X70494110Y-29083500D01*
X70562231Y-29103502D01*
G37*
%TD.AperFunction*%
%TD*%
M02*
