%TF.GenerationSoftware,KiCad,Pcbnew,6.0.11+dfsg-1*%
%TF.CreationDate,2023-08-03T16:56:02+02:00*%
%TF.ProjectId,LittleJimmy,4c697474-6c65-44a6-996d-6d792e6b6963,2*%
%TF.SameCoordinates,Original*%
%TF.FileFunction,Copper,L1,Top*%
%TF.FilePolarity,Positive*%
%FSLAX46Y46*%
G04 Gerber Fmt 4.6, Leading zero omitted, Abs format (unit mm)*
G04 Created by KiCad (PCBNEW 6.0.11+dfsg-1) date 2023-08-03 16:56:02*
%MOMM*%
%LPD*%
G01*
G04 APERTURE LIST*
%TA.AperFunction,ComponentPad*%
%ADD10O,2.250000X2.250000*%
%TD*%
%TA.AperFunction,ComponentPad*%
%ADD11R,2.250000X2.250000*%
%TD*%
%TA.AperFunction,Conductor*%
%ADD12C,0.500000*%
%TD*%
G04 APERTURE END LIST*
D10*
%TO.P,Q1,1,A*%
%TO.N,+5V*%
X79502000Y-33274000D03*
%TO.P,Q1,2,G*%
%TO.N,Net-(C4-Pad1)*%
X76962000Y-33274000D03*
%TO.P,Q1,3,K*%
%TO.N,GND*%
X74422000Y-33274000D03*
%TD*%
%TO.P,C1,1*%
%TO.N,VCC*%
X58175600Y-32385000D03*
D11*
%TO.P,C1,2*%
%TO.N,GND*%
X55675600Y-32385000D03*
%TD*%
D10*
%TO.P,C3,1*%
%TO.N,+5V*%
X66715000Y-30480000D03*
%TO.P,C3,2*%
%TO.N,GND*%
X71715000Y-30480000D03*
%TD*%
D11*
%TO.P,J1,1,Pin_1*%
%TO.N,VCC*%
X51054000Y-30749000D03*
D10*
%TO.P,J1,2,Pin_2*%
%TO.N,GND*%
X51054000Y-33289000D03*
%TO.P,J1,3,Pin_3*%
%TO.N,+5V*%
X51054000Y-35829000D03*
%TD*%
%TO.P,C4,1*%
%TO.N,Net-(C4-Pad1)*%
X66715000Y-33655000D03*
%TO.P,C4,2*%
%TO.N,GND*%
X71715000Y-33655000D03*
%TD*%
%TO.P,D1,1,K*%
%TO.N,+5V*%
X68580000Y-37465000D03*
%TO.P,D1,2,A*%
%TO.N,Net-(C4-Pad1)*%
X78740000Y-37465000D03*
%TD*%
%TO.P,R1,1*%
%TO.N,Net-(C4-Pad1)*%
X65405000Y-37465000D03*
%TO.P,R1,2*%
%TO.N,GND*%
X55245000Y-37465000D03*
%TD*%
%TO.P,C2,1*%
%TO.N,+5V*%
X63754000Y-32385000D03*
D11*
%TO.P,C2,2*%
%TO.N,GND*%
X61254000Y-32385000D03*
%TD*%
%TO.P,J2,1,Pin_1*%
%TO.N,VCC*%
X83820000Y-31115000D03*
D10*
%TO.P,J2,2,Pin_2*%
%TO.N,GND*%
X83820000Y-33655000D03*
%TO.P,J2,3,Pin_3*%
X83820000Y-36195000D03*
%TO.P,J2,4,Pin_4*%
%TO.N,+5V*%
X83820000Y-38735000D03*
%TD*%
D12*
%TO.N,VCC*%
X52768200Y-30709900D02*
X58175600Y-30709900D01*
X52729100Y-30749000D02*
X52768200Y-30709900D01*
X51054000Y-30749000D02*
X52729100Y-30749000D01*
X58175600Y-32385000D02*
X58175600Y-30709900D01*
%TO.N,GND*%
X61254000Y-32385000D02*
X64206400Y-35337400D01*
X57150700Y-33884200D02*
X57326700Y-34060200D01*
X57326700Y-34060200D02*
X59578800Y-34060200D01*
X59578800Y-34060200D02*
X61254000Y-32385000D01*
X68357500Y-35337400D02*
X70039900Y-33655000D01*
X51054000Y-33289000D02*
X53096500Y-33289000D01*
X55675600Y-32385000D02*
X54000500Y-32385000D01*
X57150700Y-33884200D02*
X55245000Y-35789900D01*
X55245000Y-37465000D02*
X55245000Y-35789900D01*
X71715000Y-33655000D02*
X70039900Y-33655000D01*
X71715000Y-33655000D02*
X72365900Y-33655000D01*
X53096500Y-33289000D02*
X54000500Y-32385000D01*
X64206400Y-35337400D02*
X68357500Y-35337400D01*
X74422000Y-33274000D02*
X72746900Y-33274000D01*
X72365900Y-33655000D02*
X72746900Y-33274000D01*
X57150700Y-33860100D02*
X57150700Y-33884200D01*
X55675600Y-32385000D02*
X57150700Y-33860100D01*
%TO.N,+5V*%
X75311000Y-37465000D02*
X79502000Y-33274000D01*
X68580000Y-37465000D02*
X75311000Y-37465000D01*
%TD*%
%TA.AperFunction,Conductor*%
%TO.N,GND*%
G36*
X65561462Y-29103502D02*
G01*
X65607955Y-29157158D01*
X65618059Y-29227432D01*
X65588565Y-29292012D01*
X65575174Y-29305308D01*
X65556369Y-29321369D01*
X65389384Y-29516884D01*
X65255040Y-29736113D01*
X65253147Y-29740683D01*
X65253145Y-29740687D01*
X65165722Y-29951745D01*
X65156645Y-29973660D01*
X65150931Y-29997460D01*
X65098628Y-30215319D01*
X65096622Y-30223674D01*
X65076449Y-30480000D01*
X65096622Y-30736326D01*
X65097776Y-30741133D01*
X65097777Y-30741139D01*
X65118760Y-30828539D01*
X65156645Y-30986340D01*
X65158538Y-30990911D01*
X65158539Y-30990913D01*
X65251495Y-31215328D01*
X65255040Y-31223887D01*
X65389384Y-31443116D01*
X65556369Y-31638631D01*
X65751884Y-31805616D01*
X65971113Y-31939960D01*
X65975683Y-31941853D01*
X65975687Y-31941855D01*
X65997986Y-31951091D01*
X66053267Y-31995639D01*
X66075688Y-32063002D01*
X66058130Y-32131793D01*
X66006168Y-32180172D01*
X65997986Y-32183909D01*
X65975687Y-32193145D01*
X65975683Y-32193147D01*
X65971113Y-32195040D01*
X65751884Y-32329384D01*
X65748124Y-32332596D01*
X65748119Y-32332599D01*
X65689693Y-32382500D01*
X65614375Y-32446828D01*
X65599122Y-32459855D01*
X65534333Y-32488886D01*
X65464133Y-32478281D01*
X65410810Y-32431406D01*
X65391680Y-32373930D01*
X65377840Y-32198073D01*
X65372378Y-32128674D01*
X65370173Y-32119487D01*
X65313510Y-31883472D01*
X65312355Y-31878660D01*
X65280601Y-31801999D01*
X65215855Y-31645687D01*
X65215853Y-31645683D01*
X65213960Y-31641113D01*
X65079616Y-31421884D01*
X64912631Y-31226369D01*
X64717116Y-31059384D01*
X64497887Y-30925040D01*
X64493317Y-30923147D01*
X64493313Y-30923145D01*
X64264913Y-30828539D01*
X64264911Y-30828538D01*
X64260340Y-30826645D01*
X64173498Y-30805796D01*
X64015139Y-30767777D01*
X64015133Y-30767776D01*
X64010326Y-30766622D01*
X63754000Y-30746449D01*
X63497674Y-30766622D01*
X63492867Y-30767776D01*
X63492861Y-30767777D01*
X63334502Y-30805796D01*
X63247660Y-30826645D01*
X63243089Y-30828538D01*
X63243087Y-30828539D01*
X63014685Y-30923146D01*
X63014683Y-30923147D01*
X63010113Y-30925040D01*
X62938508Y-30968920D01*
X62869977Y-30987458D01*
X62802300Y-30966002D01*
X62771848Y-30937051D01*
X62747284Y-30904275D01*
X62734724Y-30891715D01*
X62632649Y-30815214D01*
X62617054Y-30806676D01*
X62496606Y-30761522D01*
X62481351Y-30757895D01*
X62430486Y-30752369D01*
X62423672Y-30752000D01*
X61526115Y-30752000D01*
X61510876Y-30756475D01*
X61509671Y-30757865D01*
X61508000Y-30765548D01*
X61508000Y-33999884D01*
X61512475Y-34015123D01*
X61513865Y-34016328D01*
X61521548Y-34017999D01*
X62423669Y-34017999D01*
X62430490Y-34017629D01*
X62481352Y-34012105D01*
X62496604Y-34008479D01*
X62617054Y-33963324D01*
X62632649Y-33954786D01*
X62734724Y-33878285D01*
X62747284Y-33865725D01*
X62771848Y-33832949D01*
X62828707Y-33790433D01*
X62899526Y-33785407D01*
X62938506Y-33801079D01*
X63010113Y-33844960D01*
X63014683Y-33846853D01*
X63014685Y-33846854D01*
X63197427Y-33922548D01*
X63247660Y-33943355D01*
X63295274Y-33954786D01*
X63492861Y-34002223D01*
X63492867Y-34002224D01*
X63497674Y-34003378D01*
X63754000Y-34023551D01*
X64010326Y-34003378D01*
X64015133Y-34002224D01*
X64015139Y-34002223D01*
X64212726Y-33954786D01*
X64260340Y-33943355D01*
X64310573Y-33922548D01*
X64493313Y-33846855D01*
X64493317Y-33846853D01*
X64497887Y-33844960D01*
X64717116Y-33710616D01*
X64720876Y-33707404D01*
X64720881Y-33707401D01*
X64869878Y-33580145D01*
X64934667Y-33551114D01*
X65004867Y-33561719D01*
X65058190Y-33608594D01*
X65077320Y-33666070D01*
X65096622Y-33911326D01*
X65097776Y-33916133D01*
X65097777Y-33916139D01*
X65128244Y-34043042D01*
X65156645Y-34161340D01*
X65158538Y-34165911D01*
X65158539Y-34165913D01*
X65245237Y-34375220D01*
X65255040Y-34398887D01*
X65389384Y-34618116D01*
X65556369Y-34813631D01*
X65751884Y-34980616D01*
X65971113Y-35114960D01*
X65975683Y-35116853D01*
X65975687Y-35116855D01*
X66204087Y-35211461D01*
X66208660Y-35213355D01*
X66271406Y-35228419D01*
X66453861Y-35272223D01*
X66453867Y-35272224D01*
X66458674Y-35273378D01*
X66715000Y-35293551D01*
X66971326Y-35273378D01*
X66976133Y-35272224D01*
X66976139Y-35272223D01*
X67158594Y-35228419D01*
X67221340Y-35213355D01*
X67225913Y-35211461D01*
X67454313Y-35116855D01*
X67454317Y-35116853D01*
X67458887Y-35114960D01*
X67678116Y-34980616D01*
X67873631Y-34813631D01*
X68040616Y-34618116D01*
X68174960Y-34398887D01*
X68184764Y-34375220D01*
X68271461Y-34165913D01*
X68271462Y-34165911D01*
X68273355Y-34161340D01*
X68301756Y-34043042D01*
X68331373Y-33919681D01*
X70099142Y-33919681D01*
X70155967Y-34156373D01*
X70159016Y-34165758D01*
X70253592Y-34394085D01*
X70258073Y-34402879D01*
X70387208Y-34613608D01*
X70393001Y-34621581D01*
X70553516Y-34809520D01*
X70560480Y-34816484D01*
X70748419Y-34976999D01*
X70756392Y-34982792D01*
X70967121Y-35111927D01*
X70975915Y-35116408D01*
X71204242Y-35210984D01*
X71213627Y-35214033D01*
X71448608Y-35270447D01*
X71458029Y-35268469D01*
X71461000Y-35257002D01*
X71461000Y-35254945D01*
X71969000Y-35254945D01*
X71973344Y-35269738D01*
X71979681Y-35270858D01*
X72216373Y-35214033D01*
X72225758Y-35210984D01*
X72454085Y-35116408D01*
X72462879Y-35111927D01*
X72673608Y-34982792D01*
X72681581Y-34976999D01*
X72869520Y-34816484D01*
X72876484Y-34809520D01*
X73036999Y-34621581D01*
X73042792Y-34613608D01*
X73114557Y-34496498D01*
X73167205Y-34448867D01*
X73237246Y-34437260D01*
X73303821Y-34466522D01*
X73455419Y-34595999D01*
X73463392Y-34601792D01*
X73674121Y-34730927D01*
X73682915Y-34735408D01*
X73911242Y-34829984D01*
X73920627Y-34833033D01*
X74155608Y-34889447D01*
X74165029Y-34887469D01*
X74168000Y-34876002D01*
X74168000Y-31674055D01*
X74163656Y-31659262D01*
X74157319Y-31658142D01*
X73920627Y-31714967D01*
X73911242Y-31718016D01*
X73682915Y-31812592D01*
X73674121Y-31817073D01*
X73463392Y-31946208D01*
X73455419Y-31952001D01*
X73267480Y-32112516D01*
X73260516Y-32119480D01*
X73100001Y-32307419D01*
X73094208Y-32315392D01*
X73022443Y-32432502D01*
X72969795Y-32480133D01*
X72899754Y-32491740D01*
X72833179Y-32462478D01*
X72681581Y-32333001D01*
X72673608Y-32327208D01*
X72462879Y-32198073D01*
X72454085Y-32193592D01*
X72430707Y-32183909D01*
X72375426Y-32139361D01*
X72353005Y-32071998D01*
X72370563Y-32003206D01*
X72422525Y-31954828D01*
X72430707Y-31951091D01*
X72454085Y-31941408D01*
X72462879Y-31936927D01*
X72673608Y-31807792D01*
X72681581Y-31801999D01*
X72869520Y-31641484D01*
X72876484Y-31634520D01*
X73036999Y-31446581D01*
X73042792Y-31438608D01*
X73171927Y-31227879D01*
X73176408Y-31219085D01*
X73270984Y-30990758D01*
X73274033Y-30981373D01*
X73330447Y-30746392D01*
X73328469Y-30736971D01*
X73317002Y-30734000D01*
X71987115Y-30734000D01*
X71971876Y-30738475D01*
X71970671Y-30739865D01*
X71969000Y-30747548D01*
X71969000Y-35254945D01*
X71461000Y-35254945D01*
X71461000Y-33927115D01*
X71456525Y-33911876D01*
X71455135Y-33910671D01*
X71447452Y-33909000D01*
X70115055Y-33909000D01*
X70100262Y-33913344D01*
X70099142Y-33919681D01*
X68331373Y-33919681D01*
X68332223Y-33916139D01*
X68332224Y-33916133D01*
X68333378Y-33911326D01*
X68353551Y-33655000D01*
X68333378Y-33398674D01*
X68331373Y-33390319D01*
X68294204Y-33235502D01*
X68273355Y-33148660D01*
X68226276Y-33035000D01*
X68176855Y-32915687D01*
X68176853Y-32915683D01*
X68174960Y-32911113D01*
X68040616Y-32691884D01*
X67873631Y-32496369D01*
X67678116Y-32329384D01*
X67458887Y-32195040D01*
X67454317Y-32193147D01*
X67454313Y-32193145D01*
X67432014Y-32183909D01*
X67376733Y-32139361D01*
X67354312Y-32071998D01*
X67371870Y-32003207D01*
X67423832Y-31954828D01*
X67432014Y-31951091D01*
X67454313Y-31941855D01*
X67454317Y-31941853D01*
X67458887Y-31939960D01*
X67678116Y-31805616D01*
X67873631Y-31638631D01*
X68040616Y-31443116D01*
X68174960Y-31223887D01*
X68178506Y-31215328D01*
X68271461Y-30990913D01*
X68271462Y-30990911D01*
X68273355Y-30986340D01*
X68311240Y-30828539D01*
X68331373Y-30744681D01*
X70099142Y-30744681D01*
X70155967Y-30981373D01*
X70159016Y-30990758D01*
X70253592Y-31219085D01*
X70258073Y-31227879D01*
X70387208Y-31438608D01*
X70393001Y-31446581D01*
X70553516Y-31634520D01*
X70560480Y-31641484D01*
X70748419Y-31801999D01*
X70756392Y-31807792D01*
X70967121Y-31936927D01*
X70975915Y-31941408D01*
X70999293Y-31951091D01*
X71054574Y-31995639D01*
X71076995Y-32063002D01*
X71059437Y-32131794D01*
X71007475Y-32180172D01*
X70999293Y-32183909D01*
X70975915Y-32193592D01*
X70967121Y-32198073D01*
X70756392Y-32327208D01*
X70748419Y-32333001D01*
X70560480Y-32493516D01*
X70553516Y-32500480D01*
X70393001Y-32688419D01*
X70387208Y-32696392D01*
X70258073Y-32907121D01*
X70253592Y-32915915D01*
X70159016Y-33144242D01*
X70155967Y-33153627D01*
X70099553Y-33388608D01*
X70101531Y-33398029D01*
X70112998Y-33401000D01*
X71442885Y-33401000D01*
X71458124Y-33396525D01*
X71459329Y-33395135D01*
X71461000Y-33387452D01*
X71461000Y-30752115D01*
X71456525Y-30736876D01*
X71455135Y-30735671D01*
X71447452Y-30734000D01*
X70115055Y-30734000D01*
X70100262Y-30738344D01*
X70099142Y-30744681D01*
X68331373Y-30744681D01*
X68332223Y-30741139D01*
X68332224Y-30741133D01*
X68333378Y-30736326D01*
X68353551Y-30480000D01*
X68333378Y-30223674D01*
X68331373Y-30215319D01*
X68279069Y-29997460D01*
X68273355Y-29973660D01*
X68264278Y-29951745D01*
X68176855Y-29740687D01*
X68176853Y-29740683D01*
X68174960Y-29736113D01*
X68040616Y-29516884D01*
X67873631Y-29321369D01*
X67854829Y-29305311D01*
X67816020Y-29245862D01*
X67815512Y-29174867D01*
X67853468Y-29114868D01*
X67917836Y-29084914D01*
X67936659Y-29083500D01*
X70494110Y-29083500D01*
X70562231Y-29103502D01*
X70608724Y-29157158D01*
X70618828Y-29227432D01*
X70589334Y-29292012D01*
X70575941Y-29305311D01*
X70560480Y-29318516D01*
X70553516Y-29325480D01*
X70393001Y-29513419D01*
X70387208Y-29521392D01*
X70258073Y-29732121D01*
X70253592Y-29740915D01*
X70159016Y-29969242D01*
X70155967Y-29978627D01*
X70099553Y-30213608D01*
X70101531Y-30223029D01*
X70112998Y-30226000D01*
X73314945Y-30226000D01*
X73329738Y-30221656D01*
X73330858Y-30215319D01*
X73274033Y-29978627D01*
X73270984Y-29969242D01*
X73176408Y-29740915D01*
X73171927Y-29732121D01*
X73042792Y-29521392D01*
X73036999Y-29513419D01*
X72876484Y-29325480D01*
X72869520Y-29318516D01*
X72854059Y-29305311D01*
X72815250Y-29245860D01*
X72814744Y-29174865D01*
X72852700Y-29114867D01*
X72917069Y-29084914D01*
X72935890Y-29083500D01*
X85725500Y-29083500D01*
X85793621Y-29103502D01*
X85840114Y-29157158D01*
X85851500Y-29209500D01*
X85851500Y-40640500D01*
X85831498Y-40708621D01*
X85777842Y-40755114D01*
X85725500Y-40766500D01*
X49529500Y-40766500D01*
X49461379Y-40746498D01*
X49414886Y-40692842D01*
X49403500Y-40640500D01*
X49403500Y-37729681D01*
X53629142Y-37729681D01*
X53685967Y-37966373D01*
X53689016Y-37975758D01*
X53783592Y-38204085D01*
X53788073Y-38212879D01*
X53917208Y-38423608D01*
X53923001Y-38431581D01*
X54083516Y-38619520D01*
X54090480Y-38626484D01*
X54278419Y-38786999D01*
X54286392Y-38792792D01*
X54497121Y-38921927D01*
X54505915Y-38926408D01*
X54734242Y-39020984D01*
X54743627Y-39024033D01*
X54978608Y-39080447D01*
X54988029Y-39078469D01*
X54991000Y-39067002D01*
X54991000Y-39064945D01*
X55499000Y-39064945D01*
X55503344Y-39079738D01*
X55509681Y-39080858D01*
X55746373Y-39024033D01*
X55755758Y-39020984D01*
X55984085Y-38926408D01*
X55992879Y-38921927D01*
X56203608Y-38792792D01*
X56211581Y-38786999D01*
X56399520Y-38626484D01*
X56406484Y-38619520D01*
X56566999Y-38431581D01*
X56572792Y-38423608D01*
X56701927Y-38212879D01*
X56706408Y-38204085D01*
X56800984Y-37975758D01*
X56804033Y-37966373D01*
X56860447Y-37731392D01*
X56858469Y-37721971D01*
X56847002Y-37719000D01*
X55517115Y-37719000D01*
X55501876Y-37723475D01*
X55500671Y-37724865D01*
X55499000Y-37732548D01*
X55499000Y-39064945D01*
X54991000Y-39064945D01*
X54991000Y-37737115D01*
X54986525Y-37721876D01*
X54985135Y-37720671D01*
X54977452Y-37719000D01*
X53645055Y-37719000D01*
X53630262Y-37723344D01*
X53629142Y-37729681D01*
X49403500Y-37729681D01*
X49403500Y-36708717D01*
X49423502Y-36640596D01*
X49477158Y-36594103D01*
X49547432Y-36583999D01*
X49612012Y-36613493D01*
X49636933Y-36642882D01*
X49728384Y-36792116D01*
X49895369Y-36987631D01*
X50090884Y-37154616D01*
X50310113Y-37288960D01*
X50314683Y-37290853D01*
X50314687Y-37290855D01*
X50473145Y-37356490D01*
X50547660Y-37387355D01*
X50634502Y-37408204D01*
X50792861Y-37446223D01*
X50792867Y-37446224D01*
X50797674Y-37447378D01*
X51054000Y-37467551D01*
X51086414Y-37465000D01*
X63766449Y-37465000D01*
X63786622Y-37721326D01*
X63787776Y-37726133D01*
X63787777Y-37726139D01*
X63797856Y-37768119D01*
X63846645Y-37971340D01*
X63848538Y-37975911D01*
X63848539Y-37975913D01*
X63934432Y-38183276D01*
X63945040Y-38208887D01*
X64079384Y-38428116D01*
X64246369Y-38623631D01*
X64441884Y-38790616D01*
X64661113Y-38924960D01*
X64665683Y-38926853D01*
X64665687Y-38926855D01*
X64894087Y-39021461D01*
X64898660Y-39023355D01*
X64985502Y-39044204D01*
X65143861Y-39082223D01*
X65143867Y-39082224D01*
X65148674Y-39083378D01*
X65405000Y-39103551D01*
X65661326Y-39083378D01*
X65666133Y-39082224D01*
X65666139Y-39082223D01*
X65824498Y-39044204D01*
X65911340Y-39023355D01*
X65915913Y-39021461D01*
X66144313Y-38926855D01*
X66144317Y-38926853D01*
X66148887Y-38924960D01*
X66368116Y-38790616D01*
X66563631Y-38623631D01*
X66730616Y-38428116D01*
X66864960Y-38208887D01*
X66876091Y-38182014D01*
X66920639Y-38126733D01*
X66988002Y-38104312D01*
X67056793Y-38121870D01*
X67105172Y-38173832D01*
X67108907Y-38182011D01*
X67120040Y-38208887D01*
X67254384Y-38428116D01*
X67421369Y-38623631D01*
X67616884Y-38790616D01*
X67836113Y-38924960D01*
X67840683Y-38926853D01*
X67840687Y-38926855D01*
X68069087Y-39021461D01*
X68073660Y-39023355D01*
X68160502Y-39044204D01*
X68318861Y-39082223D01*
X68318867Y-39082224D01*
X68323674Y-39083378D01*
X68580000Y-39103551D01*
X68836326Y-39083378D01*
X68841133Y-39082224D01*
X68841139Y-39082223D01*
X68999498Y-39044204D01*
X69086340Y-39023355D01*
X69090913Y-39021461D01*
X69319313Y-38926855D01*
X69319317Y-38926853D01*
X69323887Y-38924960D01*
X69543116Y-38790616D01*
X69738631Y-38623631D01*
X69905616Y-38428116D01*
X69994136Y-38283665D01*
X70046784Y-38236034D01*
X70101569Y-38223500D01*
X75243930Y-38223500D01*
X75262880Y-38224933D01*
X75277115Y-38227099D01*
X75277119Y-38227099D01*
X75284349Y-38228199D01*
X75291641Y-38227606D01*
X75291644Y-38227606D01*
X75337018Y-38223915D01*
X75347233Y-38223500D01*
X75355293Y-38223500D01*
X75368583Y-38221951D01*
X75383507Y-38220211D01*
X75387882Y-38219778D01*
X75453339Y-38214454D01*
X75453342Y-38214453D01*
X75460637Y-38213860D01*
X75467601Y-38211604D01*
X75473560Y-38210413D01*
X75479415Y-38209029D01*
X75486681Y-38208182D01*
X75555327Y-38183265D01*
X75559455Y-38181848D01*
X75621936Y-38161607D01*
X75621938Y-38161606D01*
X75628899Y-38159351D01*
X75635154Y-38155555D01*
X75640628Y-38153049D01*
X75646058Y-38150330D01*
X75652937Y-38147833D01*
X75713976Y-38107814D01*
X75717680Y-38105477D01*
X75780107Y-38067595D01*
X75788484Y-38060197D01*
X75788508Y-38060224D01*
X75791500Y-38057571D01*
X75794733Y-38054868D01*
X75800852Y-38050856D01*
X75854128Y-37994617D01*
X75856506Y-37992175D01*
X76957868Y-36890813D01*
X77020180Y-36856787D01*
X77090995Y-36861852D01*
X77147831Y-36904399D01*
X77172642Y-36970919D01*
X77169482Y-37009322D01*
X77123628Y-37200319D01*
X77121622Y-37208674D01*
X77101449Y-37465000D01*
X77121622Y-37721326D01*
X77122776Y-37726133D01*
X77122777Y-37726139D01*
X77132856Y-37768119D01*
X77181645Y-37971340D01*
X77183538Y-37975911D01*
X77183539Y-37975913D01*
X77269432Y-38183276D01*
X77280040Y-38208887D01*
X77414384Y-38428116D01*
X77581369Y-38623631D01*
X77776884Y-38790616D01*
X77996113Y-38924960D01*
X78000683Y-38926853D01*
X78000687Y-38926855D01*
X78229087Y-39021461D01*
X78233660Y-39023355D01*
X78320502Y-39044204D01*
X78478861Y-39082223D01*
X78478867Y-39082224D01*
X78483674Y-39083378D01*
X78740000Y-39103551D01*
X78996326Y-39083378D01*
X79001133Y-39082224D01*
X79001139Y-39082223D01*
X79159498Y-39044204D01*
X79246340Y-39023355D01*
X79250913Y-39021461D01*
X79479313Y-38926855D01*
X79479317Y-38926853D01*
X79483887Y-38924960D01*
X79703116Y-38790616D01*
X79768234Y-38735000D01*
X82181449Y-38735000D01*
X82201622Y-38991326D01*
X82202776Y-38996133D01*
X82202777Y-38996139D01*
X82223815Y-39083766D01*
X82261645Y-39241340D01*
X82360040Y-39478887D01*
X82494384Y-39698116D01*
X82661369Y-39893631D01*
X82856884Y-40060616D01*
X83076113Y-40194960D01*
X83080683Y-40196853D01*
X83080687Y-40196855D01*
X83309087Y-40291461D01*
X83313660Y-40293355D01*
X83400502Y-40314204D01*
X83558861Y-40352223D01*
X83558867Y-40352224D01*
X83563674Y-40353378D01*
X83820000Y-40373551D01*
X84076326Y-40353378D01*
X84081133Y-40352224D01*
X84081139Y-40352223D01*
X84239498Y-40314204D01*
X84326340Y-40293355D01*
X84330913Y-40291461D01*
X84559313Y-40196855D01*
X84559317Y-40196853D01*
X84563887Y-40194960D01*
X84783116Y-40060616D01*
X84978631Y-39893631D01*
X85145616Y-39698116D01*
X85279960Y-39478887D01*
X85378355Y-39241340D01*
X85416185Y-39083766D01*
X85437223Y-38996139D01*
X85437224Y-38996133D01*
X85438378Y-38991326D01*
X85458551Y-38735000D01*
X85438378Y-38478674D01*
X85378355Y-38228660D01*
X85376042Y-38223075D01*
X85281855Y-37995687D01*
X85281853Y-37995683D01*
X85279960Y-37991113D01*
X85145616Y-37771884D01*
X84978631Y-37576369D01*
X84960028Y-37560481D01*
X84921220Y-37501031D01*
X84920714Y-37430036D01*
X84960028Y-37368861D01*
X84974513Y-37356490D01*
X84981491Y-37349512D01*
X85141999Y-37161581D01*
X85147792Y-37153608D01*
X85276927Y-36942879D01*
X85281408Y-36934085D01*
X85375984Y-36705758D01*
X85379033Y-36696373D01*
X85435447Y-36461392D01*
X85433469Y-36451971D01*
X85422002Y-36449000D01*
X82220055Y-36449000D01*
X82205262Y-36453344D01*
X82204142Y-36459681D01*
X82260967Y-36696373D01*
X82264016Y-36705758D01*
X82358592Y-36934085D01*
X82363073Y-36942879D01*
X82492208Y-37153608D01*
X82498001Y-37161581D01*
X82658509Y-37349512D01*
X82665487Y-37356490D01*
X82679972Y-37368861D01*
X82718780Y-37428312D01*
X82719286Y-37499307D01*
X82679972Y-37560481D01*
X82661369Y-37576369D01*
X82494384Y-37771884D01*
X82360040Y-37991113D01*
X82358147Y-37995683D01*
X82358145Y-37995687D01*
X82263958Y-38223075D01*
X82261645Y-38228660D01*
X82201622Y-38478674D01*
X82181449Y-38735000D01*
X79768234Y-38735000D01*
X79898631Y-38623631D01*
X80065616Y-38428116D01*
X80199960Y-38208887D01*
X80210569Y-38183276D01*
X80296461Y-37975913D01*
X80296462Y-37975911D01*
X80298355Y-37971340D01*
X80347144Y-37768119D01*
X80357223Y-37726139D01*
X80357224Y-37726133D01*
X80358378Y-37721326D01*
X80378551Y-37465000D01*
X80358378Y-37208674D01*
X80356373Y-37200319D01*
X80299510Y-36963472D01*
X80298355Y-36958660D01*
X80296461Y-36954087D01*
X80201855Y-36725687D01*
X80201853Y-36725683D01*
X80199960Y-36721113D01*
X80065616Y-36501884D01*
X79898631Y-36306369D01*
X79703116Y-36139384D01*
X79483887Y-36005040D01*
X79479317Y-36003147D01*
X79479313Y-36003145D01*
X79250913Y-35908539D01*
X79250911Y-35908538D01*
X79246340Y-35906645D01*
X79159498Y-35885796D01*
X79001139Y-35847777D01*
X79001133Y-35847776D01*
X78996326Y-35846622D01*
X78740000Y-35826449D01*
X78483674Y-35846622D01*
X78478867Y-35847776D01*
X78478861Y-35847777D01*
X78284322Y-35894482D01*
X78213414Y-35890935D01*
X78155680Y-35849615D01*
X78129450Y-35783641D01*
X78143053Y-35713960D01*
X78165813Y-35682868D01*
X78962429Y-34886252D01*
X79024741Y-34852226D01*
X79080936Y-34852828D01*
X79159838Y-34871771D01*
X79240861Y-34891223D01*
X79240867Y-34891224D01*
X79245674Y-34892378D01*
X79502000Y-34912551D01*
X79758326Y-34892378D01*
X79763133Y-34891224D01*
X79763139Y-34891223D01*
X79925571Y-34852226D01*
X80008340Y-34832355D01*
X80012913Y-34830461D01*
X80241313Y-34735855D01*
X80241317Y-34735853D01*
X80245887Y-34733960D01*
X80465116Y-34599616D01*
X80660631Y-34432631D01*
X80827616Y-34237116D01*
X80961960Y-34017887D01*
X80965858Y-34008478D01*
X81002639Y-33919681D01*
X82204142Y-33919681D01*
X82260967Y-34156373D01*
X82264016Y-34165758D01*
X82358592Y-34394085D01*
X82363073Y-34402879D01*
X82492208Y-34613608D01*
X82498001Y-34621581D01*
X82658509Y-34809512D01*
X82665484Y-34816487D01*
X82680356Y-34829188D01*
X82719165Y-34888639D01*
X82719673Y-34959633D01*
X82680356Y-35020812D01*
X82665484Y-35033513D01*
X82658509Y-35040488D01*
X82498001Y-35228419D01*
X82492208Y-35236392D01*
X82363073Y-35447121D01*
X82358592Y-35455915D01*
X82264016Y-35684242D01*
X82260967Y-35693627D01*
X82204553Y-35928608D01*
X82206531Y-35938029D01*
X82217998Y-35941000D01*
X83547885Y-35941000D01*
X83563124Y-35936525D01*
X83564329Y-35935135D01*
X83566000Y-35927452D01*
X83566000Y-35922885D01*
X84074000Y-35922885D01*
X84078475Y-35938124D01*
X84079865Y-35939329D01*
X84087548Y-35941000D01*
X85419945Y-35941000D01*
X85434738Y-35936656D01*
X85435858Y-35930319D01*
X85379033Y-35693627D01*
X85375984Y-35684242D01*
X85281408Y-35455915D01*
X85276927Y-35447121D01*
X85147792Y-35236392D01*
X85141999Y-35228419D01*
X84981491Y-35040488D01*
X84974516Y-35033513D01*
X84959644Y-35020812D01*
X84920835Y-34961361D01*
X84920327Y-34890367D01*
X84959644Y-34829188D01*
X84974516Y-34816487D01*
X84981491Y-34809512D01*
X85141999Y-34621581D01*
X85147792Y-34613608D01*
X85276927Y-34402879D01*
X85281408Y-34394085D01*
X85375984Y-34165758D01*
X85379033Y-34156373D01*
X85435447Y-33921392D01*
X85433469Y-33911971D01*
X85422002Y-33909000D01*
X84092115Y-33909000D01*
X84076876Y-33913475D01*
X84075671Y-33914865D01*
X84074000Y-33922548D01*
X84074000Y-35922885D01*
X83566000Y-35922885D01*
X83566000Y-33927115D01*
X83561525Y-33911876D01*
X83560135Y-33910671D01*
X83552452Y-33909000D01*
X82220055Y-33909000D01*
X82205262Y-33913344D01*
X82204142Y-33919681D01*
X81002639Y-33919681D01*
X81058461Y-33784913D01*
X81058462Y-33784911D01*
X81060355Y-33780340D01*
X81089263Y-33659930D01*
X81119223Y-33535139D01*
X81119224Y-33535133D01*
X81120378Y-33530326D01*
X81140551Y-33274000D01*
X81120378Y-33017674D01*
X81060355Y-32767660D01*
X81030835Y-32696392D01*
X80963855Y-32534687D01*
X80963853Y-32534683D01*
X80961960Y-32530113D01*
X80827616Y-32310884D01*
X80808186Y-32288134D01*
X82186500Y-32288134D01*
X82193255Y-32350316D01*
X82244385Y-32486705D01*
X82331739Y-32603261D01*
X82338919Y-32608642D01*
X82338920Y-32608643D01*
X82388988Y-32646167D01*
X82431503Y-32703026D01*
X82436529Y-32773845D01*
X82420856Y-32812828D01*
X82363073Y-32907121D01*
X82358592Y-32915915D01*
X82264016Y-33144242D01*
X82260967Y-33153627D01*
X82204553Y-33388608D01*
X82206531Y-33398029D01*
X82217998Y-33401000D01*
X85419945Y-33401000D01*
X85434738Y-33396656D01*
X85435858Y-33390319D01*
X85379033Y-33153627D01*
X85375984Y-33144242D01*
X85281408Y-32915915D01*
X85276927Y-32907121D01*
X85219144Y-32812828D01*
X85200606Y-32744294D01*
X85222062Y-32676618D01*
X85251012Y-32646167D01*
X85301080Y-32608643D01*
X85301081Y-32608642D01*
X85308261Y-32603261D01*
X85395615Y-32486705D01*
X85446745Y-32350316D01*
X85453500Y-32288134D01*
X85453500Y-29941866D01*
X85446745Y-29879684D01*
X85395615Y-29743295D01*
X85308261Y-29626739D01*
X85191705Y-29539385D01*
X85055316Y-29488255D01*
X84993134Y-29481500D01*
X82646866Y-29481500D01*
X82584684Y-29488255D01*
X82448295Y-29539385D01*
X82331739Y-29626739D01*
X82244385Y-29743295D01*
X82193255Y-29879684D01*
X82186500Y-29941866D01*
X82186500Y-32288134D01*
X80808186Y-32288134D01*
X80660631Y-32115369D01*
X80465116Y-31948384D01*
X80245887Y-31814040D01*
X80241317Y-31812147D01*
X80241313Y-31812145D01*
X80012913Y-31717539D01*
X80012911Y-31717538D01*
X80008340Y-31715645D01*
X79921498Y-31694796D01*
X79763139Y-31656777D01*
X79763133Y-31656776D01*
X79758326Y-31655622D01*
X79502000Y-31635449D01*
X79245674Y-31655622D01*
X79240867Y-31656776D01*
X79240861Y-31656777D01*
X79082502Y-31694796D01*
X78995660Y-31715645D01*
X78991089Y-31717538D01*
X78991087Y-31717539D01*
X78762687Y-31812145D01*
X78762683Y-31812147D01*
X78758113Y-31814040D01*
X78538884Y-31948384D01*
X78343369Y-32115369D01*
X78327809Y-32133587D01*
X78268360Y-32172395D01*
X78197366Y-32172901D01*
X78136191Y-32133587D01*
X78120631Y-32115369D01*
X77925116Y-31948384D01*
X77705887Y-31814040D01*
X77701317Y-31812147D01*
X77701313Y-31812145D01*
X77472913Y-31717539D01*
X77472911Y-31717538D01*
X77468340Y-31715645D01*
X77381498Y-31694796D01*
X77223139Y-31656777D01*
X77223133Y-31656776D01*
X77218326Y-31655622D01*
X76962000Y-31635449D01*
X76705674Y-31655622D01*
X76700867Y-31656776D01*
X76700861Y-31656777D01*
X76542502Y-31694796D01*
X76455660Y-31715645D01*
X76451089Y-31717538D01*
X76451087Y-31717539D01*
X76222687Y-31812145D01*
X76222683Y-31812147D01*
X76218113Y-31814040D01*
X75998884Y-31948384D01*
X75803369Y-32115369D01*
X75787481Y-32133972D01*
X75728031Y-32172780D01*
X75657036Y-32173286D01*
X75595861Y-32133972D01*
X75583490Y-32119487D01*
X75576512Y-32112509D01*
X75388581Y-31952001D01*
X75380608Y-31946208D01*
X75169879Y-31817073D01*
X75161085Y-31812592D01*
X74932758Y-31718016D01*
X74923373Y-31714967D01*
X74688392Y-31658553D01*
X74678971Y-31660531D01*
X74676000Y-31671998D01*
X74676000Y-34873945D01*
X74680344Y-34888738D01*
X74686681Y-34889858D01*
X74923373Y-34833033D01*
X74932758Y-34829984D01*
X75161085Y-34735408D01*
X75169879Y-34730927D01*
X75380608Y-34601792D01*
X75388581Y-34595999D01*
X75576512Y-34435491D01*
X75583490Y-34428513D01*
X75595861Y-34414028D01*
X75655312Y-34375220D01*
X75726307Y-34374714D01*
X75787481Y-34414028D01*
X75803369Y-34432631D01*
X75998884Y-34599616D01*
X76218113Y-34733960D01*
X76222683Y-34735853D01*
X76222687Y-34735855D01*
X76451087Y-34830461D01*
X76455660Y-34832355D01*
X76571789Y-34860235D01*
X76633358Y-34895587D01*
X76666041Y-34958614D01*
X76659461Y-35029305D01*
X76631470Y-35071849D01*
X75033724Y-36669595D01*
X74971412Y-36703621D01*
X74944629Y-36706500D01*
X70101569Y-36706500D01*
X70033448Y-36686498D01*
X69994136Y-36646335D01*
X69946324Y-36568313D01*
X69905616Y-36501884D01*
X69738631Y-36306369D01*
X69543116Y-36139384D01*
X69323887Y-36005040D01*
X69319317Y-36003147D01*
X69319313Y-36003145D01*
X69090913Y-35908539D01*
X69090911Y-35908538D01*
X69086340Y-35906645D01*
X68999498Y-35885796D01*
X68841139Y-35847777D01*
X68841133Y-35847776D01*
X68836326Y-35846622D01*
X68580000Y-35826449D01*
X68323674Y-35846622D01*
X68318867Y-35847776D01*
X68318861Y-35847777D01*
X68160502Y-35885796D01*
X68073660Y-35906645D01*
X68069089Y-35908538D01*
X68069087Y-35908539D01*
X67840687Y-36003145D01*
X67840683Y-36003147D01*
X67836113Y-36005040D01*
X67616884Y-36139384D01*
X67421369Y-36306369D01*
X67254384Y-36501884D01*
X67120040Y-36721113D01*
X67118147Y-36725683D01*
X67118145Y-36725687D01*
X67108909Y-36747986D01*
X67064361Y-36803267D01*
X66996998Y-36825688D01*
X66928207Y-36808130D01*
X66879828Y-36756168D01*
X66876091Y-36747986D01*
X66866855Y-36725687D01*
X66866853Y-36725683D01*
X66864960Y-36721113D01*
X66730616Y-36501884D01*
X66563631Y-36306369D01*
X66368116Y-36139384D01*
X66148887Y-36005040D01*
X66144317Y-36003147D01*
X66144313Y-36003145D01*
X65915913Y-35908539D01*
X65915911Y-35908538D01*
X65911340Y-35906645D01*
X65824498Y-35885796D01*
X65666139Y-35847777D01*
X65666133Y-35847776D01*
X65661326Y-35846622D01*
X65405000Y-35826449D01*
X65148674Y-35846622D01*
X65143867Y-35847776D01*
X65143861Y-35847777D01*
X64985502Y-35885796D01*
X64898660Y-35906645D01*
X64894089Y-35908538D01*
X64894087Y-35908539D01*
X64665687Y-36003145D01*
X64665683Y-36003147D01*
X64661113Y-36005040D01*
X64441884Y-36139384D01*
X64246369Y-36306369D01*
X64079384Y-36501884D01*
X63945040Y-36721113D01*
X63943147Y-36725683D01*
X63943145Y-36725687D01*
X63848539Y-36954087D01*
X63846645Y-36958660D01*
X63845490Y-36963472D01*
X63788628Y-37200319D01*
X63786622Y-37208674D01*
X63766449Y-37465000D01*
X51086414Y-37465000D01*
X51310326Y-37447378D01*
X51315133Y-37446224D01*
X51315139Y-37446223D01*
X51473498Y-37408204D01*
X51560340Y-37387355D01*
X51634855Y-37356490D01*
X51793313Y-37290855D01*
X51793317Y-37290853D01*
X51797887Y-37288960D01*
X51945328Y-37198608D01*
X53629553Y-37198608D01*
X53631531Y-37208029D01*
X53642998Y-37211000D01*
X54972885Y-37211000D01*
X54988124Y-37206525D01*
X54989329Y-37205135D01*
X54991000Y-37197452D01*
X54991000Y-37192885D01*
X55499000Y-37192885D01*
X55503475Y-37208124D01*
X55504865Y-37209329D01*
X55512548Y-37211000D01*
X56844945Y-37211000D01*
X56859738Y-37206656D01*
X56860858Y-37200319D01*
X56804033Y-36963627D01*
X56800984Y-36954242D01*
X56706408Y-36725915D01*
X56701927Y-36717121D01*
X56572792Y-36506392D01*
X56566999Y-36498419D01*
X56406484Y-36310480D01*
X56399520Y-36303516D01*
X56211581Y-36143001D01*
X56203608Y-36137208D01*
X55992879Y-36008073D01*
X55984085Y-36003592D01*
X55755758Y-35909016D01*
X55746373Y-35905967D01*
X55511392Y-35849553D01*
X55501971Y-35851531D01*
X55499000Y-35862998D01*
X55499000Y-37192885D01*
X54991000Y-37192885D01*
X54991000Y-35865055D01*
X54986656Y-35850262D01*
X54980319Y-35849142D01*
X54743627Y-35905967D01*
X54734242Y-35909016D01*
X54505915Y-36003592D01*
X54497121Y-36008073D01*
X54286392Y-36137208D01*
X54278419Y-36143001D01*
X54090480Y-36303516D01*
X54083516Y-36310480D01*
X53923001Y-36498419D01*
X53917208Y-36506392D01*
X53788073Y-36717121D01*
X53783592Y-36725915D01*
X53689016Y-36954242D01*
X53685967Y-36963627D01*
X53629553Y-37198608D01*
X51945328Y-37198608D01*
X52017116Y-37154616D01*
X52212631Y-36987631D01*
X52379616Y-36792116D01*
X52513960Y-36572887D01*
X52543371Y-36501884D01*
X52610461Y-36339913D01*
X52610462Y-36339911D01*
X52612355Y-36335340D01*
X52633204Y-36248498D01*
X52671223Y-36090139D01*
X52671224Y-36090133D01*
X52672378Y-36085326D01*
X52692551Y-35829000D01*
X52672378Y-35572674D01*
X52642236Y-35447121D01*
X52613510Y-35327472D01*
X52612355Y-35322660D01*
X52600137Y-35293163D01*
X52515855Y-35089687D01*
X52515853Y-35089683D01*
X52513960Y-35085113D01*
X52379616Y-34865884D01*
X52212631Y-34670369D01*
X52194028Y-34654481D01*
X52155220Y-34595031D01*
X52154714Y-34524036D01*
X52194028Y-34462861D01*
X52208513Y-34450490D01*
X52215491Y-34443512D01*
X52375999Y-34255581D01*
X52381792Y-34247608D01*
X52510927Y-34036879D01*
X52515408Y-34028085D01*
X52609984Y-33799758D01*
X52613033Y-33790373D01*
X52669447Y-33555392D01*
X52669295Y-33554669D01*
X54042601Y-33554669D01*
X54042971Y-33561490D01*
X54048495Y-33612352D01*
X54052121Y-33627604D01*
X54097276Y-33748054D01*
X54105814Y-33763649D01*
X54182315Y-33865724D01*
X54194876Y-33878285D01*
X54296951Y-33954786D01*
X54312546Y-33963324D01*
X54432994Y-34008478D01*
X54448249Y-34012105D01*
X54499114Y-34017631D01*
X54505928Y-34018000D01*
X55403485Y-34018000D01*
X55418724Y-34013525D01*
X55419929Y-34012135D01*
X55421600Y-34004452D01*
X55421600Y-32657115D01*
X55417125Y-32641876D01*
X55415735Y-32640671D01*
X55408052Y-32639000D01*
X54060716Y-32639000D01*
X54045477Y-32643475D01*
X54044272Y-32644865D01*
X54042601Y-32652548D01*
X54042601Y-33554669D01*
X52669295Y-33554669D01*
X52667469Y-33545971D01*
X52656002Y-33543000D01*
X50926000Y-33543000D01*
X50857879Y-33522998D01*
X50811386Y-33469342D01*
X50800000Y-33417000D01*
X50800000Y-33161000D01*
X50820002Y-33092879D01*
X50873658Y-33046386D01*
X50926000Y-33035000D01*
X52653945Y-33035000D01*
X52668738Y-33030656D01*
X52669858Y-33024319D01*
X52613033Y-32787627D01*
X52609984Y-32778242D01*
X52515408Y-32549915D01*
X52510927Y-32541121D01*
X52453144Y-32446828D01*
X52434606Y-32378294D01*
X52456062Y-32310618D01*
X52485012Y-32280167D01*
X52535080Y-32242643D01*
X52535081Y-32242642D01*
X52542261Y-32237261D01*
X52629615Y-32120705D01*
X52680745Y-31984316D01*
X52687500Y-31922134D01*
X52687500Y-31629677D01*
X52707502Y-31561556D01*
X52761158Y-31515063D01*
X52798923Y-31504524D01*
X52801655Y-31504205D01*
X52805982Y-31503778D01*
X52871439Y-31498454D01*
X52871442Y-31498453D01*
X52878737Y-31497860D01*
X52885698Y-31495605D01*
X52891633Y-31494419D01*
X52897510Y-31493030D01*
X52904781Y-31492182D01*
X52911665Y-31489683D01*
X52911670Y-31489682D01*
X52949468Y-31475962D01*
X52992460Y-31468400D01*
X53916600Y-31468400D01*
X53984721Y-31488402D01*
X54031214Y-31542058D01*
X54042600Y-31594400D01*
X54042600Y-32112885D01*
X54047075Y-32128124D01*
X54048465Y-32129329D01*
X54056148Y-32131000D01*
X55803600Y-32131000D01*
X55871721Y-32151002D01*
X55918214Y-32204658D01*
X55929600Y-32257000D01*
X55929600Y-33999884D01*
X55934075Y-34015123D01*
X55935465Y-34016328D01*
X55943148Y-34017999D01*
X56845269Y-34017999D01*
X56852090Y-34017629D01*
X56902952Y-34012105D01*
X56918204Y-34008479D01*
X57038654Y-33963324D01*
X57054249Y-33954786D01*
X57156324Y-33878285D01*
X57168884Y-33865725D01*
X57193448Y-33832949D01*
X57250307Y-33790433D01*
X57321126Y-33785407D01*
X57360106Y-33801079D01*
X57431713Y-33844960D01*
X57436283Y-33846853D01*
X57436285Y-33846854D01*
X57619027Y-33922548D01*
X57669260Y-33943355D01*
X57716874Y-33954786D01*
X57914461Y-34002223D01*
X57914467Y-34002224D01*
X57919274Y-34003378D01*
X58175600Y-34023551D01*
X58431926Y-34003378D01*
X58436733Y-34002224D01*
X58436739Y-34002223D01*
X58634326Y-33954786D01*
X58681940Y-33943355D01*
X58732173Y-33922548D01*
X58914913Y-33846855D01*
X58914917Y-33846853D01*
X58919487Y-33844960D01*
X59138716Y-33710616D01*
X59334231Y-33543631D01*
X59399191Y-33467572D01*
X59458641Y-33428764D01*
X59529635Y-33428258D01*
X59589634Y-33466214D01*
X59619587Y-33530582D01*
X59621001Y-33549404D01*
X59621001Y-33554669D01*
X59621371Y-33561490D01*
X59626895Y-33612352D01*
X59630521Y-33627604D01*
X59675676Y-33748054D01*
X59684214Y-33763649D01*
X59760715Y-33865724D01*
X59773276Y-33878285D01*
X59875351Y-33954786D01*
X59890946Y-33963324D01*
X60011394Y-34008478D01*
X60026649Y-34012105D01*
X60077514Y-34017631D01*
X60084328Y-34018000D01*
X60981885Y-34018000D01*
X60997124Y-34013525D01*
X60998329Y-34012135D01*
X61000000Y-34004452D01*
X61000000Y-30770116D01*
X60995525Y-30754877D01*
X60994135Y-30753672D01*
X60986452Y-30752001D01*
X60084331Y-30752001D01*
X60077510Y-30752371D01*
X60026648Y-30757895D01*
X60011396Y-30761521D01*
X59890946Y-30806676D01*
X59875351Y-30815214D01*
X59773276Y-30891715D01*
X59760715Y-30904276D01*
X59684214Y-31006351D01*
X59675676Y-31021946D01*
X59630522Y-31142394D01*
X59626895Y-31157649D01*
X59621369Y-31208514D01*
X59621000Y-31215328D01*
X59621000Y-31220595D01*
X59600998Y-31288716D01*
X59547342Y-31335209D01*
X59477068Y-31345313D01*
X59412488Y-31315819D01*
X59399189Y-31302425D01*
X59337444Y-31230131D01*
X59334231Y-31226369D01*
X59138716Y-31059384D01*
X58994265Y-30970864D01*
X58946634Y-30918216D01*
X58934100Y-30863431D01*
X58934100Y-30737735D01*
X58934342Y-30729933D01*
X58937693Y-30675913D01*
X58938147Y-30668602D01*
X58927220Y-30605011D01*
X58926251Y-30598282D01*
X58919630Y-30541489D01*
X58919629Y-30541486D01*
X58918782Y-30534219D01*
X58915542Y-30525293D01*
X58909801Y-30503642D01*
X58908194Y-30494286D01*
X58882927Y-30434904D01*
X58880448Y-30428611D01*
X58858433Y-30367963D01*
X58853227Y-30360022D01*
X58842667Y-30340285D01*
X58841813Y-30338277D01*
X58841806Y-30338265D01*
X58838943Y-30331536D01*
X58834607Y-30325644D01*
X58834604Y-30325639D01*
X58800700Y-30279568D01*
X58796810Y-30273972D01*
X58793494Y-30268914D01*
X58761456Y-30220048D01*
X58754561Y-30213516D01*
X58739739Y-30196734D01*
X58734108Y-30189082D01*
X58728535Y-30184347D01*
X58728528Y-30184340D01*
X58684951Y-30147319D01*
X58679877Y-30142767D01*
X58638366Y-30103443D01*
X58638365Y-30103442D01*
X58633053Y-30098410D01*
X58626726Y-30094735D01*
X58626717Y-30094728D01*
X58624832Y-30093633D01*
X58606553Y-30080715D01*
X58604894Y-30079306D01*
X58604891Y-30079304D01*
X58599315Y-30074567D01*
X58592801Y-30071241D01*
X58592797Y-30071238D01*
X58541864Y-30045230D01*
X58535881Y-30041968D01*
X58486441Y-30013251D01*
X58486439Y-30013250D01*
X58480110Y-30009574D01*
X58473106Y-30007453D01*
X58473102Y-30007451D01*
X58471025Y-30006822D01*
X58450249Y-29998449D01*
X58441792Y-29994131D01*
X58379105Y-29978792D01*
X58372588Y-29977009D01*
X58310833Y-29958305D01*
X58301583Y-29957731D01*
X58301354Y-29957717D01*
X58279217Y-29954349D01*
X58275446Y-29953426D01*
X58275434Y-29953424D01*
X58269990Y-29952092D01*
X58262139Y-29951605D01*
X58260775Y-29951520D01*
X58260765Y-29951520D01*
X58258836Y-29951400D01*
X58203435Y-29951400D01*
X58195633Y-29951158D01*
X58134302Y-29947353D01*
X58121340Y-29949580D01*
X58100004Y-29951400D01*
X52835270Y-29951400D01*
X52816320Y-29949967D01*
X52794851Y-29946701D01*
X52795336Y-29943513D01*
X52741554Y-29925562D01*
X52697051Y-29870245D01*
X52687500Y-29822123D01*
X52687500Y-29575866D01*
X52680745Y-29513684D01*
X52629615Y-29377295D01*
X52560492Y-29285064D01*
X52535644Y-29218559D01*
X52550697Y-29149176D01*
X52600871Y-29098946D01*
X52661318Y-29083500D01*
X65493341Y-29083500D01*
X65561462Y-29103502D01*
G37*
%TD.AperFunction*%
%TD*%
M02*
